<svg width="435" height="87" viewBox="0 0 435 87" fill="none" xmlns="http://www.w3.org/2000/svg">
<path fill-rule="evenodd" clip-rule="evenodd" d="M205.362 22.6852C207.398 10.2166 220.562 0.584351 236.48 0.584351C252.971 0.584351 266.511 10.9272 267.772 24.0523C272.258 24.84 275.813 27.8368 276.833 31.6589C278.218 31.1983 279.707 30.9503 281.26 30.9503C283.959 30.9503 286.465 31.7047 288.555 32.9989C292.471 29.5394 297.661 27.4346 303.348 27.4346C313.268 27.4346 321.67 33.8408 324.454 42.652C326.743 41.9101 329.206 41.5058 331.771 41.5058C343.011 41.5058 352.312 49.2645 353.757 59.3073C361.85 60.0075 368.125 64.9341 368.125 70.9006C368.125 72.0093 367.908 73.0826 367.503 74.0995C367.566 74.0975 367.626 74.0974 367.689 74.0974C371.023 74.0974 373.728 76.4419 373.728 79.3304C373.728 80.139 373.515 80.9059 373.136 81.5894C399.217 83.7651 431.262 85.7033 434.68 86.1201C440.505 86.8286 0.726562 85.1968 0.726562 85.1968C0.726562 85.1968 28.1299 83.4484 44.0786 81.5207C55.4749 80.1432 52.4783 78.3217 53.3812 76.0543C54.6178 72.945 59.5246 70.6193 65.3844 70.6193C67.33 70.6193 69.1693 70.8756 70.8042 71.332C71.2484 64.6007 79.6418 59.2239 89.9142 59.2239C94.6062 59.2239 98.9061 60.3452 102.236 62.2041C103.004 56.6586 108.407 52.2488 115.211 51.609C117.076 42.2435 125.759 35.1517 136.177 35.1517C140.2 35.1517 143.962 36.2082 147.175 38.0463C150.26 31.0691 158.618 26.0592 168.431 26.0592C173.705 26.0592 178.555 27.5055 182.397 29.925C185.537 24.7942 191.453 21.3326 198.228 21.3326C200.76 21.3285 203.171 21.812 205.362 22.6852Z" fill="#EFF2FF"/>
<path d="M205.362 22.6852C207.398 10.2166 220.562 0.584351 236.48 0.584351C252.971 0.584351 266.511 10.9272 267.772 24.0523C272.258 24.84 275.813 27.8368 276.833 31.6589C278.218 31.1983 279.707 30.9503 281.26 30.9503C283.959 30.9503 286.465 31.7047 288.555 32.9989C292.471 29.5394 297.661 27.4346 303.348 27.4346C313.268 27.4346 321.67 33.8408 324.454 42.652C326.743 41.9101 329.206 41.5058 331.771 41.5058C343.011 41.5058 352.312 49.2645 353.757 59.3073C361.85 60.0075 368.125 64.9341 368.125 70.9006C368.125 72.0093 367.908 73.0826 367.503 74.0995C367.566 74.0975 367.626 74.0974 367.689 74.0974C371.023 74.0974 373.728 76.4419 373.728 79.3304C373.728 80.139 373.515 80.9059 373.136 81.5894C399.217 83.7651 431.262 85.7033 434.68 86.1201C440.505 86.8286 0.726562 85.1968 0.726562 85.1968C0.726562 85.1968 28.1299 83.4484 44.0786 81.5207C55.4749 80.1432 52.4783 78.3217 53.3812 76.0543C54.6178 72.945 59.5246 70.6193 65.3844 70.6193C67.33 70.6193 69.1693 70.8756 70.8042 71.332C71.2484 64.6007 79.6418 59.2239 89.9142 59.2239C94.6062 59.2239 98.9061 60.3452 102.236 62.2041C103.004 56.6586 108.407 52.2488 115.211 51.609C117.076 42.2435 125.759 35.1517 136.177 35.1517C140.2 35.1517 143.962 36.2082 147.175 38.0463C150.26 31.0691 158.618 26.0592 168.431 26.0592C173.705 26.0592 178.555 27.5055 182.397 29.925C185.537 24.7942 191.453 21.3326 198.228 21.3326C200.76 21.3285 203.171 21.812 205.362 22.6852Z" fill="#EFF2FF"/>
<mask id="mask0_2_7590" style="mask-type:luminance" maskUnits="userSpaceOnUse" x="0" y="0" width="435" height="87">
<path d="M205.362 22.6852C207.398 10.2166 220.562 0.584351 236.48 0.584351C252.971 0.584351 266.511 10.9272 267.772 24.0523C272.258 24.84 275.813 27.8368 276.833 31.6589C278.218 31.1983 279.707 30.9503 281.26 30.9503C283.959 30.9503 286.465 31.7047 288.555 32.9989C292.471 29.5394 297.661 27.4346 303.348 27.4346C313.268 27.4346 321.67 33.8408 324.454 42.652C326.743 41.9101 329.206 41.5058 331.771 41.5058C343.011 41.5058 352.312 49.2645 353.757 59.3073C361.85 60.0075 368.125 64.9341 368.125 70.9006C368.125 72.0093 367.908 73.0826 367.503 74.0995C367.566 74.0975 367.626 74.0974 367.689 74.0974C371.023 74.0974 373.728 76.4419 373.728 79.3304C373.728 80.139 373.515 80.9059 373.136 81.5894C399.217 83.7651 431.262 85.7033 434.68 86.1201C440.505 86.8286 0.726562 85.1968 0.726562 85.1968C0.726562 85.1968 28.1299 83.4484 44.0786 81.5207C55.4749 80.1432 52.4783 78.3217 53.3812 76.0543C54.6178 72.945 59.5246 70.6193 65.3844 70.6193C67.33 70.6193 69.1693 70.8756 70.8042 71.332C71.2484 64.6007 79.6418 59.2239 89.9142 59.2239C94.6062 59.2239 98.9061 60.3452 102.236 62.2041C103.004 56.6586 108.407 52.2488 115.211 51.609C117.076 42.2435 125.759 35.1517 136.177 35.1517C140.2 35.1517 143.962 36.2082 147.175 38.0463C150.26 31.0691 158.618 26.0592 168.431 26.0592C173.705 26.0592 178.555 27.5055 182.397 29.925C185.537 24.7942 191.453 21.3326 198.228 21.3326C200.76 21.3285 203.171 21.812 205.362 22.6852Z" fill="white"/>
</mask>
<g mask="url(#mask0_2_7590)">
<path fill-rule="evenodd" clip-rule="evenodd" d="M147.799 76.2898C147.209 78.3551 144.413 79.8723 142.582 80.4829C137.156 82.2897 130.533 81.6082 125.574 78.7323C123.907 77.7653 121.134 74.2434 119.017 74.5705C116.894 74.8957 115.289 77.5402 113.754 78.8011C111.012 81.0518 107.834 82.4543 104.28 82.7607C99.7426 83.1525 95.4635 81.7395 91.6619 79.3262C90.1271 78.353 87.7478 75.4604 85.8334 75.4187C84.6594 75.3916 83.4937 77.0734 82.8034 77.8154C81.3854 79.3408 79.542 80.8246 77.4712 81.3331C73.5654 82.2897 68.9422 81.3644 65.1845 80.1828C63.806 79.7493 62.4422 78.924 61.0117 78.7094C59.1182 78.428 57.6251 80.9184 55.7859 81.3311C50.022 82.6273 43.8411 79.0053 41.3178 73.9224C37.5246 66.2783 45.6303 60.7974 51.025 56.7149C58.9827 50.69 67.8954 47.8683 77.6673 46.3449C84.7949 45.2341 92.1457 45.655 98.5644 41.9268C119.851 32.4675 134.176 14.5159 155.198 4.37101C184.597 -9.81478 216.807 -10.3796 248.683 -8.10383C269.505 -6.61794 290.098 -4.09003 308.952 5.49845C319.42 10.821 329.567 18.8402 337.112 27.8744C343.966 36.0812 348.838 48.5018 357.759 54.7746C359.275 55.7833 360.242 58.3633 360.659 59.9846C362.157 65.7886 360.343 71.2757 355.317 74.6518C351.909 76.9421 347.491 77.807 343.495 76.8442C341.208 76.294 338.624 74.3767 336.196 74.854C334.021 75.2812 332.303 77.3069 330.468 78.4135C326.641 80.7205 322.254 82.5627 317.737 82.6982C311.012 82.9003 303.878 80.5579 298.074 77.286C296.089 76.1669 294.19 74.9769 292.521 73.416C291.796 72.7366 290.749 71.3987 289.639 71.3987C287.475 71.3987 284.557 75.5896 282.837 76.7004C279.156 79.0762 274.512 80.1723 270.198 80.5162C262.985 81.0914 255.563 79.6743 249.032 76.5712C246.861 75.5396 244.742 74.3913 242.728 73.0847C241.743 72.447 240.4 71.0965 239.145 71.0757C236.689 71.034 234.015 75.4958 232.518 76.9922C229.603 79.9077 225.903 81.5165 221.826 81.9729C216.477 82.5731 211.393 81.2873 206.12 80.808C199.48 80.2057 193.18 81.1039 186.935 78.0383C184.119 76.6566 181.744 74.4351 179.646 72.1302C178.777 71.1757 177.478 68.8375 176.139 68.4707C175.244 68.2248 174.969 70.6547 174.854 71.1028C174.162 73.789 173.336 76.9401 170.788 78.4697C164.211 82.4127 154.299 79.7639 148.124 76.2044" fill="#EFF2FF"/>
</g>
<path fill-rule="evenodd" clip-rule="evenodd" d="M279.809 45.0111C278.353 56.2751 285.912 67.3203 297.791 70.5005C309.266 73.5744 320.927 68.2748 325.646 58.4612C325.523 59.4136 325.336 60.3681 325.081 61.3184C321.811 73.514 308.697 80.6141 295.816 77.1651C282.933 73.7161 275.127 61.0141 278.397 48.8186C278.756 47.4869 279.229 46.2157 279.809 45.0111Z" fill="#EFF2FF"/>
<path fill-rule="evenodd" clip-rule="evenodd" d="M169.524 47.762C168.068 59.026 175.63 70.0712 187.508 73.2514C198.983 76.3253 210.642 71.0256 215.363 61.2121C215.24 62.1645 215.053 63.119 214.798 64.0693C211.529 76.2648 198.416 83.365 185.533 79.916C172.65 76.467 164.846 63.765 168.114 51.5694C168.471 50.2357 168.946 48.9644 169.524 47.762Z" fill="#EFF2FF"/>
<path fill-rule="evenodd" clip-rule="evenodd" d="M213.489 75.1916C221.615 79.5888 232.215 77.0859 238.104 69.0083C243.793 61.2038 243.178 50.8108 237.107 44.3608C237.793 44.7318 238.465 45.1528 239.111 45.6258C247.415 51.6715 248.973 63.6941 242.585 72.4553C236.198 81.2164 224.27 83.4213 215.966 77.3756C215.061 76.7129 214.233 75.9814 213.489 75.1916Z" fill="#EFF2FF"/>
<path fill-rule="evenodd" clip-rule="evenodd" d="M115.937 56.4918C116.014 65.7281 123.332 73.789 133.254 75.0353C142.84 76.2398 151.646 70.6776 154.361 62.2478C154.368 63.0293 154.322 63.8192 154.222 64.6132C152.941 74.8019 143.163 81.975 132.401 80.6245C121.638 79.272 113.941 69.9045 115.222 59.7158C115.361 58.6009 115.603 57.5234 115.937 56.4918Z" fill="#EFF2FF"/>
</svg>
