<svg width="365" height="149" viewBox="0 0 365 149" fill="none" xmlns="http://www.w3.org/2000/svg">
<path fill-rule="evenodd" clip-rule="evenodd" d="M261.985 13.7148C268.272 5.44341 278.934 0 291.015 0C308.081 0 322.307 10.8597 325.387 25.2081C341.248 27.9756 353.195 39.9732 353.195 54.334C353.195 55.9533 353.043 57.5434 352.751 59.0918C360.108 65.2271 364.742 74.1446 364.742 84.0623C364.742 98.4732 354.959 110.773 341.25 115.493C341.305 116.175 341.33 116.862 341.33 117.556C341.33 134.714 325.379 148.648 305.729 148.648C296.95 148.648 288.909 145.865 282.698 141.26C278.743 142.519 274.516 143.2 270.128 143.2C263.134 143.2 256.555 141.47 250.828 138.43C243.004 144.761 232.425 148.65 220.783 148.65C206.782 148.65 194.318 143.027 186.344 134.301C179.679 139.718 169.329 143.2 157.716 143.2C148.832 143.2 140.687 141.162 134.366 137.779C129.234 141.135 122.259 143.2 114.577 143.2C99.2682 143.2 86.7584 134.993 86.064 124.709C48.3382 124.169 12.3474 123.808 0.0001864 123.171C-0.129104 123.164 67.0415 113.318 73.3851 108.012C73.5478 107.876 73.7041 107.73 73.8543 107.576C72.8158 105.492 72.2424 103.208 72.2424 100.811C72.2424 91.0375 81.7974 83.1037 93.5691 83.1037C99.164 83.1037 104.261 84.8959 108.064 87.8281C112.318 82.7035 120.144 79.2649 129.088 79.2649C134.316 79.2649 139.159 80.4382 143.131 82.4368C143.546 69.1992 156.273 58.5646 171.884 58.5646C173.784 58.5646 175.639 58.7209 177.437 59.021C177.283 58.0165 177.206 56.987 177.206 55.945C177.206 43.0763 189.196 32.6271 203.967 32.6271C207.113 32.6271 210.131 33.1023 212.936 33.9713C213.749 29.3344 215.855 25.0643 218.925 21.4485C221.062 18.4476 223.959 15.7717 227.875 14.2087C232.946 11.4266 238.956 9.81564 245.396 9.81564C251.443 9.81564 257.113 11.2369 261.985 13.7148Z" fill="#EFF2FF"/>
<path d="M261.985 13.7148C268.272 5.44341 278.934 0 291.015 0C308.081 0 322.307 10.8597 325.387 25.2081C341.248 27.9756 353.195 39.9732 353.195 54.334C353.195 55.9533 353.043 57.5434 352.751 59.0918C360.108 65.2271 364.742 74.1446 364.742 84.0623C364.742 98.4732 354.959 110.773 341.25 115.493C341.305 116.175 341.33 116.862 341.33 117.556C341.33 134.714 325.379 148.648 305.729 148.648C296.95 148.648 288.909 145.865 282.698 141.26C278.743 142.519 274.516 143.2 270.128 143.2C263.134 143.2 256.555 141.47 250.828 138.43C243.004 144.761 232.425 148.65 220.783 148.65C206.782 148.65 194.318 143.027 186.344 134.301C179.679 139.718 169.329 143.2 157.716 143.2C148.832 143.2 140.687 141.162 134.366 137.779C129.234 141.135 122.259 143.2 114.577 143.2C99.2682 143.2 86.7584 134.993 86.064 124.709C48.3382 124.169 12.3474 123.808 0.0001864 123.171C-0.129104 123.164 67.0415 113.318 73.3851 108.012C73.5478 107.876 73.7041 107.73 73.8543 107.576C72.8158 105.492 72.2424 103.208 72.2424 100.811C72.2424 91.0375 81.7974 83.1037 93.5691 83.1037C99.164 83.1037 104.261 84.8959 108.064 87.8281C112.318 82.7035 120.144 79.2649 129.088 79.2649C134.316 79.2649 139.159 80.4382 143.131 82.4368C143.546 69.1992 156.273 58.5646 171.884 58.5646C173.784 58.5646 175.639 58.7209 177.437 59.021C177.283 58.0165 177.206 56.987 177.206 55.945C177.206 43.0763 189.196 32.6271 203.967 32.6271C207.113 32.6271 210.131 33.1023 212.936 33.9713C213.749 29.3344 215.855 25.0643 218.925 21.4485C221.062 18.4476 223.959 15.7717 227.875 14.2087C232.946 11.4266 238.956 9.81564 245.396 9.81564C251.443 9.81564 257.113 11.2369 261.985 13.7148Z" fill="#EFF2FF"/>
<mask id="mask0_2_7614" style="mask-type:luminance" maskUnits="userSpaceOnUse" x="0" y="0" width="365" height="149">
<path d="M261.985 13.7148C268.272 5.44341 278.934 0 291.015 0C308.081 0 322.307 10.8597 325.387 25.2081C341.248 27.9756 353.195 39.9732 353.195 54.334C353.195 55.9533 353.043 57.5434 352.751 59.0918C360.108 65.2271 364.742 74.1446 364.742 84.0623C364.742 98.4732 354.959 110.773 341.25 115.493C341.305 116.175 341.33 116.862 341.33 117.556C341.33 134.714 325.379 148.648 305.729 148.648C296.95 148.648 288.909 145.865 282.698 141.26C278.743 142.519 274.516 143.2 270.128 143.2C263.134 143.2 256.555 141.47 250.828 138.43C243.004 144.761 232.425 148.65 220.783 148.65C206.782 148.65 194.318 143.027 186.344 134.301C179.679 139.718 169.329 143.2 157.716 143.2C148.832 143.2 140.687 141.162 134.366 137.779C129.234 141.135 122.259 143.2 114.577 143.2C99.2682 143.2 86.7584 134.993 86.064 124.709C48.3382 124.169 12.3474 123.808 0.0001864 123.171C-0.129104 123.164 67.0415 113.318 73.3851 108.012C73.5478 107.876 73.7041 107.73 73.8543 107.576C72.8158 105.492 72.2424 103.208 72.2424 100.811C72.2424 91.0375 81.7974 83.1037 93.5691 83.1037C99.164 83.1037 104.261 84.8959 108.064 87.8281C112.318 82.7035 120.144 79.2649 129.088 79.2649C134.316 79.2649 139.159 80.4382 143.131 82.4368C143.546 69.1992 156.273 58.5646 171.884 58.5646C173.784 58.5646 175.639 58.7209 177.437 59.021C177.283 58.0165 177.206 56.987 177.206 55.945C177.206 43.0763 189.196 32.6271 203.967 32.6271C207.113 32.6271 210.131 33.1023 212.936 33.9713C213.749 29.3344 215.855 25.0643 218.925 21.4485C221.062 18.4476 223.959 15.7717 227.875 14.2087C232.946 11.4266 238.956 9.81564 245.396 9.81564C251.443 9.81564 257.113 11.2369 261.985 13.7148Z" fill="white"/>
</mask>
<g mask="url(#mask0_2_7614)">
<path fill-rule="evenodd" clip-rule="evenodd" d="M258.698 -0.506416C264.987 -8.7799 275.648 -14.2212 287.73 -14.2212C304.794 -14.2212 319.023 -3.3615 322.103 10.9848C337.964 13.7544 349.911 25.7499 349.911 40.1107C349.911 41.73 349.758 43.3201 349.466 44.8706C356.824 51.0059 361.457 59.9233 361.457 69.8411C361.457 84.2519 351.675 96.5496 337.966 101.27C338.018 101.951 338.045 102.641 338.045 103.333C338.045 120.493 322.092 134.422 302.444 134.422C293.665 134.422 285.624 131.642 279.414 127.034C275.458 128.293 271.233 128.975 266.843 128.975C259.849 128.975 253.272 127.245 247.542 124.206C239.722 130.538 229.138 134.424 217.498 134.424C203.497 134.424 191.033 128.804 183.059 120.078C176.392 125.492 166.045 128.975 154.431 128.975C145.548 128.975 137.403 126.939 131.08 123.554C125.95 126.911 118.974 128.975 111.292 128.975C95.9837 128.975 91.2458 124.354 90.5514 114.07C55.4177 118.707 6.27468 125.119 -6.07257 124.479C-6.20187 124.473 63.7591 99.0921 70.1027 93.7842C70.2653 93.6487 70.4217 93.5049 70.5718 93.3507C69.5333 91.2667 68.9578 88.9806 68.9578 86.586C68.9578 76.8121 78.5148 68.8762 90.2865 68.8762C95.8815 68.8762 100.976 70.6684 104.782 73.6006C109.036 68.4781 116.862 65.0396 125.806 65.0396C131.032 65.0396 135.876 66.2108 139.849 68.2093C140.262 54.9738 152.988 44.3371 168.601 44.3371C170.499 44.3371 172.357 44.4955 174.155 44.7935C174 43.789 173.921 42.7637 173.921 41.7217C173.921 28.8509 185.912 18.4038 200.684 18.4038C203.829 18.4038 206.848 18.8769 209.651 19.748C210.464 15.1111 212.573 10.841 215.638 7.22314C217.778 4.22426 220.672 1.54632 224.59 -0.0145922C229.66 -2.79673 235.67 -4.40766 242.111 -4.40766C248.159 -4.40558 253.829 -2.98638 258.698 -0.506416Z" fill="#EFF2FF"/>
</g>
<path fill-rule="evenodd" clip-rule="evenodd" d="M309.783 112.649C314.429 105.686 312.4 95.145 304.711 88.1053C297.281 81.3031 287.057 80.0485 280.481 84.6917C280.873 84.1019 281.316 83.5392 281.804 83.0057C288.074 76.166 299.936 76.81 308.275 84.4478C316.614 92.0815 318.295 103.833 312.026 110.675C311.342 111.421 310.592 112.08 309.783 112.649Z" fill="#EFF2FF"/>
<path fill-rule="evenodd" clip-rule="evenodd" d="M141.717 112.267C148.935 122.556 163.111 126.034 174.851 119.903C186.195 113.976 191.461 101.064 187.895 89.5578C188.506 90.4289 189.065 91.3459 189.572 92.3128C196.051 104.698 190.973 120.155 178.242 126.807C165.509 133.459 149.911 128.804 143.431 116.418C142.725 115.066 142.155 113.678 141.717 112.267Z" fill="#EFF2FF"/>
<path fill-rule="evenodd" clip-rule="evenodd" d="M100.716 95.4597C92.9247 98.0814 88.0283 105.286 89.584 112.357C91.0854 119.19 98.1068 123.612 105.95 123.106C105.291 123.327 104.611 123.517 103.914 123.669C94.96 125.634 86.3205 121.003 84.6355 113.334C82.9485 105.663 88.85 97.8396 97.8044 95.8744C98.7782 95.6577 99.7521 95.5222 100.716 95.4597Z" fill="#EFF2FF"/>
<path fill-rule="evenodd" clip-rule="evenodd" d="M242.216 106.578C240.919 115.312 247.258 124.294 257.301 127.332C267.004 130.267 276.912 126.668 280.968 119.219C280.857 119.957 280.694 120.695 280.471 121.426C277.631 130.804 266.483 135.743 255.591 132.447C244.699 129.152 238.162 118.863 241.002 109.487C241.311 108.464 241.719 107.493 242.216 106.578Z" fill="#EFF2FF"/>
<path fill-rule="evenodd" clip-rule="evenodd" d="M279.635 53.2399C283.191 42.9575 278.453 31.2662 268.212 26.1625C258.315 21.2339 246.597 24.1098 240.337 32.4541C240.639 31.5851 241 30.7265 241.419 29.8825C246.822 19.0478 260.227 14.7464 271.335 20.2794C282.444 25.8103 287.078 39.0958 281.677 49.9306C281.086 51.1143 280.4 52.2188 279.635 53.2399Z" fill="#EFF2FF"/>
</svg>
