<svg width="1997" height="565" viewBox="0 0 1997 565" fill="none" xmlns="http://www.w3.org/2000/svg">
<path fill-rule="evenodd" clip-rule="evenodd" d="M226.583 117.396C234.218 100.288 250.633 88.4429 269.639 88.4429C290.835 88.4429 308.812 103.175 314.974 123.51C317.835 122.889 320.822 122.562 323.893 122.562C341.114 122.562 355.709 132.876 360.622 147.078C364.055 146.103 367.71 145.578 371.499 145.578C391.325 145.578 407.419 159.968 407.419 177.696C407.419 183.211 405.859 188.402 403.119 192.939C428.15 195.498 492.843 199.347 498.573 201.183C505.555 203.423 438.718 205.259 416.93 206.95C412.353 207.304 407.419 210.092 407.419 211.926C407.419 230.818 385.575 246.156 358.672 246.156C347.881 246.156 337.905 243.688 329.824 239.512C323.28 248.571 311.796 254.584 298.738 254.584C286.701 254.584 276.004 249.476 269.276 241.584C261.903 247.023 251.559 250.403 240.117 250.403C226.819 250.403 215.006 245.833 207.609 238.781C199.559 243.309 187.917 246.158 174.978 246.158C150.873 246.158 131.273 236.278 131.006 224.057C122.763 223.026 111.838 221.794 97.13 221.575C65.1576 221.096 4.33889 220.398 0.291259 218.009C-3.74178 215.629 34.57 209.715 86.5803 206.468C85.0913 204.507 84.2468 202.275 84.2468 199.904C84.2468 192.134 93.3117 185.828 104.479 185.828C108.998 185.828 113.17 186.86 116.538 188.604C117.191 175.548 131.446 165.099 148.911 165.099C150.825 165.099 152.702 165.222 154.527 165.465C156.504 158.682 160.95 152.803 166.939 148.668C168.64 129.175 186.728 113.814 208.758 113.814C215.129 113.814 221.172 115.097 226.583 117.396Z" fill="#EFF2FF"/>
<path d="M226.583 117.396C234.218 100.288 250.633 88.4429 269.639 88.4429C290.835 88.4429 308.812 103.175 314.974 123.51C317.835 122.889 320.822 122.562 323.893 122.562C341.114 122.562 355.709 132.876 360.622 147.078C364.055 146.103 367.71 145.578 371.499 145.578C391.325 145.578 407.419 159.968 407.419 177.696C407.419 183.211 405.859 188.402 403.119 192.939C428.15 195.498 492.843 199.347 498.573 201.183C505.555 203.423 438.718 205.259 416.93 206.95C412.353 207.304 407.419 210.092 407.419 211.926C407.419 230.818 385.575 246.156 358.672 246.156C347.881 246.156 337.905 243.688 329.824 239.512C323.28 248.571 311.796 254.584 298.738 254.584C286.701 254.584 276.004 249.476 269.276 241.584C261.903 247.023 251.559 250.403 240.117 250.403C226.819 250.403 215.006 245.833 207.609 238.781C199.559 243.309 187.917 246.158 174.978 246.158C150.873 246.158 131.273 236.278 131.006 224.057C122.763 223.026 111.838 221.794 97.13 221.575C65.1576 221.096 4.33889 220.398 0.291259 218.009C-3.74178 215.629 34.57 209.715 86.5803 206.468C85.0913 204.507 84.2468 202.275 84.2468 199.904C84.2468 192.134 93.3117 185.828 104.479 185.828C108.998 185.828 113.17 186.86 116.538 188.604C117.191 175.548 131.446 165.099 148.911 165.099C150.825 165.099 152.702 165.222 154.527 165.465C156.504 158.682 160.95 152.803 166.939 148.668C168.64 129.175 186.728 113.814 208.758 113.814C215.129 113.814 221.172 115.097 226.583 117.396Z" fill="#EFF2FF"/>
<mask id="mask0_2_7682" style="mask-type:luminance" maskUnits="userSpaceOnUse" x="0" y="88" width="500" height="167">
<path d="M226.583 117.396C234.218 100.288 250.633 88.4429 269.639 88.4429C290.835 88.4429 308.812 103.175 314.974 123.51C317.835 122.889 320.822 122.562 323.893 122.562C341.114 122.562 355.709 132.876 360.622 147.078C364.055 146.103 367.71 145.578 371.499 145.578C391.325 145.578 407.419 159.968 407.419 177.696C407.419 183.211 405.859 188.402 403.119 192.939C428.15 195.498 492.843 199.347 498.573 201.183C505.555 203.423 438.718 205.259 416.93 206.95C412.353 207.304 407.419 210.092 407.419 211.926C407.419 230.818 385.575 246.156 358.672 246.156C347.881 246.156 337.905 243.688 329.824 239.512C323.28 248.571 311.796 254.584 298.738 254.584C286.701 254.584 276.004 249.476 269.276 241.584C261.903 247.023 251.559 250.403 240.117 250.403C226.819 250.403 215.006 245.833 207.609 238.781C199.559 243.309 187.917 246.158 174.978 246.158C150.873 246.158 131.273 236.278 131.006 224.057C122.763 223.026 111.838 221.794 97.13 221.575C65.1576 221.096 4.33889 220.398 0.291259 218.009C-3.74178 215.629 34.57 209.715 86.5803 206.468C85.0913 204.507 84.2468 202.275 84.2468 199.904C84.2468 192.134 93.3117 185.828 104.479 185.828C108.998 185.828 113.17 186.86 116.538 188.604C117.191 175.548 131.446 165.099 148.911 165.099C150.825 165.099 152.702 165.222 154.527 165.465C156.504 158.682 160.95 152.803 166.939 148.668C168.64 129.175 186.728 113.814 208.758 113.814C215.129 113.814 221.172 115.097 226.583 117.396Z" fill="white"/>
</mask>
<g mask="url(#mask0_2_7682)">
<path fill-rule="evenodd" clip-rule="evenodd" d="M222.087 101.67C229.72 84.5625 246.137 72.7171 265.143 72.7171C286.336 72.7171 304.314 87.4489 310.476 107.785C313.337 107.164 316.326 106.836 319.397 106.836C336.618 106.836 351.213 117.15 356.126 131.352C359.559 130.377 363.214 129.852 367.003 129.852C386.829 129.852 408.264 140.501 408.264 158.226C408.264 163.74 414.441 170.282 411.698 174.818C436.727 177.378 502.711 199.264 508.443 201.102C515.425 203.342 434.958 197.999 413.173 199.689C408.595 200.043 403.661 202.832 403.661 204.666C403.661 223.557 381.084 230.43 354.179 230.43C343.387 230.43 333.411 227.963 325.33 223.786C318.786 232.845 307.302 238.858 294.242 238.858C282.205 238.858 271.508 233.75 264.78 225.858C257.405 231.295 247.063 234.679 235.621 234.679C222.323 234.679 210.51 230.109 203.113 223.055C195.063 227.583 183.421 230.432 170.482 230.432C146.377 230.432 126.777 220.552 126.51 208.331C122.319 216.317 115.397 215.89 100.692 215.627C90.0148 215.436 -5.62275 218.189 -9.67247 215.798C-13.7055 213.418 30.074 193.989 82.0822 190.742C80.5933 188.783 79.7487 186.549 79.7487 184.178C79.7487 176.409 88.8137 170.102 99.9806 170.102C104.497 170.102 108.672 171.134 112.04 172.878C112.693 159.822 126.948 149.371 144.413 149.371C146.327 149.371 148.204 149.496 150.029 149.74C152.006 142.956 156.451 137.077 162.441 132.943C164.144 113.449 182.23 98.0877 204.26 98.0877C210.635 98.0856 216.674 99.3693 222.087 101.67Z" fill="#EFF2FF"/>
</g>
<path fill-rule="evenodd" clip-rule="evenodd" d="M192.79 198.493C190.488 209.129 196.592 220.17 207.373 224.011C217.787 227.721 229.077 223.465 234.293 214.433C234.097 215.334 233.842 216.23 233.525 217.117C229.459 228.519 216.665 234.392 204.975 230.226C193.283 226.062 187.091 213.425 191.158 202.025C191.602 200.779 192.15 199.601 192.79 198.493Z" fill="#EFF2FF"/>
<path fill-rule="evenodd" clip-rule="evenodd" d="M121.001 191.557C119.076 200.787 124.813 210.507 134.693 214.027C144.238 217.426 154.452 213.902 159.056 206.112C158.894 206.893 158.677 207.671 158.401 208.44C154.881 218.307 143.324 223.221 132.608 219.404C121.894 215.588 116.05 204.476 119.57 194.608C119.956 193.531 120.438 192.514 121.001 191.557Z" fill="#EFF2FF"/>
<path fill-rule="evenodd" clip-rule="evenodd" d="M234.293 149.825C227.244 141.531 214.761 139.657 205.154 145.872C195.872 151.876 192.386 163.421 196.388 173.051C195.793 172.349 195.236 171.603 194.721 170.811C188.14 160.651 191.256 146.93 201.678 140.189C212.096 133.449 225.899 136.223 232.478 146.382C233.198 147.493 233.801 148.643 234.293 149.825Z" fill="#EFF2FF"/>
<path fill-rule="evenodd" clip-rule="evenodd" d="M261.938 204.163C259.638 214.798 265.74 225.839 276.521 229.68C286.935 233.389 298.223 229.134 303.438 220.102C303.244 221.002 302.99 221.898 302.671 222.786C298.604 234.187 285.813 240.06 274.12 235.894C262.428 231.73 256.237 219.093 260.303 207.694C260.749 206.449 261.298 205.27 261.938 204.163Z" fill="#EFF2FF"/>
<path fill-rule="evenodd" clip-rule="evenodd" d="M285.632 164.14C292.044 155.346 290.935 142.779 282.633 134.906C274.613 127.301 262.566 126.626 254.137 132.774C254.679 132.03 255.275 131.313 255.926 130.629C264.261 121.849 278.339 121.656 287.341 130.192C296.346 138.73 296.886 152.791 288.551 161.57C287.642 162.529 286.664 163.386 285.632 164.14Z" fill="#EFF2FF"/>
<path fill-rule="evenodd" clip-rule="evenodd" d="M348.69 198.12C355.911 187.833 354.358 173.328 344.59 164.388C335.152 155.746 321.209 155.196 311.6 162.462C312.209 161.593 312.883 160.754 313.621 159.949C323.067 149.644 339.339 149.152 349.933 158.851C360.526 168.55 361.458 184.79 352.012 195.096C350.982 196.221 349.868 197.23 348.69 198.12Z" fill="#EFF2FF"/>
<path fill-rule="evenodd" clip-rule="evenodd" d="M224.362 448.685C226.398 436.217 239.562 426.584 255.48 426.584C271.971 426.584 285.511 436.927 286.772 450.052C291.258 450.84 294.813 453.837 295.833 457.659C297.218 457.198 298.707 456.95 300.26 456.95C302.959 456.95 305.465 457.705 307.555 458.999C311.471 455.539 316.661 453.435 322.348 453.435C332.268 453.435 340.67 459.841 343.454 468.652C345.743 467.91 348.206 467.506 350.771 467.506C362.011 467.506 371.312 475.264 372.757 485.307C380.85 486.008 387.125 490.934 387.125 496.901C387.125 498.009 386.908 499.083 386.503 500.1C386.566 500.097 386.626 500.097 386.689 500.097C390.023 500.097 392.728 502.442 392.728 505.33C392.728 506.139 392.515 506.906 392.136 507.589C418.217 509.765 450.262 511.703 453.68 512.12C459.505 512.829 19.7266 511.197 19.7266 511.197C19.7266 511.197 47.1299 509.448 63.0786 507.521C74.4749 506.143 71.4783 504.322 72.3812 502.054C73.6178 498.945 78.5246 496.619 84.3844 496.619C86.33 496.619 88.1693 496.876 89.8042 497.332C90.2484 490.601 98.6418 485.224 108.914 485.224C113.606 485.224 117.906 486.345 121.236 488.204C122.004 482.659 127.407 478.249 134.211 477.609C136.076 468.243 144.759 461.152 155.177 461.152C159.2 461.152 162.962 462.208 166.175 464.046C169.26 457.069 177.618 452.059 187.431 452.059C192.705 452.059 197.555 453.505 201.397 455.925C204.537 450.794 210.453 447.333 217.228 447.333C219.76 447.328 222.171 447.812 224.362 448.685Z" fill="#EFF2FF"/>
<path d="M224.362 448.685C226.398 436.217 239.562 426.584 255.48 426.584C271.971 426.584 285.511 436.927 286.772 450.052C291.258 450.84 294.813 453.837 295.833 457.659C297.218 457.198 298.707 456.95 300.26 456.95C302.959 456.95 305.465 457.705 307.555 458.999C311.471 455.539 316.661 453.435 322.348 453.435C332.268 453.435 340.67 459.841 343.454 468.652C345.743 467.91 348.206 467.506 350.771 467.506C362.011 467.506 371.312 475.264 372.757 485.307C380.85 486.008 387.125 490.934 387.125 496.901C387.125 498.009 386.908 499.083 386.503 500.1C386.566 500.097 386.626 500.097 386.689 500.097C390.023 500.097 392.728 502.442 392.728 505.33C392.728 506.139 392.515 506.906 392.136 507.589C418.217 509.765 450.262 511.703 453.68 512.12C459.505 512.829 19.7266 511.197 19.7266 511.197C19.7266 511.197 47.1299 509.448 63.0786 507.521C74.4749 506.143 71.4783 504.322 72.3812 502.054C73.6178 498.945 78.5246 496.619 84.3844 496.619C86.33 496.619 88.1693 496.876 89.8042 497.332C90.2484 490.601 98.6418 485.224 108.914 485.224C113.606 485.224 117.906 486.345 121.236 488.204C122.004 482.659 127.407 478.249 134.211 477.609C136.076 468.243 144.759 461.152 155.177 461.152C159.2 461.152 162.962 462.208 166.175 464.046C169.26 457.069 177.618 452.059 187.431 452.059C192.705 452.059 197.555 453.505 201.397 455.925C204.537 450.794 210.453 447.333 217.228 447.333C219.76 447.328 222.171 447.812 224.362 448.685Z" fill="#EFF2FF"/>
<mask id="mask1_2_7682" style="mask-type:luminance" maskUnits="userSpaceOnUse" x="19" y="426" width="435" height="87">
<path d="M224.362 448.685C226.398 436.217 239.562 426.584 255.48 426.584C271.971 426.584 285.511 436.927 286.772 450.052C291.258 450.84 294.813 453.837 295.833 457.659C297.218 457.198 298.707 456.95 300.26 456.95C302.959 456.95 305.465 457.705 307.555 458.999C311.471 455.539 316.661 453.435 322.348 453.435C332.268 453.435 340.67 459.841 343.454 468.652C345.743 467.91 348.206 467.506 350.771 467.506C362.011 467.506 371.312 475.264 372.757 485.307C380.85 486.008 387.125 490.934 387.125 496.901C387.125 498.009 386.908 499.083 386.503 500.1C386.566 500.097 386.626 500.097 386.689 500.097C390.023 500.097 392.728 502.442 392.728 505.33C392.728 506.139 392.515 506.906 392.136 507.589C418.217 509.765 450.262 511.703 453.68 512.12C459.505 512.829 19.7266 511.197 19.7266 511.197C19.7266 511.197 47.1299 509.448 63.0786 507.521C74.4749 506.143 71.4783 504.322 72.3812 502.054C73.6178 498.945 78.5246 496.619 84.3844 496.619C86.33 496.619 88.1693 496.876 89.8042 497.332C90.2484 490.601 98.6418 485.224 108.914 485.224C113.606 485.224 117.906 486.345 121.236 488.204C122.004 482.659 127.407 478.249 134.211 477.609C136.076 468.243 144.759 461.152 155.177 461.152C159.2 461.152 162.962 462.208 166.175 464.046C169.26 457.069 177.618 452.059 187.431 452.059C192.705 452.059 197.555 453.505 201.397 455.925C204.537 450.794 210.453 447.333 217.228 447.333C219.76 447.328 222.171 447.812 224.362 448.685Z" fill="white"/>
</mask>
<g mask="url(#mask1_2_7682)">
<path fill-rule="evenodd" clip-rule="evenodd" d="M166.799 502.29C166.209 504.355 163.413 505.872 161.582 506.483C156.156 508.29 149.533 507.608 144.574 504.732C142.907 503.765 140.134 500.243 138.017 500.571C135.894 500.896 134.289 503.54 132.754 504.801C130.012 507.052 126.834 508.454 123.28 508.761C118.743 509.152 114.463 507.74 110.662 505.326C109.127 504.353 106.748 501.46 104.833 501.419C103.659 501.392 102.494 503.073 101.803 503.815C100.385 505.341 98.542 506.825 96.4712 507.333C92.5654 508.29 87.9422 507.364 84.1845 506.183C82.806 505.749 81.4422 504.924 80.0117 504.709C78.1182 504.428 76.6251 506.918 74.7859 507.331C69.022 508.627 62.8411 505.005 60.3178 499.922C56.5246 492.278 64.6303 486.797 70.025 482.715C77.9827 476.69 86.8954 473.868 96.6673 472.345C103.795 471.234 111.146 471.655 117.564 467.927C138.851 458.467 153.176 440.516 174.198 430.371C203.597 416.185 235.807 415.62 267.683 417.896C288.505 419.382 309.098 421.91 327.952 431.498C338.42 436.821 348.567 444.84 356.112 453.874C362.966 462.081 367.838 474.502 376.759 480.775C378.275 481.783 379.242 484.363 379.659 485.985C381.157 491.789 379.343 497.276 374.317 500.652C370.909 502.942 366.491 503.807 362.495 502.844C360.208 502.294 357.624 500.377 355.196 500.854C353.021 501.281 351.303 503.307 349.468 504.413C345.641 506.72 341.254 508.563 336.737 508.698C330.012 508.9 322.878 506.558 317.074 503.286C315.089 502.167 313.19 500.977 311.521 499.416C310.796 498.737 309.749 497.399 308.639 497.399C306.475 497.399 303.557 501.59 301.837 502.7C298.156 505.076 293.512 506.172 289.198 506.516C281.985 507.091 274.563 505.674 268.032 502.571C265.861 501.54 263.742 500.391 261.728 499.085C260.743 498.447 259.4 497.097 258.145 497.076C255.689 497.034 253.015 501.496 251.518 502.992C248.603 505.908 244.903 507.517 240.826 507.973C235.477 508.573 230.393 507.287 225.12 506.808C218.48 506.206 212.18 507.104 205.935 504.038C203.119 502.657 200.744 500.435 198.646 498.13C197.777 497.176 196.478 494.837 195.139 494.471C194.244 494.225 193.969 496.655 193.854 497.103C193.162 499.789 192.336 502.94 189.788 504.47C183.211 508.413 173.299 505.764 167.124 502.204" fill="#EFF2FF"/>
</g>
<path fill-rule="evenodd" clip-rule="evenodd" d="M298.809 471.011C297.353 482.275 304.912 493.32 316.791 496.5C328.266 499.574 339.927 494.275 344.646 484.461C344.523 485.414 344.336 486.368 344.081 487.318C340.811 499.514 327.697 506.614 314.816 503.165C301.933 499.716 294.127 487.014 297.397 474.819C297.756 473.487 298.229 472.216 298.809 471.011Z" fill="#EFF2FF"/>
<path fill-rule="evenodd" clip-rule="evenodd" d="M188.524 473.762C187.068 485.026 194.63 496.071 206.508 499.251C217.983 502.325 229.642 497.026 234.363 487.212C234.24 488.164 234.053 489.119 233.798 490.069C230.529 502.265 217.416 509.365 204.533 505.916C191.65 502.467 183.846 489.765 187.114 477.569C187.471 476.236 187.946 474.964 188.524 473.762Z" fill="#EFF2FF"/>
<path fill-rule="evenodd" clip-rule="evenodd" d="M232.489 501.192C240.615 505.589 251.215 503.086 257.104 495.008C262.793 487.204 262.178 476.811 256.107 470.361C256.793 470.732 257.465 471.153 258.111 471.626C266.415 477.672 267.973 489.694 261.585 498.455C255.198 507.216 243.27 509.421 234.966 503.376C234.061 502.713 233.233 501.981 232.489 501.192Z" fill="#EFF2FF"/>
<path fill-rule="evenodd" clip-rule="evenodd" d="M134.937 482.492C135.014 491.728 142.332 499.789 152.254 501.035C161.84 502.24 170.646 496.678 173.361 488.248C173.368 489.029 173.322 489.819 173.222 490.613C171.941 500.802 162.163 507.975 151.401 506.625C140.638 505.272 132.941 495.904 134.222 485.716C134.361 484.601 134.603 483.523 134.937 482.492Z" fill="#EFF2FF"/>
<path fill-rule="evenodd" clip-rule="evenodd" d="M1437.76 409.335C1442.72 378.944 1474.81 355.464 1513.61 355.464C1553.81 355.464 1586.81 380.678 1589.89 412.669C1600.82 414.591 1609.49 421.893 1611.97 431.211C1615.35 430.092 1618.98 429.481 1622.76 429.481C1629.34 429.481 1635.45 431.321 1640.54 434.474C1650.09 426.045 1662.74 420.91 1676.6 420.91C1700.78 420.91 1721.26 436.529 1728.05 458.003C1733.63 456.194 1739.64 455.21 1745.88 455.21C1773.28 455.21 1795.95 474.12 1799.48 498.601C1819.2 500.306 1834.5 512.316 1834.5 526.86C1834.5 529.563 1833.97 532.181 1832.99 534.659C1833.14 534.654 1833.29 534.652 1833.44 534.652C1841.57 534.652 1848.16 540.369 1848.16 547.406C1848.16 549.378 1847.64 551.245 1846.72 552.914C1910.3 558.218 1988.41 562.943 1996.74 563.955C2010.94 565.683 938.931 561.707 938.931 561.707C938.931 561.707 1005.73 557.445 1044.61 552.746C1072.39 549.388 1065.09 544.951 1067.28 539.418C1070.3 531.837 1082.26 526.168 1096.54 526.168C1101.28 526.168 1105.77 526.793 1109.75 527.904C1110.84 511.495 1131.29 498.391 1156.34 498.391C1167.78 498.391 1178.26 501.125 1186.37 505.658C1188.25 492.137 1201.41 481.389 1218 479.831C1222.54 457.002 1243.71 439.711 1269.11 439.711C1278.91 439.711 1288.08 442.287 1295.92 446.766C1303.43 429.756 1323.81 417.546 1347.73 417.546C1360.59 417.546 1372.41 421.07 1381.77 426.97C1389.43 414.462 1403.85 406.026 1420.37 406.026C1426.54 406.032 1432.41 407.209 1437.76 409.335Z" fill="#EFF2FF"/>
<path d="M1437.76 409.335C1442.72 378.944 1474.81 355.464 1513.61 355.464C1553.81 355.464 1586.81 380.678 1589.89 412.669C1600.82 414.591 1609.49 421.893 1611.97 431.211C1615.35 430.092 1618.98 429.481 1622.76 429.481C1629.34 429.481 1635.45 431.321 1640.54 434.474C1650.09 426.045 1662.74 420.91 1676.6 420.91C1700.78 420.91 1721.26 436.529 1728.05 458.003C1733.63 456.194 1739.64 455.21 1745.88 455.21C1773.28 455.21 1795.95 474.12 1799.48 498.601C1819.2 500.306 1834.5 512.316 1834.5 526.86C1834.5 529.563 1833.97 532.181 1832.99 534.659C1833.14 534.654 1833.29 534.652 1833.44 534.652C1841.57 534.652 1848.16 540.369 1848.16 547.406C1848.16 549.378 1847.64 551.245 1846.72 552.914C1910.3 558.218 1988.41 562.943 1996.74 563.955C2010.94 565.683 938.931 561.707 938.931 561.707C938.931 561.707 1005.73 557.445 1044.61 552.746C1072.39 549.388 1065.09 544.951 1067.28 539.418C1070.3 531.837 1082.26 526.168 1096.54 526.168C1101.28 526.168 1105.77 526.793 1109.75 527.904C1110.84 511.495 1131.29 498.391 1156.34 498.391C1167.78 498.391 1178.26 501.125 1186.37 505.658C1188.25 492.137 1201.41 481.389 1218 479.831C1222.54 457.002 1243.71 439.711 1269.11 439.711C1278.91 439.711 1288.08 442.287 1295.92 446.766C1303.43 429.756 1323.81 417.546 1347.73 417.546C1360.59 417.546 1372.41 421.07 1381.77 426.97C1389.43 414.462 1403.85 406.026 1420.37 406.026C1426.54 406.032 1432.41 407.209 1437.76 409.335Z" fill="#EFF2FF"/>
<mask id="mask2_2_7682" style="mask-type:luminance" maskUnits="userSpaceOnUse" x="938" y="355" width="1059" height="210">
<path d="M1437.76 409.335C1442.72 378.944 1474.81 355.464 1513.61 355.464C1553.81 355.464 1586.81 380.678 1589.89 412.669C1600.82 414.591 1609.49 421.893 1611.97 431.211C1615.35 430.092 1618.98 429.481 1622.76 429.481C1629.34 429.481 1635.45 431.321 1640.54 434.474C1650.09 426.045 1662.74 420.91 1676.6 420.91C1700.78 420.91 1721.26 436.529 1728.05 458.003C1733.63 456.194 1739.64 455.21 1745.88 455.21C1773.28 455.21 1795.95 474.12 1799.48 498.601C1819.2 500.306 1834.5 512.316 1834.5 526.86C1834.5 529.563 1833.97 532.181 1832.99 534.659C1833.14 534.654 1833.29 534.652 1833.44 534.652C1841.57 534.652 1848.16 540.369 1848.16 547.406C1848.16 549.378 1847.64 551.245 1846.72 552.914C1910.3 558.218 1988.41 562.943 1996.74 563.955C2010.94 565.683 938.931 561.707 938.931 561.707C938.931 561.707 1005.73 557.445 1044.61 552.746C1072.39 549.388 1065.09 544.951 1067.28 539.418C1070.3 531.837 1082.26 526.168 1096.54 526.168C1101.28 526.168 1105.77 526.793 1109.75 527.904C1110.84 511.495 1131.29 498.391 1156.34 498.391C1167.78 498.391 1178.26 501.125 1186.37 505.658C1188.25 492.137 1201.41 481.389 1218 479.831C1222.54 457.002 1243.71 439.711 1269.11 439.711C1278.91 439.711 1288.08 442.287 1295.92 446.766C1303.43 429.756 1323.81 417.546 1347.73 417.546C1360.59 417.546 1372.41 421.07 1381.77 426.97C1389.43 414.462 1403.85 406.026 1420.37 406.026C1426.54 406.032 1432.41 407.209 1437.76 409.335Z" fill="white"/>
</mask>
<g mask="url(#mask2_2_7682)">
<path fill-rule="evenodd" clip-rule="evenodd" d="M1297.44 540.002C1296 545.039 1289.19 548.736 1284.72 550.224C1271.5 554.629 1255.35 552.968 1243.26 545.956C1239.2 543.599 1232.44 535.015 1227.28 535.809C1222.1 536.605 1218.19 543.049 1214.45 546.123C1207.76 551.612 1200.01 555.025 1191.35 555.776C1180.29 556.734 1169.86 553.285 1160.6 547.404C1156.85 545.031 1151.05 537.982 1146.39 537.88C1143.53 537.816 1140.69 541.913 1139 543.724C1135.55 547.44 1131.05 551.06 1126.01 552.297C1116.49 554.632 1105.22 552.375 1096.06 549.494C1092.7 548.438 1089.38 546.425 1085.89 545.904C1081.27 545.216 1077.63 551.289 1073.15 552.297C1059.1 555.457 1044.03 546.627 1037.88 534.235C1028.64 515.602 1048.39 502.244 1061.55 492.287C1080.95 477.603 1102.67 470.721 1126.49 467.008C1143.87 464.298 1161.78 465.326 1177.43 456.238C1229.32 433.189 1264.24 389.427 1315.48 364.698C1387.14 330.116 1465.66 328.743 1543.36 334.29C1594.12 337.914 1644.32 344.077 1690.27 367.447C1715.79 380.42 1740.53 399.967 1758.92 421.987C1775.63 441.991 1787.5 472.268 1809.25 487.56C1812.94 490.019 1815.3 496.307 1816.32 500.26C1819.97 514.408 1815.55 527.781 1803.3 536.015C1794.99 541.6 1784.23 543.703 1774.48 541.359C1768.91 540.016 1762.61 535.346 1756.69 536.507C1751.39 537.547 1747.2 542.484 1742.73 545.183C1733.41 550.807 1722.71 555.294 1711.7 555.626C1695.3 556.119 1677.91 550.407 1663.77 542.432C1658.93 539.704 1654.3 536.805 1650.23 532.995C1648.46 531.339 1645.91 528.075 1643.21 528.075C1637.93 528.075 1630.82 538.293 1626.63 541C1617.66 546.792 1606.33 549.463 1595.82 550.301C1578.23 551.704 1560.14 548.248 1544.22 540.685C1538.93 538.172 1533.77 535.373 1528.85 532.189C1526.45 530.634 1523.18 527.344 1520.12 527.292C1514.13 527.187 1507.62 538.068 1503.97 541.715C1496.86 548.821 1487.84 552.741 1477.9 553.856C1464.86 555.321 1452.47 552.185 1439.62 551.016C1423.43 549.544 1408.08 551.737 1392.85 544.264C1385.99 540.894 1380.2 535.48 1375.09 529.863C1372.97 527.537 1369.8 521.838 1366.54 520.942C1364.36 520.341 1363.69 526.266 1363.41 527.358C1361.72 533.908 1359.71 541.588 1353.5 545.314C1337.47 554.927 1313.3 548.467 1298.25 539.791" fill="#EFF2FF"/>
</g>
<path fill-rule="evenodd" clip-rule="evenodd" d="M1619.23 463.761C1615.68 491.215 1634.11 518.141 1663.06 525.893C1691.04 533.385 1719.46 520.469 1730.97 496.544C1730.67 498.864 1730.21 501.192 1729.59 503.509C1721.62 533.237 1689.65 550.545 1658.25 542.136C1626.84 533.727 1607.82 502.765 1615.79 473.037C1616.66 469.792 1617.82 466.695 1619.23 463.761Z" fill="#EFF2FF"/>
<path fill-rule="evenodd" clip-rule="evenodd" d="M1350.4 470.463C1346.85 497.918 1365.28 524.843 1394.24 532.595C1422.21 540.085 1450.63 527.171 1462.14 503.246C1461.84 505.568 1461.38 507.894 1460.76 510.211C1452.79 539.939 1420.82 557.247 1389.42 548.838C1358.02 540.429 1338.99 509.467 1346.96 479.739C1347.83 476.494 1348.99 473.397 1350.4 470.463Z" fill="#EFF2FF"/>
<path fill-rule="evenodd" clip-rule="evenodd" d="M1457.57 537.328C1477.38 548.048 1503.22 541.944 1517.57 522.255C1531.44 503.23 1529.94 477.897 1515.14 462.173C1516.82 463.079 1518.45 464.105 1520.03 465.255C1540.27 479.993 1544.07 509.298 1528.5 530.657C1512.93 552.014 1483.85 557.389 1463.61 542.649C1461.4 541.038 1459.38 539.256 1457.57 537.328Z" fill="#EFF2FF"/>
<path fill-rule="evenodd" clip-rule="evenodd" d="M1219.77 491.743C1219.96 514.256 1237.8 533.906 1261.99 536.945C1285.36 539.879 1306.82 526.323 1313.44 505.772C1313.45 507.675 1313.34 509.601 1313.1 511.537C1309.98 536.372 1286.14 553.858 1259.91 550.566C1233.67 547.271 1214.91 524.432 1218.03 499.599C1218.37 496.886 1218.96 494.262 1219.77 491.743Z" fill="#EFF2FF"/>
<path fill-rule="evenodd" clip-rule="evenodd" d="M1345.98 91.7148C1352.27 83.4434 1362.93 78 1375.01 78C1392.08 78 1406.31 88.8597 1409.39 103.208C1425.25 105.976 1437.2 117.973 1437.2 132.334C1437.2 133.953 1437.04 135.543 1436.75 137.092C1444.11 143.227 1448.74 152.145 1448.74 162.062C1448.74 176.473 1438.96 188.773 1425.25 193.493C1425.3 194.175 1425.33 194.862 1425.33 195.556C1425.33 212.714 1409.38 226.648 1389.73 226.648C1380.95 226.648 1372.91 223.865 1366.7 219.26C1362.74 220.519 1358.52 221.2 1354.13 221.2C1347.13 221.2 1340.55 219.47 1334.83 216.43C1327 222.761 1316.43 226.65 1304.78 226.65C1290.78 226.65 1278.32 221.027 1270.34 212.301C1263.68 217.718 1253.33 221.2 1241.72 221.2C1232.83 221.2 1224.69 219.162 1218.37 215.779C1213.23 219.135 1206.26 221.2 1198.58 221.2C1183.27 221.2 1170.76 212.993 1170.06 202.709C1132.34 202.169 1096.35 201.808 1084 201.171C1083.87 201.164 1151.04 191.318 1157.39 186.012C1157.55 185.876 1157.7 185.73 1157.85 185.576C1156.82 183.492 1156.24 181.208 1156.24 178.811C1156.24 169.037 1165.8 161.104 1177.57 161.104C1183.16 161.104 1188.26 162.896 1192.06 165.828C1196.32 160.704 1204.14 157.265 1213.09 157.265C1218.32 157.265 1223.16 158.438 1227.13 160.437C1227.55 147.199 1240.27 136.565 1255.88 136.565C1257.78 136.565 1259.64 136.721 1261.44 137.021C1261.28 136.016 1261.21 134.987 1261.21 133.945C1261.21 121.076 1273.2 110.627 1287.97 110.627C1291.11 110.627 1294.13 111.102 1296.94 111.971C1297.75 107.334 1299.86 103.064 1302.92 99.4485C1305.06 96.4476 1307.96 93.7717 1311.87 92.2087C1316.95 89.4266 1322.96 87.8156 1329.4 87.8156C1335.44 87.8156 1341.11 89.2369 1345.98 91.7148Z" fill="#EFF2FF"/>
<path d="M1345.98 91.7148C1352.27 83.4434 1362.93 78 1375.01 78C1392.08 78 1406.31 88.8597 1409.39 103.208C1425.25 105.976 1437.2 117.973 1437.2 132.334C1437.2 133.953 1437.04 135.543 1436.75 137.092C1444.11 143.227 1448.74 152.145 1448.74 162.062C1448.74 176.473 1438.96 188.773 1425.25 193.493C1425.3 194.175 1425.33 194.862 1425.33 195.556C1425.33 212.714 1409.38 226.648 1389.73 226.648C1380.95 226.648 1372.91 223.865 1366.7 219.26C1362.74 220.519 1358.52 221.2 1354.13 221.2C1347.13 221.2 1340.55 219.47 1334.83 216.43C1327 222.761 1316.43 226.65 1304.78 226.65C1290.78 226.65 1278.32 221.027 1270.34 212.301C1263.68 217.718 1253.33 221.2 1241.72 221.2C1232.83 221.2 1224.69 219.162 1218.37 215.779C1213.23 219.135 1206.26 221.2 1198.58 221.2C1183.27 221.2 1170.76 212.993 1170.06 202.709C1132.34 202.169 1096.35 201.808 1084 201.171C1083.87 201.164 1151.04 191.318 1157.39 186.012C1157.55 185.876 1157.7 185.73 1157.85 185.576C1156.82 183.492 1156.24 181.208 1156.24 178.811C1156.24 169.037 1165.8 161.104 1177.57 161.104C1183.16 161.104 1188.26 162.896 1192.06 165.828C1196.32 160.704 1204.14 157.265 1213.09 157.265C1218.32 157.265 1223.16 158.438 1227.13 160.437C1227.55 147.199 1240.27 136.565 1255.88 136.565C1257.78 136.565 1259.64 136.721 1261.44 137.021C1261.28 136.016 1261.21 134.987 1261.21 133.945C1261.21 121.076 1273.2 110.627 1287.97 110.627C1291.11 110.627 1294.13 111.102 1296.94 111.971C1297.75 107.334 1299.86 103.064 1302.92 99.4485C1305.06 96.4476 1307.96 93.7717 1311.87 92.2087C1316.95 89.4266 1322.96 87.8156 1329.4 87.8156C1335.44 87.8156 1341.11 89.2369 1345.98 91.7148Z" fill="#EFF2FF"/>
<mask id="mask3_2_7682" style="mask-type:luminance" maskUnits="userSpaceOnUse" x="1084" y="78" width="365" height="149">
<path d="M1345.98 91.7148C1352.27 83.4434 1362.93 78 1375.01 78C1392.08 78 1406.31 88.8597 1409.39 103.208C1425.25 105.976 1437.2 117.973 1437.2 132.334C1437.2 133.953 1437.04 135.543 1436.75 137.092C1444.11 143.227 1448.74 152.145 1448.74 162.062C1448.74 176.473 1438.96 188.773 1425.25 193.493C1425.3 194.175 1425.33 194.862 1425.33 195.556C1425.33 212.714 1409.38 226.648 1389.73 226.648C1380.95 226.648 1372.91 223.865 1366.7 219.26C1362.74 220.519 1358.52 221.2 1354.13 221.2C1347.13 221.2 1340.55 219.47 1334.83 216.43C1327 222.761 1316.43 226.65 1304.78 226.65C1290.78 226.65 1278.32 221.027 1270.34 212.301C1263.68 217.718 1253.33 221.2 1241.72 221.2C1232.83 221.2 1224.69 219.162 1218.37 215.779C1213.23 219.135 1206.26 221.2 1198.58 221.2C1183.27 221.2 1170.76 212.993 1170.06 202.709C1132.34 202.169 1096.35 201.808 1084 201.171C1083.87 201.164 1151.04 191.318 1157.39 186.012C1157.55 185.876 1157.7 185.73 1157.85 185.576C1156.82 183.492 1156.24 181.208 1156.24 178.811C1156.24 169.037 1165.8 161.104 1177.57 161.104C1183.16 161.104 1188.26 162.896 1192.06 165.828C1196.32 160.704 1204.14 157.265 1213.09 157.265C1218.32 157.265 1223.16 158.438 1227.13 160.437C1227.55 147.199 1240.27 136.565 1255.88 136.565C1257.78 136.565 1259.64 136.721 1261.44 137.021C1261.28 136.016 1261.21 134.987 1261.21 133.945C1261.21 121.076 1273.2 110.627 1287.97 110.627C1291.11 110.627 1294.13 111.102 1296.94 111.971C1297.75 107.334 1299.86 103.064 1302.92 99.4485C1305.06 96.4476 1307.96 93.7717 1311.87 92.2087C1316.95 89.4266 1322.96 87.8156 1329.4 87.8156C1335.44 87.8156 1341.11 89.2369 1345.98 91.7148Z" fill="white"/>
</mask>
<g mask="url(#mask3_2_7682)">
<path fill-rule="evenodd" clip-rule="evenodd" d="M1342.7 77.4936C1348.99 69.2201 1359.65 63.7788 1371.73 63.7788C1388.79 63.7788 1403.02 74.6385 1406.1 88.9848C1421.96 91.7544 1433.91 103.75 1433.91 118.111C1433.91 119.73 1433.76 121.32 1433.47 122.871C1440.82 129.006 1445.46 137.923 1445.46 147.841C1445.46 162.252 1435.67 174.55 1421.97 179.27C1422.02 179.951 1422.05 180.641 1422.05 181.333C1422.05 198.493 1406.09 212.422 1386.44 212.422C1377.67 212.422 1369.62 209.642 1363.41 205.034C1359.46 206.293 1355.23 206.975 1350.84 206.975C1343.85 206.975 1337.27 205.245 1331.54 202.206C1323.72 208.538 1313.14 212.424 1301.5 212.424C1287.5 212.424 1275.03 206.804 1267.06 198.078C1260.39 203.492 1250.04 206.975 1238.43 206.975C1229.55 206.975 1221.4 204.939 1215.08 201.554C1209.95 204.911 1202.97 206.975 1195.29 206.975C1179.98 206.975 1175.25 202.354 1174.55 192.07C1139.42 196.707 1090.27 203.119 1077.93 202.479C1077.8 202.473 1147.76 177.092 1154.1 171.784C1154.27 171.649 1154.42 171.505 1154.57 171.351C1153.53 169.267 1152.96 166.981 1152.96 164.586C1152.96 154.812 1162.51 146.876 1174.29 146.876C1179.88 146.876 1184.98 148.668 1188.78 151.601C1193.04 146.478 1200.86 143.04 1209.81 143.04C1215.03 143.04 1219.88 144.211 1223.85 146.209C1224.26 132.974 1236.99 122.337 1252.6 122.337C1254.5 122.337 1256.36 122.495 1258.15 122.793C1258 121.789 1257.92 120.764 1257.92 119.722C1257.92 106.851 1269.91 96.4038 1284.68 96.4038C1287.83 96.4038 1290.85 96.8769 1293.65 97.748C1294.46 93.1111 1296.57 88.841 1299.64 85.2231C1301.78 82.2243 1304.67 79.5463 1308.59 77.9854C1313.66 75.2033 1319.67 73.5923 1326.11 73.5923C1332.16 73.5944 1337.83 75.0136 1342.7 77.4936Z" fill="#EFF2FF"/>
</g>
<path fill-rule="evenodd" clip-rule="evenodd" d="M1393.78 190.649C1398.43 183.686 1396.4 173.145 1388.71 166.105C1381.28 159.303 1371.06 158.049 1364.48 162.692C1364.87 162.102 1365.32 161.539 1365.8 161.006C1372.07 154.166 1383.94 154.81 1392.27 162.448C1400.61 170.082 1402.29 181.833 1396.03 188.675C1395.34 189.421 1394.59 190.08 1393.78 190.649Z" fill="#EFF2FF"/>
<path fill-rule="evenodd" clip-rule="evenodd" d="M1225.72 190.267C1232.93 200.556 1247.11 204.034 1258.85 197.903C1270.2 191.976 1275.46 179.064 1271.89 167.558C1272.51 168.429 1273.06 169.346 1273.57 170.313C1280.05 182.698 1274.97 198.155 1262.24 204.807C1249.51 211.459 1233.91 206.804 1227.43 194.418C1226.72 193.066 1226.16 191.678 1225.72 190.267Z" fill="#EFF2FF"/>
<path fill-rule="evenodd" clip-rule="evenodd" d="M1184.72 173.46C1176.92 176.081 1172.03 183.286 1173.58 190.357C1175.09 197.19 1182.11 201.612 1189.95 201.106C1189.29 201.327 1188.61 201.517 1187.91 201.669C1178.96 203.634 1170.32 199.003 1168.64 191.334C1166.95 183.663 1172.85 175.84 1181.8 173.874C1182.78 173.658 1183.75 173.522 1184.72 173.46Z" fill="#EFF2FF"/>
<path fill-rule="evenodd" clip-rule="evenodd" d="M1326.22 184.578C1324.92 193.312 1331.26 202.294 1341.3 205.332C1351 208.267 1360.91 204.668 1364.97 197.219C1364.86 197.957 1364.69 198.695 1364.47 199.426C1361.63 208.804 1350.48 213.743 1339.59 210.447C1328.7 207.152 1322.16 196.863 1325 187.487C1325.31 186.464 1325.72 185.493 1326.22 184.578Z" fill="#EFF2FF"/>
<path fill-rule="evenodd" clip-rule="evenodd" d="M1363.64 131.24C1367.19 120.957 1362.45 109.266 1352.21 104.163C1342.31 99.2339 1330.6 102.11 1324.34 110.454C1324.64 109.585 1325 108.726 1325.42 107.882C1330.82 97.0478 1344.23 92.7464 1355.34 98.2794C1366.44 103.81 1371.08 117.096 1365.68 127.931C1365.09 129.114 1364.4 130.219 1363.64 131.24Z" fill="#EFF2FF"/>
</svg>
