<svg width="1059" height="210" viewBox="0 0 1059 210" fill="none" xmlns="http://www.w3.org/2000/svg">
<path fill-rule="evenodd" clip-rule="evenodd" d="M499.757 54.3351C504.719 23.9441 536.81 0.463684 575.609 0.463684C615.808 0.463684 648.811 25.678 651.889 57.6695C662.822 59.5909 671.487 66.8933 673.975 76.2108C677.353 75.0917 680.979 74.4811 684.764 74.4811C691.341 74.4811 697.451 76.3213 702.544 79.4744C712.092 71.0446 724.74 65.9096 738.601 65.9096C762.785 65.9096 783.263 81.5292 790.05 103.003C795.631 101.194 801.637 100.21 807.884 100.21C835.283 100.21 857.953 119.12 861.477 143.601C881.202 145.306 896.5 157.316 896.5 171.86C896.5 174.563 895.971 177.181 894.987 179.659C895.137 179.654 895.287 179.652 895.437 179.652C903.568 179.652 910.161 185.369 910.161 192.406C910.161 194.378 909.644 196.245 908.721 197.914C972.296 203.218 1050.41 207.943 1058.74 208.955C1072.94 210.683 0.931152 206.707 0.931152 206.707C0.931152 206.707 67.7285 202.445 106.607 197.746C134.388 194.388 127.085 189.951 129.283 184.418C132.297 176.837 144.26 171.168 158.541 171.168C163.281 171.168 167.766 171.793 171.753 172.904C172.836 156.495 193.295 143.391 218.338 143.391C229.776 143.391 240.257 146.125 248.373 150.658C250.245 137.137 263.414 126.389 279.999 124.831C284.543 102.002 305.711 84.7115 331.108 84.7115C340.911 84.7115 350.085 87.2873 357.917 91.7658C365.435 74.7562 385.806 62.546 409.732 62.546C422.586 62.546 434.414 66.0701 443.773 71.9699C451.428 59.4617 465.85 51.0257 482.366 51.0257C488.538 51.0319 494.415 52.2094 499.757 54.3351Z" fill="#EFF2FF"/>
<path d="M499.757 54.3351C504.719 23.9441 536.81 0.463684 575.609 0.463684C615.808 0.463684 648.811 25.678 651.889 57.6695C662.822 59.5909 671.487 66.8933 673.975 76.2108C677.353 75.0917 680.979 74.4811 684.764 74.4811C691.341 74.4811 697.451 76.3213 702.544 79.4744C712.092 71.0446 724.74 65.9096 738.601 65.9096C762.785 65.9096 783.263 81.5292 790.05 103.003C795.631 101.194 801.637 100.21 807.884 100.21C835.283 100.21 857.953 119.12 861.477 143.601C881.202 145.306 896.5 157.316 896.5 171.86C896.5 174.563 895.971 177.181 894.987 179.659C895.137 179.654 895.287 179.652 895.437 179.652C903.568 179.652 910.161 185.369 910.161 192.406C910.161 194.378 909.644 196.245 908.721 197.914C972.296 203.218 1050.41 207.943 1058.74 208.955C1072.94 210.683 0.931152 206.707 0.931152 206.707C0.931152 206.707 67.7285 202.445 106.607 197.746C134.388 194.388 127.085 189.951 129.283 184.418C132.297 176.837 144.26 171.168 158.541 171.168C163.281 171.168 167.766 171.793 171.753 172.904C172.836 156.495 193.295 143.391 218.338 143.391C229.776 143.391 240.257 146.125 248.373 150.658C250.245 137.137 263.414 126.389 279.999 124.831C284.543 102.002 305.711 84.7115 331.108 84.7115C340.911 84.7115 350.085 87.2873 357.917 91.7658C365.435 74.7562 385.806 62.546 409.732 62.546C422.586 62.546 434.414 66.0701 443.773 71.9699C451.428 59.4617 465.85 51.0257 482.366 51.0257C488.538 51.0319 494.415 52.2094 499.757 54.3351Z" fill="#EFF2FF"/>
<mask id="mask0_2_7602" style="mask-type:luminance" maskUnits="userSpaceOnUse" x="0" y="0" width="1059" height="210">
<path d="M499.757 54.3351C504.719 23.9441 536.81 0.463684 575.609 0.463684C615.808 0.463684 648.811 25.678 651.889 57.6695C662.822 59.5909 671.487 66.8933 673.975 76.2108C677.353 75.0917 680.979 74.4811 684.764 74.4811C691.341 74.4811 697.451 76.3213 702.544 79.4744C712.092 71.0446 724.74 65.9096 738.601 65.9096C762.785 65.9096 783.263 81.5292 790.05 103.003C795.631 101.194 801.637 100.21 807.884 100.21C835.283 100.21 857.953 119.12 861.477 143.601C881.202 145.306 896.5 157.316 896.5 171.86C896.5 174.563 895.971 177.181 894.987 179.659C895.137 179.654 895.287 179.652 895.437 179.652C903.568 179.652 910.161 185.369 910.161 192.406C910.161 194.378 909.644 196.245 908.721 197.914C972.296 203.218 1050.41 207.943 1058.74 208.955C1072.94 210.683 0.931152 206.707 0.931152 206.707C0.931152 206.707 67.7285 202.445 106.607 197.746C134.388 194.388 127.085 189.951 129.283 184.418C132.297 176.837 144.26 171.168 158.541 171.168C163.281 171.168 167.766 171.793 171.753 172.904C172.836 156.495 193.295 143.391 218.338 143.391C229.776 143.391 240.257 146.125 248.373 150.658C250.245 137.137 263.414 126.389 279.999 124.831C284.543 102.002 305.711 84.7115 331.108 84.7115C340.911 84.7115 350.085 87.2873 357.917 91.7658C365.435 74.7562 385.806 62.546 409.732 62.546C422.586 62.546 434.414 66.0701 443.773 71.9699C451.428 59.4617 465.85 51.0257 482.366 51.0257C488.538 51.0319 494.415 52.2094 499.757 54.3351Z" fill="white"/>
</mask>
<g mask="url(#mask0_2_7602)">
<path fill-rule="evenodd" clip-rule="evenodd" d="M359.444 185.002C358.005 190.039 351.188 193.736 346.723 195.224C333.496 199.629 317.351 197.968 305.262 190.956C301.2 188.599 294.44 180.015 289.278 180.809C284.105 181.605 280.19 188.049 276.447 191.123C269.762 196.612 262.015 200.025 253.352 200.776C242.294 201.734 231.863 198.285 222.596 192.404C218.855 190.031 213.053 182.982 208.39 182.88C205.529 182.816 202.689 186.913 201.004 188.724C197.547 192.44 193.051 196.06 188.008 197.297C178.489 199.632 167.22 197.375 158.059 194.494C154.699 193.438 151.377 191.425 147.887 190.904C143.272 190.216 139.629 196.289 135.147 197.297C121.098 200.457 106.032 191.627 99.8822 179.235C90.6358 160.602 110.392 147.244 123.547 137.287C142.946 122.603 164.669 115.721 188.488 112.008C205.865 109.298 223.782 110.326 239.426 101.238C291.322 78.1885 326.241 34.4266 377.482 9.69787C449.144 -24.884 527.659 -26.2574 605.363 -20.7098C656.118 -17.0857 706.316 -10.9233 752.273 12.4467C777.791 25.4196 802.527 44.9675 820.917 66.987C837.627 86.9914 849.503 117.268 871.249 132.56C874.944 135.019 877.303 141.307 878.323 145.26C881.972 159.408 877.549 172.781 865.302 181.015C856.994 186.6 846.227 188.703 836.482 186.359C830.906 185.016 824.608 180.346 818.692 181.507C813.389 182.547 809.204 187.484 804.731 190.183C795.406 195.807 784.71 200.294 773.697 200.626C757.304 201.119 739.915 195.407 725.77 187.432C720.928 184.704 716.298 181.805 712.232 177.995C710.462 176.339 707.913 173.075 705.211 173.075C699.935 173.075 692.824 183.293 688.628 186C679.659 191.792 668.334 194.463 657.817 195.301C640.234 196.704 622.144 193.248 606.222 185.685C600.929 183.172 595.766 180.373 590.853 177.189C588.455 175.634 585.183 172.344 582.122 172.292C576.135 172.187 569.618 183.068 565.967 186.715C558.86 193.821 549.841 197.741 539.902 198.856C526.865 200.321 514.471 197.185 501.617 196.016C485.431 194.544 470.077 196.737 454.854 189.264C447.991 185.894 442.202 180.48 437.089 174.863C434.972 172.537 431.805 166.838 428.541 165.942C426.358 165.341 425.69 171.266 425.409 172.358C423.72 178.908 421.71 186.588 415.497 190.314C399.465 199.927 375.303 193.467 360.253 184.791" fill="#EFF2FF"/>
</g>
<path fill-rule="evenodd" clip-rule="evenodd" d="M681.231 108.761C677.68 136.215 696.11 163.141 725.063 170.893C753.036 178.385 781.461 165.469 792.968 141.544C792.667 143.864 792.211 146.192 791.587 148.509C783.619 178.237 751.651 195.545 720.25 187.136C688.843 178.727 669.818 147.765 677.793 118.037C678.66 114.792 679.818 111.695 681.231 108.761Z" fill="#EFF2FF"/>
<path fill-rule="evenodd" clip-rule="evenodd" d="M412.401 115.463C408.854 142.918 427.284 169.843 456.237 177.595C484.211 185.085 512.632 172.171 524.139 148.246C523.839 150.568 523.382 152.894 522.759 155.211C514.791 184.939 482.822 202.247 451.419 193.838C420.016 185.429 400.992 154.467 408.962 124.739C409.834 121.494 410.989 118.397 412.401 115.463Z" fill="#EFF2FF"/>
<path fill-rule="evenodd" clip-rule="evenodd" d="M519.57 182.328C539.381 193.048 565.216 186.944 579.574 167.255C593.441 148.23 591.944 122.897 577.142 107.173C578.817 108.079 580.454 109.105 582.028 110.255C602.273 124.993 606.068 154.298 590.497 175.657C574.928 197.014 545.852 202.389 525.607 187.649C523.399 186.038 521.385 184.256 519.57 182.328Z" fill="#EFF2FF"/>
<path fill-rule="evenodd" clip-rule="evenodd" d="M281.773 136.743C281.961 159.256 299.799 178.906 323.987 181.945C347.357 184.879 368.821 171.323 375.438 150.772C375.453 152.675 375.344 154.601 375.1 156.537C371.979 181.372 348.143 198.858 321.908 195.566C295.672 192.271 276.908 169.432 280.032 144.599C280.374 141.886 280.962 139.262 281.773 136.743Z" fill="#EFF2FF"/>
</svg>
