<svg width="500" height="167" viewBox="0 0 500 167" fill="none" xmlns="http://www.w3.org/2000/svg">
<path fill-rule="evenodd" clip-rule="evenodd" d="M226.583 29.3959C234.218 12.2884 250.633 0.442932 269.639 0.442932C290.835 0.442932 308.812 15.1747 314.974 35.5104C317.835 34.8894 320.822 34.5622 323.893 34.5622C341.114 34.5622 355.709 44.8759 360.622 59.0784C364.055 58.103 367.71 57.5779 371.499 57.5779C391.325 57.5779 407.419 71.9679 407.419 89.6965C407.419 95.2107 405.859 100.402 403.119 104.939C428.15 107.498 492.843 111.347 498.573 113.183C505.555 115.423 438.718 117.259 416.93 118.95C412.353 119.304 407.419 122.092 407.419 123.926C407.419 142.818 385.575 158.156 358.672 158.156C347.881 158.156 337.905 155.688 329.824 151.512C323.28 160.571 311.796 166.584 298.738 166.584C286.701 166.584 276.004 161.476 269.276 153.584C261.903 159.023 251.559 162.403 240.117 162.403C226.819 162.403 215.006 157.833 207.609 150.781C199.559 155.309 187.917 158.158 174.978 158.158C150.873 158.158 131.273 148.278 131.006 136.057C122.763 135.026 111.838 133.794 97.13 133.575C65.1576 133.096 4.33889 132.398 0.291259 130.009C-3.74178 127.629 34.57 121.715 86.5803 118.468C85.0913 116.507 84.2468 114.275 84.2468 111.904C84.2468 104.134 93.3117 97.8282 104.479 97.8282C108.998 97.8282 113.17 98.8598 116.538 100.604C117.191 87.5479 131.446 77.0987 148.911 77.0987C150.825 77.0987 152.702 77.2217 154.527 77.4655C156.504 70.6821 160.95 64.8031 166.939 60.6685C168.64 41.1747 186.728 25.8135 208.758 25.8135C215.129 25.8135 221.172 27.0973 226.583 29.3959Z" fill="#EFF2FF"/>
<path d="M226.583 29.3959C234.218 12.2884 250.633 0.442932 269.639 0.442932C290.835 0.442932 308.812 15.1747 314.974 35.5104C317.835 34.8894 320.822 34.5622 323.893 34.5622C341.114 34.5622 355.709 44.8759 360.622 59.0784C364.055 58.103 367.71 57.5779 371.499 57.5779C391.325 57.5779 407.419 71.9679 407.419 89.6965C407.419 95.2107 405.859 100.402 403.119 104.939C428.15 107.498 492.843 111.347 498.573 113.183C505.555 115.423 438.718 117.259 416.93 118.95C412.353 119.304 407.419 122.092 407.419 123.926C407.419 142.818 385.575 158.156 358.672 158.156C347.881 158.156 337.905 155.688 329.824 151.512C323.28 160.571 311.796 166.584 298.738 166.584C286.701 166.584 276.004 161.476 269.276 153.584C261.903 159.023 251.559 162.403 240.117 162.403C226.819 162.403 215.006 157.833 207.609 150.781C199.559 155.309 187.917 158.158 174.978 158.158C150.873 158.158 131.273 148.278 131.006 136.057C122.763 135.026 111.838 133.794 97.13 133.575C65.1576 133.096 4.33889 132.398 0.291259 130.009C-3.74178 127.629 34.57 121.715 86.5803 118.468C85.0913 116.507 84.2468 114.275 84.2468 111.904C84.2468 104.134 93.3117 97.8282 104.479 97.8282C108.998 97.8282 113.17 98.8598 116.538 100.604C117.191 87.5479 131.446 77.0987 148.911 77.0987C150.825 77.0987 152.702 77.2217 154.527 77.4655C156.504 70.6821 160.95 64.8031 166.939 60.6685C168.64 41.1747 186.728 25.8135 208.758 25.8135C215.129 25.8135 221.172 27.0973 226.583 29.3959Z" fill="#EFF2FF"/>
<mask id="mask0_2_7576" style="mask-type:luminance" maskUnits="userSpaceOnUse" x="0" y="0" width="500" height="167">
<path d="M226.583 29.3959C234.218 12.2884 250.633 0.442932 269.639 0.442932C290.835 0.442932 308.812 15.1747 314.974 35.5104C317.835 34.8894 320.822 34.5622 323.893 34.5622C341.114 34.5622 355.709 44.8759 360.622 59.0784C364.055 58.103 367.71 57.5779 371.499 57.5779C391.325 57.5779 407.419 71.9679 407.419 89.6965C407.419 95.2107 405.859 100.402 403.119 104.939C428.15 107.498 492.843 111.347 498.573 113.183C505.555 115.423 438.718 117.259 416.93 118.95C412.353 119.304 407.419 122.092 407.419 123.926C407.419 142.818 385.575 158.156 358.672 158.156C347.881 158.156 337.905 155.688 329.824 151.512C323.28 160.571 311.796 166.584 298.738 166.584C286.701 166.584 276.004 161.476 269.276 153.584C261.903 159.023 251.559 162.403 240.117 162.403C226.819 162.403 215.006 157.833 207.609 150.781C199.559 155.309 187.917 158.158 174.978 158.158C150.873 158.158 131.273 148.278 131.006 136.057C122.763 135.026 111.838 133.794 97.13 133.575C65.1576 133.096 4.33889 132.398 0.291259 130.009C-3.74178 127.629 34.57 121.715 86.5803 118.468C85.0913 116.507 84.2468 114.275 84.2468 111.904C84.2468 104.134 93.3117 97.8282 104.479 97.8282C108.998 97.8282 113.17 98.8598 116.538 100.604C117.191 87.5479 131.446 77.0987 148.911 77.0987C150.825 77.0987 152.702 77.2217 154.527 77.4655C156.504 70.6821 160.95 64.8031 166.939 60.6685C168.64 41.1747 186.728 25.8135 208.758 25.8135C215.129 25.8135 221.172 27.0973 226.583 29.3959Z" fill="white"/>
</mask>
<g mask="url(#mask0_2_7576)">
<path fill-rule="evenodd" clip-rule="evenodd" d="M222.087 13.6701C229.72 -3.43748 246.137 -15.2829 265.143 -15.2829C286.336 -15.2829 304.314 -0.551133 310.476 19.7845C313.337 19.1635 316.326 18.8363 319.397 18.8363C336.618 18.8363 351.213 29.15 356.126 43.3525C359.559 42.3772 363.214 41.852 367.003 41.852C386.829 41.852 408.264 52.5013 408.264 70.2257C408.264 75.7399 414.441 82.2816 411.698 86.8185C436.727 89.3776 502.711 111.264 508.443 113.102C515.425 115.342 434.958 109.999 413.173 111.689C408.595 112.043 403.661 114.832 403.661 116.666C403.661 135.557 381.084 142.43 354.179 142.43C343.387 142.43 333.411 139.963 325.33 135.786C318.786 144.845 307.302 150.858 294.242 150.858C282.205 150.858 271.508 145.75 264.78 137.858C257.405 143.295 247.063 146.679 235.621 146.679C222.323 146.679 210.51 142.109 203.113 135.055C195.063 139.583 183.421 142.432 170.482 142.432C146.377 142.432 126.777 132.552 126.51 120.331C122.319 128.317 115.397 127.89 100.692 127.627C90.0148 127.436 -5.62275 130.189 -9.67247 127.798C-13.7055 125.418 30.074 105.989 82.0822 102.742C80.5933 100.783 79.7487 98.5493 79.7487 96.1777C79.7487 88.4086 88.8137 82.1024 99.9806 82.1024C104.497 82.1024 108.672 83.134 112.04 84.8783C112.693 71.822 126.948 61.3708 144.413 61.3708C146.327 61.3708 148.204 61.4958 150.029 61.7396C152.006 54.9562 156.451 49.0772 162.441 44.9426C164.144 25.4488 182.23 10.0877 204.26 10.0877C210.635 10.0856 216.674 11.3693 222.087 13.6701Z" fill="#EFF2FF"/>
</g>
<path fill-rule="evenodd" clip-rule="evenodd" d="M192.79 110.493C190.488 121.129 196.592 132.17 207.373 136.011C217.787 139.721 229.077 135.465 234.293 126.433C234.097 127.334 233.842 128.23 233.525 129.117C229.459 140.519 216.665 146.392 204.975 142.226C193.283 138.062 187.091 125.425 191.158 114.025C191.602 112.779 192.15 111.601 192.79 110.493Z" fill="#EFF2FF"/>
<path fill-rule="evenodd" clip-rule="evenodd" d="M121.001 103.557C119.076 112.787 124.813 122.507 134.693 126.027C144.238 129.426 154.452 125.902 159.056 118.112C158.894 118.893 158.677 119.671 158.401 120.44C154.881 130.307 143.324 135.221 132.608 131.404C121.894 127.588 116.05 116.476 119.57 106.608C119.956 105.531 120.438 104.514 121.001 103.557Z" fill="#EFF2FF"/>
<path fill-rule="evenodd" clip-rule="evenodd" d="M234.293 61.8251C227.244 53.5308 214.761 51.6572 205.154 57.8717C195.872 63.8757 192.386 75.4211 196.388 85.0513C195.793 84.349 195.236 83.6029 194.721 82.811C188.14 72.6514 191.256 58.9304 201.678 52.1887C212.096 45.449 225.899 48.2228 232.478 58.3823C233.198 59.4931 233.801 60.6434 234.293 61.8251Z" fill="#EFF2FF"/>
<path fill-rule="evenodd" clip-rule="evenodd" d="M261.938 116.163C259.638 126.798 265.74 137.839 276.521 141.68C286.935 145.389 298.223 141.134 303.438 132.102C303.244 133.002 302.99 133.898 302.671 134.786C298.604 146.187 285.813 152.06 274.12 147.894C262.428 143.73 256.237 131.093 260.303 119.694C260.749 118.449 261.298 117.27 261.938 116.163Z" fill="#EFF2FF"/>
<path fill-rule="evenodd" clip-rule="evenodd" d="M285.632 76.1401C292.044 67.3456 290.935 54.7791 282.633 46.9057C274.613 39.3012 262.566 38.626 254.137 44.7738C254.679 44.0298 255.275 43.3129 255.926 42.6293C264.261 33.8495 278.339 33.6556 287.341 42.1917C296.346 50.7299 296.886 64.7906 288.551 73.5705C287.642 74.5291 286.664 75.3857 285.632 76.1401Z" fill="#EFF2FF"/>
<path fill-rule="evenodd" clip-rule="evenodd" d="M348.69 110.12C355.911 99.8331 354.358 85.3284 344.59 76.3881C335.152 67.7457 321.209 67.1955 311.6 74.4624C312.209 73.5934 312.883 72.7536 313.621 71.9491C323.067 61.6438 339.339 61.1519 349.933 70.8509C360.526 80.5498 361.458 96.7904 352.012 107.096C350.982 108.221 349.868 109.23 348.69 110.12Z" fill="#EFF2FF"/>
</svg>
