<svg width="1132" height="499" viewBox="0 0 1132 499" fill="none" xmlns="http://www.w3.org/2000/svg">
<path fill-rule="evenodd" clip-rule="evenodd" d="M154.304 79.5052C182.936 32.9377 187.701 -0.373254 188.139 0.228732C200.097 50.9653 221.619 82.1213 244.346 114.087L230.712 108.007L255.435 143.62L235.823 127.965L253.071 157.843L237.499 147.565L288.963 250.178L277.467 244.491L285.695 260.456L277.037 254.888C277.037 254.888 313.811 311.097 310.414 307.312C307.018 303.527 281.135 280.511 281.135 280.511L335.743 397.415L325.333 391.254L336.73 407.873C336.73 407.873 362.084 447.985 356.579 443.591C353.365 441.027 341.388 430.825 331.968 422.775C337.38 438.004 340.53 446.899 340.53 446.899L288.816 443.96L233.737 436.899L213.679 437.661L125.169 439.061C125.169 439.061 115.278 441.2 106.893 443.399C98.5079 445.599 94.7879 423.531 94.7879 423.531C94.7879 423.531 72.67 432.298 62.5899 439.016C52.5098 445.734 65.4544 417.13 65.4544 417.13C65.4544 417.13 53.3973 424.366 43.9645 433.659C34.5316 442.951 50.0138 415.052 50.0138 415.052C50.0138 415.052 37.0692 413.249 15.8293 428.295C5.7107 435.465 10.8789 428.58 25.5761 406.435L0.000976562 424.805C0.000976562 424.805 23.5575 384.2 21.4621 384.494C19.3666 384.789 50.1356 346.009 54.0446 339.688C57.9504 333.364 37.5178 348.923 36.0856 350.674C34.6533 352.426 51.4781 326.233 55.339 321.052C59.2 315.871 96.7937 252.307 96.7937 252.307C96.7937 252.307 92.1061 254.859 87.3929 258.023C82.6796 261.183 97.9184 235.266 100.293 228.26C102.667 221.257 86.9283 239.08 80.44 244.917C73.9485 250.751 83.6024 238.942 103.532 210.472C123.458 182 147.143 134.638 147.143 134.638C147.143 134.638 139.671 138.202 135.833 142.515C131.994 146.828 144.586 117.843 146.537 110.037C148.489 102.227 131.786 122.381 127.502 127.568C123.212 132.755 137.874 106.226 154.304 79.5052Z" fill="#265E73"/>
<path fill-rule="evenodd" clip-rule="evenodd" d="M748.751 104.123C777.383 57.5554 782.148 24.2444 782.587 24.8464C794.544 75.583 816.066 106.739 838.793 138.708L825.16 132.624L849.886 168.238L830.27 152.583L847.518 182.461L831.946 172.183L883.41 274.796L871.914 269.112L880.139 285.077L871.481 279.509C871.481 279.509 908.255 335.718 904.858 331.933C901.459 328.148 875.579 305.132 875.579 305.132L930.187 422.036L919.777 415.875L931.177 432.493C931.177 432.493 956.531 472.606 951.026 468.212C947.813 465.647 935.836 455.446 926.416 447.396C931.827 462.625 934.977 471.52 934.977 471.52L883.263 468.584L828.188 461.52L808.13 462.282L719.62 463.681C719.62 463.681 709.729 465.82 701.343 468.02C692.958 470.22 689.238 448.151 689.238 448.151C689.238 448.151 667.12 456.919 657.04 463.637C646.96 470.355 659.905 441.751 659.905 441.751C659.905 441.751 647.848 448.987 638.412 458.28C628.979 467.572 644.461 439.672 644.461 439.672C644.461 439.672 631.517 437.87 610.277 452.919C600.158 460.089 605.326 453.204 620.023 431.059L594.448 449.432C594.448 449.432 618.002 408.827 615.906 409.122C613.811 409.416 644.58 370.636 648.489 364.315C652.394 357.991 631.962 373.55 630.53 375.302C629.097 377.053 645.922 350.86 649.783 345.679C653.644 340.498 691.238 276.934 691.238 276.934C691.238 276.934 686.55 279.487 681.837 282.65C677.124 285.811 692.362 259.893 694.737 252.887C697.111 245.884 681.372 263.707 674.884 269.544C668.393 275.378 678.046 263.569 697.976 235.1C717.902 206.627 741.587 159.265 741.587 159.265C741.587 159.265 734.115 162.829 730.277 167.142C726.435 171.456 739.03 142.471 740.981 134.664C742.933 126.854 726.23 147.008 721.946 152.195C717.656 157.373 732.321 130.844 748.751 104.123Z" fill="#265E73"/>
<path fill-rule="evenodd" clip-rule="evenodd" d="M928.585 124.42C957.217 77.8527 961.982 44.5418 962.42 45.1438C974.378 95.8803 995.9 127.036 1018.63 159.002L1004.99 152.918L1029.72 188.532L1010.1 172.877L1027.35 202.755L1011.78 192.477L1063.24 295.09L1051.75 289.403L1059.98 305.368L1051.32 299.8C1051.32 299.8 1088.09 356.009 1084.7 352.224C1081.3 348.439 1055.42 325.423 1055.42 325.423L1110.02 442.327L1099.61 436.166L1111.01 452.784C1111.01 452.784 1136.36 492.897 1130.86 488.503C1127.65 485.939 1115.67 475.737 1106.25 467.687C1111.66 482.916 1114.81 491.811 1114.81 491.811L1063.1 488.872L1008.02 481.811L987.96 482.573L899.45 483.972C899.45 483.972 889.559 486.111 881.174 488.311C872.789 490.511 869.069 468.443 869.069 468.443C869.069 468.443 846.951 477.21 836.871 483.928C826.791 490.646 839.735 462.042 839.735 462.042C839.735 462.042 827.678 469.275 818.245 478.571C808.813 487.863 824.295 459.963 824.295 459.963C824.295 459.963 811.35 458.161 790.11 473.207C779.992 480.377 785.16 473.492 799.857 451.347L774.282 469.717C774.282 469.717 797.835 429.112 795.743 429.406C793.648 429.701 824.417 390.921 828.326 384.597C832.235 378.273 811.799 393.832 810.367 395.583C808.934 397.335 825.759 371.142 829.62 365.961C833.481 360.78 871.075 297.216 871.075 297.216C871.075 297.216 866.387 299.771 861.674 302.932C856.961 306.092 872.199 280.175 874.574 273.168C876.948 266.166 861.209 283.988 854.721 289.826C848.229 295.66 857.883 283.851 877.813 255.381C897.739 226.908 921.424 179.547 921.424 179.547C921.424 179.547 913.952 183.111 910.114 187.424C906.272 191.737 918.867 162.755 920.818 154.945C922.77 147.136 906.067 167.289 901.786 172.477C897.493 177.67 912.155 151.141 928.585 124.42Z" fill="#265E73"/>
<path fill-rule="evenodd" clip-rule="evenodd" d="M793.891 435.157L735.727 457.2L774.67 381.027C774.67 381.027 766.275 386.198 762.536 390.098C758.797 393.998 772.994 372.096 775.25 367.027C777.505 361.958 760.889 380.457 760.889 380.457L805.615 269.48C805.615 269.48 793.981 283.748 791.001 286.576C788.021 289.403 811.873 246.733 813.628 243.854C815.384 240.975 809.822 246.941 806.432 249.752C803.045 252.56 815.439 229.771 815.439 229.771C815.439 229.771 805.971 241.18 801.235 246.883C796.499 252.586 850.674 126.428 850.674 126.428L836.397 139.409L856.938 93.7704C856.938 93.7704 852.513 97.8339 849.796 100.319C847.076 102.8 863.5 77.5232 864.59 74.9744C865.676 72.4256 856.121 81.9388 851.344 86.697C846.567 91.4553 890.04 13.4949 891.549 10.834C891.651 10.6579 891.703 10.8308 891.722 11.3048L911.334 64.5229L904.327 57.4367L922.507 123.156L911.767 112.339C911.767 112.339 931.93 167.27 930.677 165.724C929.421 164.177 924.606 157.623 924.606 157.623C924.606 157.623 932.549 179.666 931.299 177.981C930.049 176.297 926.105 171.513 926.105 171.513C926.105 171.513 962.058 265.631 959.652 261.548C957.246 257.466 943.853 243.108 943.853 243.108L959.124 274.27L952.664 270.287C952.664 270.287 981.966 359.022 981.062 356.332C980.158 353.639 961.978 326.118 962.776 329.029C963.577 331.936 970.844 349.051 968.771 347.197C966.698 345.343 964.577 344.811 964.577 344.811C964.577 344.811 978.957 380.719 993.244 410.031C993.391 410.332 979.258 399.81 979.258 399.81L986.374 420.662C986.374 420.662 1001.71 455.433 995.887 451.302C990.069 447.172 965.109 442.32 965.109 442.32L889.562 438.907L793.891 435.157Z" fill="#1F677D"/>
<path fill-rule="evenodd" clip-rule="evenodd" d="M587.335 57.2029C587.374 57.2029 587.402 57.2606 587.422 57.3727L613.256 107.607L605.615 100.639L617.053 123.098L608.191 114.971L631.09 179.473L622.827 171.705L640.174 205.948L634.57 200.04L637.986 211.657L633.65 206.809L650.985 237.671L644.137 230.45L648.239 241.212L652.225 254.754L645.278 244.626L665.897 290.296L658.437 279.486L688.908 347.29L678.011 339.089L685.044 354.879L676.416 346.854L712.654 417.316L703.096 408.164L709.825 429.845L697.582 417.85L715.486 465.385L711.023 465.199C714.029 476.477 715.39 482.711 714.57 482.24C714.419 482.154 714.121 482.061 713.682 481.959L713.872 482.234L712.997 481.818C689.014 477.28 416.403 460.575 416.403 460.575L408.152 460.085L450.424 379.992L434.628 390.438L448.633 360.911L442.141 363.348L465.143 336.726L453.295 342.323L466.3 322.903L452.628 330.457L492.446 264.344L485.525 267.322L494.637 254.12L485.092 260.514L497.053 247.498L494.916 247.408L498.591 239.041L488.86 249.941L537.079 175.01L529.402 178.57L536.697 167.616L528.415 173.681L541.414 154.302L535.855 159.268L554.935 125.5L548.918 132.086L564.576 97.8179L560.27 99.2396L587.104 57.5456C587.178 57.3887 587.229 57.2926 587.249 57.2606C587.287 57.2222 587.313 57.1997 587.335 57.2029Z" fill="#265E73"/>
<path fill-rule="evenodd" clip-rule="evenodd" d="M574.269 453.832L516.105 475.875L555.047 399.701C555.047 399.701 546.653 404.872 542.913 408.772C539.174 412.673 553.372 390.771 555.627 385.702C557.883 380.633 541.27 399.131 541.27 399.131L585.996 288.154C585.996 288.154 574.362 302.423 571.382 305.247C568.402 308.074 592.253 265.404 594.009 262.528C595.765 259.653 590.203 265.615 586.813 268.426C583.426 271.235 595.82 248.446 595.82 248.446C595.82 248.446 586.351 259.854 581.616 265.557C576.88 271.26 631.055 145.103 631.055 145.103L616.778 158.084L637.319 112.445C637.319 112.445 632.894 116.508 630.177 118.993C627.457 121.475 643.881 96.1975 644.971 93.6487C646.057 91.0967 636.502 100.613 631.725 105.371C626.947 110.13 670.421 32.1692 671.93 29.5083C672.032 29.3322 672.084 29.5019 672.103 29.9791L691.715 83.1972L684.708 76.111L702.888 141.83L692.148 131.013C692.148 131.013 712.311 185.945 711.058 184.398C709.802 182.852 704.987 176.297 704.987 176.297C704.987 176.297 712.93 198.337 711.68 196.656C710.43 194.971 706.486 190.187 706.486 190.187C706.486 190.187 742.439 284.305 740.033 280.223C737.627 276.14 724.234 261.779 724.234 261.779L739.504 292.941L733.045 288.958C733.045 288.958 762.346 377.693 761.443 375C760.539 372.307 742.359 344.786 743.157 347.696C743.958 350.607 751.222 367.722 749.152 365.865C747.082 364.011 744.958 363.479 744.958 363.479C744.958 363.479 759.338 399.387 773.625 428.699C773.772 429 759.639 418.478 759.639 418.478L766.755 439.33C766.755 439.33 782.087 474.101 776.268 469.97C770.45 465.839 745.49 460.988 745.49 460.988L669.943 457.575L574.269 453.832Z" fill="#1F677D"/>
<path fill-rule="evenodd" clip-rule="evenodd" d="M475.179 61.7339C475.217 61.7371 475.246 61.7916 475.265 61.9036L501.1 112.137L493.458 105.17L504.897 127.629L496.034 119.502L518.934 184.004L510.671 176.236L528.018 210.479L522.414 204.571L525.829 216.188L521.494 211.34L538.828 242.202L531.981 234.981L536.082 245.743L540.068 259.285L533.122 249.157L553.74 294.827L546.281 284.017L576.752 351.821L565.855 343.62L572.888 359.41L564.259 351.385L600.498 421.846L590.94 412.695L597.668 434.376L585.426 422.381L603.33 469.916L598.867 469.73C601.872 481.008 603.234 487.242 602.414 486.771C602.263 486.685 601.965 486.592 601.526 486.49L601.715 486.765L600.841 486.349C576.858 481.811 304.246 465.106 304.246 465.106L295.996 464.616L338.268 384.523L322.471 394.968L336.476 365.442L329.985 367.879L352.99 341.257L341.142 346.854L354.147 327.434L340.475 334.988L380.293 268.875L373.372 271.853L382.484 258.651L372.939 265.045L384.9 252.029L382.763 251.939L386.438 243.572L376.707 254.472L424.926 179.541L417.249 183.101L424.544 172.147L416.262 178.212L429.261 158.833L423.702 163.799L442.782 130.031L436.765 136.617L452.423 102.349L448.117 103.77L474.951 62.0765C475.025 61.9196 475.076 61.8236 475.096 61.7915C475.131 61.7531 475.156 61.7339 475.179 61.7339Z" fill="#1F677D"/>
<path fill-rule="evenodd" clip-rule="evenodd" d="M307.515 54.7915C307.553 54.7915 307.582 54.8492 307.601 54.9612L333.436 105.195L325.794 98.2274L337.233 120.687L328.37 112.56L351.27 177.062L343.007 169.294L360.354 203.537L354.75 197.629L358.165 209.246L353.83 204.398L371.161 235.259L364.314 228.039L368.415 238.801L372.401 252.342L365.455 242.214L386.073 287.885L378.614 277.075L409.085 344.878L398.188 336.678L405.221 352.467L396.592 344.443L432.831 414.904L423.273 405.753L430.001 427.434L417.758 415.439L435.663 462.973L431.2 462.788C434.205 474.065 435.567 480.3 434.747 479.829C434.596 479.743 434.298 479.65 433.859 479.547L434.048 479.823L433.173 479.406C409.191 474.869 136.579 458.164 136.579 458.164L128.329 457.674L170.6 377.581L154.804 388.026L168.809 358.5L162.318 360.937L185.32 334.315L173.471 339.912L186.477 320.492L172.805 328.045L212.622 261.932L205.701 264.91L214.814 251.708L205.269 258.103L217.23 245.086L215.093 244.997L218.768 236.63L209.037 247.53L257.258 172.598L249.581 176.159L256.877 165.205L248.595 171.269L261.594 151.891L256.035 156.857L275.115 123.088L269.098 129.675L284.756 95.4063L280.45 96.828L307.284 55.1341C307.361 54.9772 307.409 54.8812 307.428 54.8492C307.467 54.8075 307.492 54.7915 307.515 54.7915Z" fill="#1F677D"/>
<path fill-rule="evenodd" clip-rule="evenodd" d="M903.843 241.523C923.321 209.842 926.563 187.181 926.861 187.59C934.997 222.109 949.639 243.303 965.099 265.051L955.823 260.914L972.645 285.141L959.303 274.491L971.036 294.818L960.444 287.824L995.455 357.632L987.634 353.764L993.231 364.626L987.342 360.838C987.342 360.838 1012.36 399.077 1010.05 396.502C1007.74 393.928 990.133 378.27 990.133 378.27L1027.28 457.799L1020.2 453.608L1027.95 464.914C1027.95 464.914 1045.2 492.202 1041.46 489.214C1039.27 487.469 1031.12 480.53 1024.71 475.052C1028.4 485.414 1030.54 491.462 1030.54 491.462L995.359 489.464L957.887 484.661L944.237 485.18L884.023 486.131C884.023 486.131 877.294 487.585 871.591 489.083C865.887 490.582 863.356 475.567 863.356 475.567C863.356 475.567 848.31 481.533 841.45 486.102C834.593 490.671 843.398 471.212 843.398 471.212C843.398 471.212 835.195 476.134 828.778 482.458C822.36 488.779 832.892 469.8 832.892 469.8C832.892 469.8 824.087 468.574 809.636 478.811C802.754 483.688 806.269 479.006 816.265 463.937L798.867 476.435C798.867 476.435 814.891 448.811 813.465 449.013C812.039 449.214 832.972 422.833 835.631 418.529C838.29 414.229 824.388 424.811 823.414 426.003C822.44 427.194 833.885 409.374 836.512 405.849C839.136 402.323 864.715 359.08 864.715 359.08C864.715 359.08 861.527 360.818 858.319 362.967C855.112 365.116 865.48 347.485 867.095 342.72C868.71 337.956 858.005 350.082 853.59 354.052C849.175 358.023 855.743 349.989 869.3 330.62C882.856 311.251 898.967 279.028 898.967 279.028C898.967 279.028 893.885 281.455 891.27 284.385C888.659 287.318 897.224 267.6 898.553 262.288C899.88 256.976 888.518 270.687 885.605 274.216C882.69 277.747 892.667 259.701 903.843 241.523Z" fill="#164D61"/>
<path fill-rule="evenodd" clip-rule="evenodd" d="M517.076 194.36C538.216 159.976 541.734 135.381 542.058 135.826C550.889 173.287 566.778 196.291 583.561 219.896L573.494 215.407L591.747 241.702L577.265 230.143L589.998 252.205L578.502 244.616L616.502 320.38L608.015 316.182L614.089 327.972L607.697 323.86C607.697 323.86 634.849 365.362 632.34 362.567C629.831 359.771 610.722 342.778 610.722 342.778L651.042 429.093L643.356 424.543L651.773 436.813C651.773 436.813 670.495 466.429 666.429 463.185C664.054 461.293 655.211 453.758 648.258 447.815C652.254 459.061 654.58 465.628 654.58 465.628L616.396 463.46L575.73 458.247L560.921 458.811L495.57 459.845C495.57 459.845 488.268 461.424 482.074 463.05C475.884 464.677 473.138 448.379 473.138 448.379C473.138 448.379 456.807 454.853 449.363 459.813C441.92 464.773 451.478 443.652 451.478 443.652C451.478 443.652 442.574 448.994 435.611 455.856C428.646 462.718 440.078 442.115 440.078 442.115C440.078 442.115 430.52 440.783 414.839 451.895C407.367 457.188 411.183 452.106 422.036 435.753L403.151 449.317C403.151 449.317 420.543 419.336 418.995 419.554C417.447 419.772 440.168 391.139 443.051 386.47C445.935 381.802 430.85 393.287 429.79 394.581C428.732 395.875 441.154 376.534 444.006 372.708C446.858 368.881 474.615 321.949 474.615 321.949C474.615 321.949 471.155 323.835 467.672 326.169C464.192 328.503 475.442 309.365 477.194 304.193C478.947 299.022 467.329 312.183 462.535 316.493C457.742 320.799 464.871 312.083 479.584 291.062C494.298 270.04 511.783 235.068 511.783 235.068C511.783 235.068 506.265 237.7 503.433 240.882C500.597 244.065 509.895 222.666 511.337 216.902C512.779 211.135 500.446 226.015 497.284 229.848C494.118 233.675 504.945 214.088 517.076 194.36Z" fill="#164D61"/>
<path fill-rule="evenodd" clip-rule="evenodd" d="M360.674 209.822C380.152 178.141 383.394 155.48 383.692 155.89C391.827 190.408 406.47 211.603 421.93 233.351L412.654 229.214L429.476 253.441L416.134 242.791L427.867 263.117L417.274 256.124L452.286 325.932L444.464 322.064L450.062 332.925L444.173 329.137C444.173 329.137 469.191 367.376 466.88 364.802C464.57 362.224 446.964 346.569 446.964 346.569L484.112 426.099L477.031 421.907L484.785 433.214C484.785 433.214 502.033 460.502 498.287 457.514C496.102 455.769 487.951 448.83 481.546 443.352C485.227 453.713 487.371 459.762 487.371 459.762L452.19 457.764L414.718 452.961L401.071 453.48L340.857 454.431C340.857 454.431 334.128 455.884 328.425 457.383C322.721 458.881 320.19 443.867 320.19 443.867C320.19 443.867 305.144 449.832 298.287 454.402C291.43 458.971 300.235 439.512 300.235 439.512C300.235 439.512 292.032 444.434 285.615 450.758C279.197 457.079 289.729 438.1 289.729 438.1C289.729 438.1 280.924 436.874 266.473 447.111C259.591 451.987 263.106 447.306 273.103 432.237L255.704 444.735C255.704 444.735 271.728 417.111 270.302 417.312C268.876 417.514 289.809 391.132 292.468 386.829C295.128 382.528 281.225 393.111 280.251 394.302C279.277 395.494 290.722 377.674 293.349 374.149C295.974 370.623 321.552 327.379 321.552 327.379C321.552 327.379 318.364 329.118 315.156 331.267C311.949 333.415 322.318 315.785 323.933 311.02C325.547 306.255 314.842 318.382 310.427 322.352C306.012 326.323 312.58 318.289 326.137 298.92C339.693 279.55 355.804 247.328 355.804 247.328C355.804 247.328 350.722 249.755 348.107 252.685C345.496 255.618 354.061 235.9 355.39 230.591C356.717 225.279 345.355 238.99 342.443 242.519C339.52 246.047 349.498 228.001 360.674 209.822Z" fill="#164D61"/>
<path fill-rule="evenodd" clip-rule="evenodd" d="M164.65 409.852L121.184 426.326L150.286 369.4C150.286 369.4 144.013 373.265 141.219 376.179C138.425 379.093 149.034 362.724 150.719 358.936C152.404 355.148 139.988 368.971 139.988 368.971L173.41 286.038C173.41 286.038 164.718 296.701 162.491 298.814C160.264 300.927 178.088 269.038 179.402 266.889C180.713 264.738 176.557 269.198 174.026 271.295C171.494 273.396 180.757 256.364 180.757 256.364C180.757 256.364 173.683 264.891 170.142 269.153C166.605 273.415 207.089 179.134 207.089 179.134L196.419 188.836L211.764 154.728C211.764 154.728 208.457 157.767 206.426 159.621C204.391 161.475 216.666 142.586 217.48 140.68C218.29 138.775 211.148 145.887 207.582 149.441C204.013 152.999 236.499 94.7342 237.627 92.7457C237.704 92.6144 237.742 92.7425 237.758 93.098L252.414 132.867L247.179 127.571L260.764 176.684L252.738 168.602C252.738 168.602 267.807 209.653 266.871 208.497C265.932 207.341 262.334 202.442 262.334 202.442C262.334 202.442 268.268 218.913 267.336 217.658C266.403 216.399 263.452 212.823 263.452 212.823C263.452 212.823 290.322 283.159 288.521 280.107C286.724 277.056 276.714 266.326 276.714 266.326L288.127 289.614L283.302 286.636C283.302 286.636 305.198 352.951 304.526 350.937C303.849 348.926 290.264 328.356 290.86 330.53C291.459 332.704 296.887 345.493 295.339 344.107C293.792 342.72 292.206 342.323 292.206 342.323C292.206 342.323 302.952 369.157 313.628 391.065C313.741 391.289 303.177 383.428 303.177 383.428L308.495 399.013C308.495 399.013 319.953 424.997 315.602 421.91C311.254 418.824 292.6 415.199 292.6 415.199L236.144 412.647L164.65 409.852Z" fill="#164D61"/>
<path fill-rule="evenodd" clip-rule="evenodd" d="M640.315 479.935L581.318 498.785L620.446 432.663C620.446 432.663 611.946 437.117 608.165 440.492C604.387 443.867 618.691 424.872 620.949 420.469C623.211 416.067 606.432 432.08 606.432 432.08L651.228 335.679C651.228 335.679 639.488 348.036 636.477 350.482C633.465 352.925 657.454 315.9 659.222 313.406C660.991 310.911 655.371 316.073 651.943 318.5C648.518 320.927 660.978 301.148 660.978 301.148C660.978 301.148 651.42 311.03 646.64 315.967C641.859 320.908 696.172 211.337 696.172 211.337L681.738 222.56L702.343 182.928C702.343 182.928 697.87 186.441 695.121 188.59C692.369 190.735 708.915 168.817 710.007 166.601C711.097 164.385 701.44 172.618 696.614 176.732C691.786 180.847 735.509 113.2 737.028 110.889C737.13 110.735 737.185 110.885 737.207 111.298L757.467 157.773L750.299 151.558L769.178 208.913L758.194 199.425C758.194 199.425 779.024 247.398 777.739 246.041C776.451 244.686 771.517 238.948 771.517 238.948C771.517 238.948 779.722 258.196 778.444 256.723C777.165 255.25 773.122 251.055 773.122 251.055C773.122 251.055 810.241 333.258 807.771 329.688C805.301 326.118 791.597 313.527 791.597 313.527L807.31 340.764L800.719 337.255C800.719 337.255 831.046 414.728 830.11 412.378C829.174 410.028 810.527 385.942 811.353 388.481C812.186 391.02 819.674 405.974 817.556 404.344C815.442 402.714 813.279 402.24 813.279 402.24C813.279 402.24 828.114 433.604 842.814 459.227C842.968 459.49 828.537 450.239 828.537 450.239L835.897 468.446C835.897 468.446 851.696 498.827 845.752 495.196C839.812 491.565 814.41 487.187 814.41 487.187L737.588 483.758L640.315 479.935Z" fill="#164D61"/>
</svg>
