<svg width="682" height="427" viewBox="0 0 682 427" fill="none" xmlns="http://www.w3.org/2000/svg">
<path fill-rule="evenodd" clip-rule="evenodd" d="M239.68 120.475C272.727 66.7267 278.227 28.2787 278.733 28.9736C292.535 87.5343 317.376 123.495 343.607 160.394L327.871 153.372L356.411 194.477L333.77 176.408L353.678 210.894L335.704 199.031L395.105 317.468L381.836 310.908L391.329 329.335L381.336 322.908C381.336 322.908 423.781 387.785 419.861 383.417C415.937 379.048 386.067 352.482 386.067 352.482L449.095 487.414L437.08 480.303L450.238 499.485C450.238 499.485 479.502 545.783 473.148 540.712C469.439 537.752 455.615 525.977 444.742 516.685C450.989 534.263 454.624 544.53 454.624 544.53L394.935 541.141L331.366 532.988L308.215 533.867L206.056 535.482C206.056 535.482 194.64 537.951 184.961 540.49C175.283 543.029 170.989 517.558 170.989 517.558C170.989 517.558 145.461 527.677 133.826 535.431C122.191 543.185 137.132 510.17 137.132 510.17C137.132 510.17 123.216 518.522 112.325 529.248C101.437 539.973 119.307 507.771 119.307 507.771C119.307 507.771 104.366 505.69 79.8506 523.061C68.1716 531.336 74.1368 523.39 91.1006 497.829L61.5814 519.036C61.5814 519.036 88.767 472.169 86.3483 472.509C83.9297 472.849 119.444 428.088 123.956 420.793C128.464 413.493 104.88 431.452 103.227 433.473C101.574 435.495 120.993 405.263 125.45 399.283C129.906 393.303 173.297 319.937 173.297 319.937C173.297 319.937 167.887 322.882 162.447 326.534C157.006 330.182 174.595 300.267 177.336 292.181C180.076 284.098 161.91 304.669 154.421 311.407C146.929 318.141 158.072 304.51 181.074 271.65C204.074 238.787 231.411 184.122 231.411 184.122C231.411 184.122 222.787 188.235 218.356 193.213C213.922 198.192 228.46 164.737 230.712 155.726C232.964 146.712 213.685 169.974 208.741 175.961C203.789 181.937 220.716 151.317 239.68 120.475Z" fill="#265E73"/>
<path fill-rule="evenodd" clip-rule="evenodd" d="M447.246 143.903C480.294 90.1546 485.793 51.7067 486.3 52.4015C500.101 110.962 524.942 146.923 551.174 183.819L535.438 176.796L563.973 217.902L541.336 199.833L561.244 234.319L543.271 222.455L602.671 340.892L589.402 334.328L598.899 352.756L588.907 346.329C588.907 346.329 631.351 411.206 627.431 406.837C623.507 402.469 593.637 375.903 593.637 375.903L656.665 510.835L644.65 503.724L657.804 522.905C657.804 522.905 687.068 569.203 680.715 564.133C677.005 561.172 663.181 549.397 652.309 540.106C658.555 557.683 662.19 567.951 662.19 567.951L602.501 564.558L538.929 556.408L515.778 557.288L413.618 558.903C413.618 558.903 402.202 561.372 392.524 563.911C382.846 566.45 378.552 540.978 378.552 540.978C378.552 540.978 353.023 551.097 341.389 558.851C329.754 566.605 344.695 533.59 344.695 533.59C344.695 533.59 330.778 541.939 319.891 552.668C309.003 563.394 326.873 531.192 326.873 531.192C326.873 531.192 311.932 529.111 287.417 546.478C275.738 554.753 281.703 546.807 298.667 521.246L269.148 542.449C269.148 542.449 296.333 495.582 293.918 495.922C291.5 496.262 327.014 451.502 331.526 444.202C336.037 436.903 312.45 454.861 310.797 456.883C309.144 458.904 328.563 428.672 333.02 422.693C337.476 416.713 380.867 343.346 380.867 343.346C380.867 343.346 375.457 346.296 370.017 349.943C364.576 353.591 382.165 323.677 384.906 315.59C387.646 307.508 369.48 328.079 361.991 334.816C354.499 341.55 365.642 327.92 388.644 295.06C411.644 262.197 438.981 207.531 438.981 207.531C438.981 207.531 430.357 211.645 425.926 216.623C421.492 221.601 436.03 188.15 438.282 179.136C440.534 170.122 421.255 193.383 416.314 199.371C411.359 205.365 428.282 174.745 447.246 143.903Z" fill="#265E73"/>
<path fill-rule="evenodd" clip-rule="evenodd" d="M291.781 502.56L224.647 528.002L269.595 440.081C269.595 440.081 259.906 446.05 255.59 450.552C251.274 455.053 267.661 429.774 270.265 423.923C272.868 418.073 253.689 439.424 253.689 439.424L305.313 311.333C305.313 311.333 291.884 327.802 288.445 331.065C285.006 334.328 312.535 285.078 314.562 281.755C316.588 278.432 310.168 285.318 306.256 288.563C302.347 291.804 316.651 265.501 316.651 265.501C316.651 265.501 305.723 278.669 300.257 285.251C294.791 291.833 357.321 146.221 357.321 146.221L340.841 161.204L364.551 108.527C364.551 108.527 359.443 113.217 356.307 116.085C353.167 118.949 372.124 89.774 373.382 86.8321C374.636 83.8902 363.608 94.8705 358.094 100.363C352.579 105.855 402.757 15.8717 404.499 12.8005C404.617 12.5972 404.676 12.7968 404.698 13.3438L427.335 74.7688L419.247 66.5898L440.231 142.444L427.834 129.959C427.834 129.959 451.107 193.361 449.661 191.576C448.212 189.791 442.653 182.226 442.653 182.226C442.653 182.226 451.821 207.668 450.379 205.724C448.936 203.78 444.384 198.258 444.384 198.258C444.384 198.258 485.882 306.89 483.104 302.178C480.327 297.466 464.868 280.894 464.868 280.894L482.494 316.862L475.038 312.264C475.038 312.264 508.859 414.684 507.816 411.579C506.773 408.471 485.789 376.705 486.71 380.065C487.635 383.42 496.022 403.175 493.629 401.035C491.237 398.895 488.788 398.281 488.788 398.281C488.788 398.281 505.386 439.727 521.876 473.559C522.047 473.906 505.734 461.761 505.734 461.761L513.947 485.829C513.947 485.829 531.643 525.962 524.927 521.194C518.211 516.427 489.402 510.827 489.402 510.827L402.206 506.888L291.781 502.56Z" fill="#1F677D"/>
<path fill-rule="evenodd" clip-rule="evenodd" d="M53.3715 66.3201C53.4158 66.3201 53.4491 66.3866 53.4713 66.516L83.29 124.497L74.4698 116.454L87.6724 142.377L77.4431 132.997L103.874 207.446L94.3366 198.48L114.359 238.003L107.891 231.185L111.833 244.593L106.829 238.998L126.837 274.618L118.933 266.284L123.667 278.706L128.268 294.336L120.25 282.646L144.048 335.36L135.439 322.882L170.609 401.142L158.031 391.677L166.149 409.901L156.189 400.639L198.016 481.967L186.984 471.404L194.751 496.428L180.62 482.584L201.285 537.449L196.134 537.234C199.603 550.251 201.174 557.447 200.228 556.904C200.054 556.804 199.71 556.697 199.203 556.578L199.421 556.896L198.412 556.416C170.731 551.179 -143.921 531.898 -143.921 531.898L-153.444 531.332L-104.653 438.888L-122.885 450.944L-106.721 416.864L-114.213 419.677L-87.6637 388.949L-101.34 395.41L-86.3286 372.994L-102.109 381.713L-56.1512 305.405L-64.1393 308.842L-53.6216 293.604L-64.6386 300.985L-50.8332 285.961L-53.2999 285.857L-49.058 276.2L-60.2895 288.781L-4.63507 202.294L-13.496 206.404L-5.07513 193.761L-14.635 200.76L0.368637 178.393L-6.04778 184.125L15.9751 145.149L9.02983 152.751L27.103 113.198L22.1326 114.839L53.1052 66.7156C53.1902 66.5345 53.2494 66.4236 53.2716 66.3866C53.316 66.3423 53.3456 66.3164 53.3715 66.3201Z" fill="#265E73"/>
<path fill-rule="evenodd" clip-rule="evenodd" d="M38.2904 524.114L-28.8433 549.556L16.1048 461.636C16.1048 461.636 6.41554 467.604 2.09972 472.106C-2.21609 476.608 14.1707 451.328 16.7742 445.478C19.3778 439.627 0.202538 460.978 0.202538 460.978L51.8259 332.887C51.8259 332.887 38.3977 349.356 34.9583 352.616C31.519 355.879 59.0485 306.628 61.0752 303.309C63.1018 299.99 56.6817 306.872 52.769 310.117C48.8599 313.358 63.1646 287.055 63.1646 287.055C63.1646 287.055 52.2364 300.223 46.7704 306.805C41.3045 313.388 103.834 167.775 103.834 167.775L87.3547 182.758L111.064 130.081C111.064 130.081 105.957 134.771 102.821 137.639C99.6808 140.503 118.638 111.328 119.895 108.386C121.149 105.441 110.121 116.425 104.607 121.917C99.0928 127.409 149.27 37.4259 151.012 34.3547C151.13 34.1514 151.19 34.3473 151.212 34.898L173.849 96.323L165.761 88.1441L186.744 163.998L174.348 151.513C174.348 151.513 197.621 214.916 196.175 213.13C194.725 211.345 189.167 203.78 189.167 203.78C189.167 203.78 198.334 229.218 196.892 227.278C195.45 225.334 190.897 219.812 190.897 219.812C190.897 219.812 232.395 328.445 229.618 323.732C226.84 319.02 211.382 302.444 211.382 302.444L229.007 338.412L221.552 333.815C221.552 333.815 255.372 436.234 254.329 433.126C253.286 430.018 232.303 398.252 233.223 401.611C234.148 404.971 242.532 424.725 240.143 422.582C237.754 420.442 235.302 419.828 235.302 419.828C235.302 419.828 251.899 461.273 268.39 495.105C268.56 495.453 252.247 483.308 252.247 483.308L260.461 507.376C260.461 507.376 278.157 547.509 271.441 542.741C264.725 537.974 235.916 532.374 235.916 532.374L148.719 528.435L38.2904 524.114Z" fill="#1F677D"/>
<path fill-rule="evenodd" clip-rule="evenodd" d="M-76.081 71.5497C-76.0366 71.5534 -76.0033 71.6163 -75.9811 71.7456L-46.1624 129.726L-54.9826 121.684L-41.78 147.607L-52.0093 138.227L-25.5781 212.676L-35.1158 203.71L-15.0937 243.233L-21.5619 236.414L-17.6195 249.823L-22.6233 244.227L-2.61591 279.848L-10.519 271.514L-5.78528 283.935L-1.18469 299.565L-9.20242 287.875L14.5956 340.589L5.98615 328.112L41.1562 406.372L28.5786 396.906L36.6961 415.131L26.7368 405.869L68.5637 487.196L57.5319 476.633L65.2981 501.658L51.1672 487.813L71.8329 542.678L66.6812 542.464C70.1502 555.481 71.7219 562.677 70.7752 562.133C70.6013 562.033 70.2574 561.926 69.7508 561.808L69.9689 562.126L68.9594 561.645C41.2782 556.408 -273.373 537.127 -273.373 537.127L-282.896 536.562L-234.106 444.117L-252.338 456.173L-236.173 422.094L-243.666 424.906L-217.112 394.179L-230.788 400.639L-215.777 378.224L-231.558 386.943L-185.6 310.634L-193.588 314.071L-183.07 298.833L-194.087 306.214L-180.282 291.19L-182.749 291.087L-178.507 281.43L-189.738 294.01L-134.084 207.524L-142.945 211.634L-134.524 198.99L-144.084 205.99L-129.08 183.623L-135.496 189.355L-113.474 150.379L-120.419 157.981L-102.346 118.428L-107.316 120.069L-76.3435 71.9451C-76.2585 71.7641 -76.1993 71.6532 -76.1771 71.6163C-76.1364 71.5719 -76.1068 71.5497 -76.081 71.5497Z" fill="#1F677D"/>
<path fill-rule="evenodd" clip-rule="evenodd" d="M418.689 279.064C441.17 242.498 444.913 216.342 445.257 216.815C454.646 256.656 471.547 281.119 489.391 306.221L478.685 301.446L498.1 329.409L482.701 317.117L496.244 340.578L484.018 332.506L524.428 413.08L515.401 408.615L521.861 421.151L515.064 416.779C515.064 416.779 543.94 460.915 541.273 457.943C538.607 454.972 518.285 436.899 518.285 436.899L561.162 528.693L552.989 523.855L561.939 536.905C561.939 536.905 581.846 568.401 577.523 564.953C575.001 562.939 565.593 554.93 558.2 548.606C562.449 560.566 564.923 567.548 564.923 567.548L524.317 565.241L481.066 559.698L465.312 560.296L395.811 561.394C395.811 561.394 388.045 563.072 381.462 564.802C374.88 566.531 371.958 549.201 371.958 549.201C371.958 549.201 354.591 556.087 346.673 561.361C338.759 566.635 348.922 544.175 348.922 544.175C348.922 544.175 339.454 549.856 332.047 557.155C324.639 564.451 336.795 542.545 336.795 542.545C336.795 542.545 326.633 541.13 309.954 552.945C302.01 558.574 306.067 553.171 317.605 535.778L297.524 550.203C297.524 550.203 316.019 518.319 314.373 518.552C312.727 518.785 336.888 488.334 339.957 483.367C343.027 478.404 326.98 490.619 325.856 491.993C324.732 493.368 337.942 472.801 340.974 468.732C344.003 464.663 373.526 414.75 373.526 414.75C373.526 414.75 369.846 416.757 366.144 419.237C362.442 421.717 374.41 401.367 376.274 395.868C378.138 390.369 365.782 404.365 360.686 408.948C355.59 413.531 363.171 404.258 378.818 381.901C394.465 359.545 413.06 322.354 413.06 322.354C413.06 322.354 407.195 325.155 404.177 328.537C401.163 331.922 411.048 309.163 412.583 303.032C414.114 296.9 401 312.726 397.638 316.799C394.273 320.875 405.789 300.046 418.689 279.064Z" fill="#164D61"/>
<path fill-rule="evenodd" clip-rule="evenodd" d="M-27.7226 224.628C-3.32175 184.942 0.738892 156.554 1.11241 157.068C11.3047 200.306 29.6441 226.857 49.0154 254.103L37.3956 248.921L58.4643 279.271L41.7484 265.929L56.4451 291.394L43.1759 282.635L87.0367 370.082L77.2402 365.237L84.252 378.845L76.874 374.099C76.874 374.099 108.213 422.001 105.317 418.775C102.421 415.548 80.3652 395.935 80.3652 395.935L126.904 495.56L118.031 490.308L127.747 504.471C127.747 504.471 149.355 538.654 144.662 534.91C141.922 532.725 131.715 524.029 123.69 517.169C128.301 530.149 130.986 537.73 130.986 537.73L86.9147 535.227L39.977 529.211L22.8838 529.861L-52.545 531.055C-52.545 531.055 -60.9732 532.877 -68.1219 534.754C-75.2668 536.632 -78.4362 517.82 -78.4362 517.82C-78.4362 517.82 -97.286 525.293 -105.877 531.018C-114.468 536.743 -103.436 512.365 -103.436 512.365C-103.436 512.365 -113.713 518.53 -121.75 526.45C-129.79 534.37 -116.594 510.591 -116.594 510.591C-116.594 510.591 -127.626 509.053 -145.725 521.878C-154.349 527.987 -149.945 522.122 -137.419 503.247L-159.216 518.903C-159.216 518.903 -139.142 484.299 -140.929 484.55C-142.715 484.801 -116.491 451.753 -113.162 446.364C-109.834 440.976 -127.245 454.233 -128.469 455.726C-129.69 457.219 -115.352 434.896 -112.06 430.48C-108.769 426.063 -76.7313 371.893 -76.7313 371.893C-76.7313 371.893 -80.7254 374.07 -84.7453 376.764C-88.7616 379.458 -75.7772 357.368 -73.7542 351.4C-71.7313 345.431 -85.1411 360.621 -90.6736 365.595C-96.2061 370.566 -87.9776 360.506 -70.9954 336.243C-54.0132 311.98 -33.832 271.614 -33.832 271.614C-33.832 271.614 -40.2004 274.651 -43.4696 278.325C-46.7425 281.999 -36.0103 257.299 -34.3461 250.647C-32.6819 243.991 -46.9163 261.165 -50.5665 265.589C-54.2203 270.006 -41.724 247.398 -27.7226 224.628Z" fill="#164D61"/>
<path fill-rule="evenodd" clip-rule="evenodd" d="M114.522 554.243L46.4265 576L91.5891 499.681C91.5891 499.681 81.7777 504.822 77.4138 508.717C73.0536 512.613 89.5625 490.689 92.1697 485.607C94.7807 480.525 75.4131 499.008 75.4131 499.008L127.118 387.741C127.118 387.741 113.568 402.003 110.091 404.827C106.615 407.647 134.304 364.912 136.345 362.033C138.386 359.153 131.9 365.111 127.943 367.913C123.989 370.714 138.372 347.885 138.372 347.885C138.372 347.885 127.34 359.29 121.822 364.989C116.304 370.692 178.993 244.224 178.993 244.224L162.332 257.178L186.115 211.434C186.115 211.434 180.953 215.488 177.78 217.968C174.603 220.444 193.701 195.146 194.962 192.589C196.219 190.031 185.073 199.533 179.503 204.282C173.93 209.032 224.396 130.953 226.149 128.285C226.267 128.107 226.33 128.281 226.356 128.758L249.74 182.399L241.467 175.226L263.257 241.426L250.579 230.475C250.579 230.475 274.621 285.846 273.138 284.279C271.652 282.716 265.956 276.093 265.956 276.093C265.956 276.093 275.427 298.309 273.952 296.609C272.476 294.908 267.809 290.067 267.809 290.067C267.809 290.067 310.653 384.947 307.802 380.826C304.95 376.705 289.133 362.173 289.133 362.173L307.269 393.61L299.662 389.559C299.662 389.559 334.665 478.98 333.586 476.268C332.506 473.555 310.982 445.755 311.936 448.685C312.898 451.616 321.54 468.876 319.096 466.995C316.655 465.113 314.159 464.566 314.159 464.566C314.159 464.566 331.282 500.767 348.249 530.341C348.426 530.645 331.77 519.967 331.77 519.967L340.265 540.982C340.265 540.982 358.5 576.048 351.64 571.857C344.784 567.666 315.464 562.614 315.464 562.614L226.796 558.655L114.522 554.243Z" fill="#164D61"/>
</svg>
