<svg width="635" height="222" viewBox="0 0 635 222" fill="none" xmlns="http://www.w3.org/2000/svg">
<path fill-rule="evenodd" clip-rule="evenodd" d="M78.2545 55.7042C93.1811 29.0088 95.0736 10.2737 95.3318 10.6004C103.193 38.6876 115.948 55.6071 129.394 72.9528L121.632 69.8686L136.279 89.2049L124.95 80.9084L135.284 97.2126L126.341 91.8252L157.492 148L150.933 145.088L155.903 153.823L150.933 150.911C150.933 150.911 172.795 181.484 170.808 179.446C168.821 177.408 153.818 165.142 153.818 165.142L187.056 229.232L181.095 226.029L187.852 235.054C187.852 235.054 202.956 256.893 199.778 254.564C197.921 253.205 190.988 247.78 185.538 243.495C188.918 251.884 190.884 256.784 190.884 256.784L161.905 256.339L130.95 253.669L119.754 254.559L70.3057 257.39C70.3057 257.39 64.8249 258.815 60.1896 260.24C55.5544 261.665 52.9632 249.413 52.9632 249.413C52.9632 249.413 40.8007 254.826 35.3222 258.815C29.8414 262.803 36.4164 246.513 36.4164 246.513C36.4164 246.513 29.8438 250.838 24.7845 256.251C19.7277 261.665 27.7358 245.708 27.7358 245.708C27.7358 245.708 20.4571 245.001 8.93179 253.906C3.44149 258.147 6.17013 254.18 13.8727 241.457L0 252.32C0 252.32 12.2265 229.075 11.0612 229.288C9.89583 229.501 26.1985 207.109 28.2378 203.483C30.2748 199.857 19.2137 209.027 18.4534 210.04C17.6931 211.053 26.4923 196.02 28.5292 193.032C30.5662 190.048 50.1114 153.64 50.1114 153.64C50.1114 153.64 47.5487 155.177 44.9883 157.054C42.4255 158.928 50.3459 144.087 51.5089 140.115C52.6742 136.146 44.2895 146.473 40.7959 149.886C37.3023 153.297 42.4255 146.473 52.9063 130.095C63.3871 113.718 75.5283 86.6911 75.5283 86.6911C75.5283 86.6911 71.4355 88.8569 69.3867 91.3565C67.3402 93.8561 73.7069 77.3626 74.6188 72.9505C75.5283 68.5383 66.6581 80.1936 64.3843 83.1926C62.1058 86.194 69.6898 71.0213 78.2545 55.7042Z" fill="#1B5373"/>
<path fill-rule="evenodd" clip-rule="evenodd" d="M411.149 55.7042C426.076 29.0088 427.968 10.2737 428.227 10.6004C436.088 38.6876 448.842 55.6071 462.289 72.9528L454.525 69.8686L469.172 89.2049L457.843 80.9084L468.177 97.2126L459.233 91.8252L490.384 148L483.826 145.088L488.795 153.823L483.826 150.911C483.826 150.911 505.688 181.484 503.7 179.446C501.713 177.408 486.711 165.142 486.711 165.142L519.949 229.232L513.987 226.029L520.745 235.054C520.745 235.054 535.849 256.893 532.67 254.564C530.813 253.205 523.88 247.78 518.43 243.495C521.81 251.884 523.776 256.784 523.776 256.784L494.797 256.339L463.842 253.669L452.646 254.559L403.198 257.39C403.198 257.39 397.717 258.815 393.082 260.24C388.444 261.665 385.856 249.413 385.856 249.413C385.856 249.413 373.693 254.826 368.215 258.815C362.734 262.803 369.309 246.513 369.309 246.513C369.309 246.513 362.736 250.838 357.677 256.251C352.62 261.665 360.628 245.708 360.628 245.708C360.628 245.708 353.35 245.001 341.824 253.906C336.334 258.147 339.063 254.18 346.765 241.457L332.892 252.32C332.892 252.32 345.119 229.075 343.954 229.288C342.788 229.501 359.091 207.109 361.13 203.483C363.167 199.857 352.106 209.027 351.346 210.04C350.586 211.053 359.385 196.02 361.422 193.032C363.459 190.048 383.004 153.64 383.004 153.64C383.004 153.64 380.441 155.177 377.881 157.054C375.318 158.928 383.236 144.087 384.401 140.115C385.567 136.146 377.182 146.473 373.688 149.886C370.195 153.297 375.318 146.473 385.799 130.095C396.28 113.718 408.421 86.6911 408.421 86.6911C408.421 86.6911 404.328 88.8569 402.279 91.3565C400.233 93.8561 406.599 77.3626 407.509 72.9505C408.418 68.5383 399.548 80.1936 397.274 83.1926C395.001 86.194 402.585 71.0213 411.149 55.7042Z" fill="#1B5373"/>
<path fill-rule="evenodd" clip-rule="evenodd" d="M512.156 62.8882C527.083 36.1928 528.975 17.4577 529.233 17.7844C537.095 45.8716 549.849 62.7911 563.295 80.1367L555.531 77.0525L570.178 96.3888L558.85 88.0924L569.184 104.397L560.24 99.0092L591.389 155.184L584.83 152.272L589.8 161.007L584.83 158.095C584.83 158.095 606.692 188.668 604.705 186.63C602.718 184.592 587.715 172.326 587.715 172.326L620.953 236.415L614.991 233.213L621.749 242.238C621.749 242.238 636.853 264.077 633.672 261.747C631.815 260.389 624.882 254.964 619.432 250.679C622.81 259.068 624.778 263.968 624.778 263.968L595.799 263.523L564.844 260.85L553.648 261.74L504.2 264.571C504.2 264.571 498.722 265.996 494.084 267.421C489.446 268.846 486.858 256.594 486.858 256.594C486.858 256.594 474.695 262.008 469.217 265.996C463.738 269.985 470.311 253.695 470.311 253.695C470.311 253.695 463.738 258.019 458.679 263.433C453.62 268.846 461.63 252.89 461.63 252.89C461.63 252.89 454.352 252.182 442.826 261.087C437.336 265.329 440.067 261.362 447.767 248.639L433.895 259.501C433.895 259.501 446.121 236.257 444.956 236.47C443.79 236.683 460.093 214.291 462.132 210.667C464.169 207.041 453.108 216.21 452.348 217.224C451.588 218.237 460.387 203.204 462.424 200.216C464.461 197.232 484.004 160.824 484.004 160.824C484.004 160.824 481.441 162.36 478.88 164.237C476.318 166.112 484.236 151.271 485.401 147.299C486.566 143.33 478.182 153.657 474.688 157.07C471.194 160.481 476.318 153.657 486.798 137.279C497.279 120.902 509.421 93.875 509.421 93.875C509.421 93.875 505.328 96.0409 503.279 98.5405C501.232 101.04 507.599 84.5466 508.509 80.1344C509.418 75.7223 500.548 87.3775 498.274 90.3766C496.007 93.3756 503.591 78.2053 512.156 62.8882Z" fill="#1B5373"/>
<path fill-rule="evenodd" clip-rule="evenodd" d="M444.06 239.722L412.054 253.392L432.059 209.905C432.059 209.905 427.485 212.989 425.486 215.257C423.485 217.524 430.917 204.95 432.059 202.065C433.203 199.18 424.342 209.905 424.342 209.905L446.772 146.828C446.772 146.828 440.6 155.072 438.999 156.722C437.398 158.372 449.745 133.965 450.659 132.316C451.573 130.666 448.601 134.129 446.772 135.779C444.944 137.428 451.344 124.4 451.344 124.4C451.344 124.4 446.315 130.997 443.8 134.294C441.284 137.592 468.646 65.8091 468.646 65.8091L460.965 73.3978L471.391 47.4077C471.391 47.4077 469.013 49.7819 467.549 51.2329C466.085 52.6839 474.681 38.1716 475.23 36.7206C475.778 35.2696 470.657 40.8108 468.096 43.5802C465.536 46.3497 488.032 1.75953 488.814 0.237531C488.866 0.135749 488.902 0.230379 488.923 0.495487L501.121 29.7923L497.04 25.9932L508.726 62.3106L502.471 56.5138C502.471 56.5138 515.017 86.7574 514.281 85.9194C513.542 85.0839 510.699 81.5309 510.699 81.5309C510.699 81.5309 515.65 93.6691 514.913 92.7577C514.176 91.8464 511.858 89.2617 511.858 89.2617C511.858 89.2617 534.139 141.045 532.699 138.82C531.258 136.593 523.437 128.876 523.437 128.876L532.699 145.945L528.994 143.867C528.994 143.867 547.433 192.796 546.865 191.312C546.296 189.827 535.496 174.863 536.01 176.47C536.526 178.077 540.984 187.477 539.783 186.488C538.582 185.498 537.383 185.252 537.383 185.252C537.383 185.252 546.254 204.993 554.923 221.051C555.013 221.214 546.867 215.661 546.867 215.661L551.33 227.153C551.33 227.153 560.707 246.236 557.358 244.063C554.008 241.89 539.944 239.755 539.944 239.755L497.63 239.597L444.06 239.722Z" fill="#1F5C7D"/>
<path fill-rule="evenodd" clip-rule="evenodd" d="M319.823 33.2103C319.844 33.2103 319.861 33.2411 319.875 33.3026L335.484 60.7862L331.05 57.0676L337.966 69.3597L332.824 65.0209L347.12 100.55L342.322 96.3983L352.814 115.14L349.546 111.969L351.725 118.383L349.188 115.772L359.593 132.626L355.597 128.749L358.139 134.671L360.68 142.148L356.562 136.647L369.148 161.702L364.726 155.83L383.333 193.03L377.052 188.698L381.351 197.362L376.341 193.075L398.234 231.627L392.679 226.732L396.943 238.695L389.821 232.273L400.934 258.434H398.435C400.377 264.668 401.282 268.124 400.813 267.878C400.725 267.833 400.56 267.788 400.311 267.741L400.422 267.89L399.925 267.677C386.412 265.696 233.622 262.668 233.622 262.668L228.999 262.585L250.773 216.833L242.184 223.039L249.328 206.207L245.756 207.72L257.999 192.306L251.504 195.71L258.324 184.551L250.855 189.091L271.583 151.209L267.784 153.034L272.573 145.443L267.383 149.24L273.769 141.687H272.573L274.434 136.924L269.247 143.242L294.468 100.235L290.259 102.403L294.084 96.1095L289.593 99.6908L296.41 88.5563L293.416 91.4606L303.3 72.1409L300.088 75.9636L308.049 56.4427L305.676 57.3375L319.712 33.4068C319.75 33.3168 319.776 33.2624 319.785 33.2435C319.797 33.2221 319.811 33.2103 319.823 33.2103Z" fill="#1B5373"/>
<path fill-rule="evenodd" clip-rule="evenodd" d="M321.715 255.248L289.709 268.917L309.714 225.43C309.714 225.43 305.14 228.514 303.141 230.782C301.14 233.049 308.572 220.476 309.714 217.59C310.858 214.705 301.997 225.43 301.997 225.43L324.427 162.353C324.427 162.353 318.255 170.598 316.654 172.247C315.053 173.897 327.4 149.491 328.314 147.841C329.228 146.191 326.258 149.654 324.427 151.304C322.599 152.954 328.999 139.926 328.999 139.926C328.999 139.926 323.97 146.523 321.455 149.82C318.939 153.117 346.301 81.3345 346.301 81.3345L338.62 88.9232L349.044 62.9332C349.044 62.9332 346.666 65.3073 345.202 66.7583C343.738 68.2093 352.336 53.697 352.883 52.246C353.43 50.795 348.309 56.3362 345.749 59.1057C343.189 61.8751 365.685 17.2849 366.467 15.7629C366.519 15.6611 366.554 15.7558 366.576 16.0209L378.774 45.3177L374.693 41.5185L386.379 77.836L380.124 72.0391C380.124 72.0391 392.67 102.283 391.933 101.445C391.194 100.609 388.352 97.0563 388.352 97.0563C388.352 97.0563 393.302 109.194 392.566 108.283C391.829 107.372 389.51 104.787 389.51 104.787C389.51 104.787 411.791 156.571 410.351 154.346C408.911 152.118 401.09 144.402 401.09 144.402L410.351 161.47L406.649 159.392C406.649 159.392 425.088 208.321 424.52 206.837C423.951 205.353 413.151 190.388 413.665 191.996C414.179 193.603 418.639 203.002 417.438 202.013C416.237 201.024 415.039 200.777 415.039 200.777C415.039 200.777 423.911 220.518 432.578 236.576C432.668 236.74 424.522 231.187 424.522 231.187L428.985 242.679C428.985 242.679 438.362 261.762 435.012 259.589C431.663 257.416 417.599 255.281 417.599 255.281L375.285 255.122L321.715 255.248Z" fill="#1F5C7D"/>
<path fill-rule="evenodd" clip-rule="evenodd" d="M257.227 38.3396C257.248 38.3396 257.265 38.3704 257.279 38.432L272.888 65.9156L268.456 62.197L275.372 74.489L270.23 70.1502L284.527 105.679L279.726 101.528L290.218 120.27L286.95 117.098L289.129 123.513L286.592 120.904L296.997 137.757L293.001 133.88L295.543 139.803L298.084 147.28L293.965 141.779L306.552 166.834L302.13 160.964L320.737 198.164L314.456 193.833L318.755 202.496L313.743 198.209L335.635 236.761L330.081 231.866L334.344 243.829L327.222 237.405L338.335 263.565H335.837C337.779 269.8 338.684 273.256 338.215 273.01C338.127 272.965 337.959 272.92 337.712 272.873L337.824 273.022L337.326 272.809C323.814 270.827 171.023 267.8 171.023 267.8L166.4 267.717L188.174 221.962L179.586 228.169L186.729 211.337L183.158 212.849L195.401 197.435L188.906 200.839L195.727 189.681L188.259 194.218L208.987 156.336L205.187 158.161L209.977 150.57L204.789 154.367L211.175 146.814H209.979L211.841 142.051L206.654 148.369L231.874 105.362L227.665 107.53L231.49 101.236L226.999 104.818L233.816 93.6833L230.822 96.5876L240.706 77.2679L237.494 81.0907L245.455 61.5697L243.082 62.4644L257.118 38.5337C257.156 38.4438 257.182 38.3894 257.191 38.3704C257.201 38.3515 257.215 38.3396 257.227 38.3396Z" fill="#1F5C7D"/>
<path fill-rule="evenodd" clip-rule="evenodd" d="M163.335 38.3396C163.356 38.3396 163.373 38.3704 163.387 38.432L178.994 65.9156L174.562 62.197L181.478 74.489L176.336 70.1502L190.633 105.679L185.834 101.528L196.327 120.27L193.058 117.098L195.237 123.513L192.7 120.904L203.105 137.757L199.11 133.88L201.651 139.803L204.193 147.28L200.074 141.779L212.66 166.834L208.238 160.964L226.845 198.164L220.564 193.833L224.863 202.496L219.853 198.209L241.746 236.761L236.192 231.866L240.455 243.829L233.333 237.405L244.446 263.565H241.947C243.89 269.8 244.794 273.256 244.325 273.01C244.238 272.965 244.07 272.92 243.823 272.873L243.934 273.022L243.437 272.809C229.925 270.827 77.1341 267.8 77.1341 267.8L72.5107 267.717L94.2848 221.962L85.6964 228.169L92.84 211.337L89.2683 212.849L101.511 197.435L95.0167 200.839L101.836 189.681L94.3677 194.218L115.095 156.336L111.296 158.161L116.085 150.57L110.895 154.367L117.281 146.814H116.085L117.947 142.051L112.76 148.369L137.98 105.362L133.771 107.53L137.596 101.236L133.105 104.818L139.922 93.6833L136.928 96.5876L146.812 77.2679L143.6 81.0907L151.561 61.5697L149.185 62.4644L163.221 38.5337C163.259 38.4438 163.285 38.3894 163.295 38.3704C163.307 38.3515 163.321 38.3396 163.335 38.3396Z" fill="#1F5C7D"/>
<path fill-rule="evenodd" clip-rule="evenodd" d="M499.69 96.3793C509.844 78.217 511.133 65.473 511.308 65.6955C516.656 84.8045 525.332 96.313 534.482 108.115L529.2 106.016L539.165 119.171L531.457 113.526L538.487 124.618L532.403 120.954L553.594 159.17L549.132 157.188L552.512 163.132L549.132 161.151C549.132 161.151 564.004 181.95 562.651 180.563C561.299 179.176 551.093 170.832 551.093 170.832L573.705 214.433L569.65 212.253L574.248 218.393C574.248 218.393 584.522 233.248 582.36 231.665C581.098 230.739 576.382 227.049 572.673 224.135C574.97 229.842 576.311 233.175 576.311 233.175L556.597 232.872L535.538 231.054L527.921 231.66L494.281 233.587C494.281 233.587 490.553 234.557 487.398 235.525C484.243 236.494 482.481 228.159 482.481 228.159C482.481 228.159 474.207 231.842 470.479 234.555C466.751 237.268 471.223 226.185 471.223 226.185C471.223 226.185 466.751 229.127 463.31 232.81C459.868 236.494 465.316 225.638 465.316 225.638C465.316 225.638 460.365 225.158 452.523 231.215C448.788 234.101 450.645 231.402 455.884 222.748L446.448 230.138C446.448 230.138 454.766 214.324 453.973 214.468C453.179 214.613 464.271 199.381 465.657 196.914C467.042 194.448 459.517 200.687 458.999 201.376C458.48 202.065 464.468 191.837 465.853 189.806C467.239 187.775 480.536 163.007 480.536 163.007C480.536 163.007 478.793 164.05 477.05 165.329C475.306 166.604 480.695 156.507 481.486 153.806C482.277 151.105 476.573 158.133 474.198 160.455C471.822 162.777 475.306 158.133 482.436 146.991C489.565 135.85 497.826 117.462 497.826 117.462C497.826 117.462 495.041 118.937 493.648 120.637C492.256 122.336 496.588 111.116 497.208 108.115C497.826 105.114 491.794 113.043 490.245 115.084C488.703 117.122 493.861 106.801 499.69 96.3793Z" fill="#164561"/>
<path fill-rule="evenodd" clip-rule="evenodd" d="M283.724 111.514C294.745 91.8039 296.142 77.9709 296.334 78.2124C302.139 98.9523 311.557 111.443 321.483 124.251L315.751 121.974L326.566 136.252L318.203 130.126L325.832 142.165L319.228 138.188L342.229 179.666L337.386 177.517L341.054 183.967L337.386 181.817C337.386 181.817 353.527 204.392 352.059 202.886C350.59 201.381 339.515 192.325 339.515 192.325L364.055 239.646L359.652 237.282L364.643 243.947C364.643 243.947 375.794 260.072 373.447 258.351C372.075 257.347 366.957 253.342 362.933 250.177C365.427 256.372 366.881 259.989 366.881 259.989L345.484 259.66L322.627 257.688L314.361 258.346L277.85 260.436C277.85 260.436 273.804 261.487 270.379 262.54C266.954 263.594 265.043 254.547 265.043 254.547C265.043 254.547 256.064 258.545 252.018 261.489C247.973 264.434 252.826 252.407 252.826 252.407C252.826 252.407 247.973 255.6 244.238 259.598C240.502 263.596 246.417 251.813 246.417 251.813C246.417 251.813 241.042 251.29 232.532 257.866C228.477 260.997 230.493 258.069 236.18 248.674L225.938 256.694C225.938 256.694 234.967 239.53 234.107 239.689C233.248 239.845 245.284 223.314 246.789 220.637C248.293 217.96 240.126 224.732 239.562 225.477C239.001 226.225 245.498 215.124 247.002 212.92C248.506 210.717 262.935 183.834 262.935 183.834C262.935 183.834 261.042 184.968 259.152 186.355C257.26 187.74 263.108 176.78 263.968 173.85C264.827 170.92 258.636 178.546 256.057 181.065C253.477 183.583 257.26 178.544 264.998 166.453C272.736 154.36 281.701 134.406 281.701 134.406C281.701 134.406 278.679 136.006 277.168 137.85C275.656 139.696 280.358 127.518 281.031 124.261C281.703 121.004 275.152 129.608 273.475 131.823C271.8 134.025 277.4 122.824 283.724 111.514Z" fill="#164561"/>
<path fill-rule="evenodd" clip-rule="evenodd" d="M196.646 123.78C206.803 105.618 208.089 92.8737 208.264 93.0962C213.612 112.205 222.288 123.714 231.438 135.516L226.156 133.416L236.121 146.572L228.413 140.927L235.443 152.019L229.358 148.355L250.55 186.57L246.088 184.589L249.467 190.533L246.088 188.552C246.088 188.552 260.96 209.351 259.607 207.964C258.255 206.577 248.049 198.233 248.049 198.233L270.661 241.834L266.606 239.654L271.204 245.794C271.204 245.794 281.478 260.649 279.316 259.066C278.053 258.14 273.338 254.45 269.628 251.536C271.928 257.243 273.267 260.576 273.267 260.576L253.551 260.273L232.492 258.455L224.875 259.061L191.234 260.988C191.234 260.988 187.506 261.956 184.351 262.926C181.196 263.894 179.434 255.56 179.434 255.56C179.434 255.56 171.161 259.243 167.433 261.956C163.705 264.668 168.176 253.586 168.176 253.586C168.176 253.586 163.705 256.528 160.263 260.211C156.822 263.894 162.272 253.039 162.272 253.039C162.272 253.039 157.321 252.559 149.479 258.616C145.744 261.501 147.601 258.803 152.84 250.149L143.404 257.539C143.404 257.539 151.722 241.725 150.929 241.869C150.135 242.013 161.227 226.782 162.613 224.315C163.998 221.849 156.473 228.088 155.955 228.775C155.436 229.463 161.424 219.236 162.809 217.205C164.195 215.174 177.492 190.405 177.492 190.405C177.492 190.405 175.749 191.449 174.005 192.727C172.262 194.003 177.651 183.905 178.442 181.204C179.233 178.504 173.529 185.531 171.154 187.853C168.778 190.175 172.262 185.531 179.392 174.39C186.521 163.248 194.782 144.861 194.782 144.861C194.782 144.861 191.997 146.336 190.604 148.035C189.212 149.735 193.544 138.515 194.162 135.514C194.78 132.512 188.747 140.442 187.198 142.482C185.661 144.522 190.82 134.202 196.646 123.78Z" fill="#164561"/>
<path fill-rule="evenodd" clip-rule="evenodd" d="M91.6961 240.144L67.7761 250.36L82.7264 217.86C82.7264 217.86 79.3085 220.166 77.814 221.861C76.3194 223.555 81.8713 214.158 82.7264 212.002C83.5814 209.845 76.9589 217.86 76.9589 217.86L93.7212 170.723C93.7212 170.723 89.1072 176.885 87.9111 178.118C86.715 179.351 95.9405 161.111 96.625 159.877C97.3095 158.644 95.0878 161.234 93.7212 162.465C92.3545 163.698 97.139 153.96 97.139 153.96C97.139 153.96 93.3801 158.89 91.5019 161.354C89.6212 163.818 110.069 110.174 110.069 110.174L104.33 115.846L112.12 96.4243C112.12 96.4243 110.341 98.1996 109.249 99.2837C108.155 100.368 114.581 89.5244 114.991 88.4379C115.401 87.3538 111.573 91.4937 109.659 93.5649C107.745 95.636 124.557 62.3129 125.142 61.1744C125.183 61.0987 125.206 61.1697 125.223 61.3685L134.339 83.2612L131.289 80.4231L140.022 107.564L135.346 103.229C135.346 103.229 144.721 125.83 144.171 125.205C143.619 124.58 141.495 121.927 141.495 121.927C141.495 121.927 145.195 130.997 144.643 130.318C144.091 129.636 142.359 127.705 142.359 127.705C142.359 127.705 159.01 166.403 157.935 164.739C156.86 163.075 151.014 157.307 151.014 157.307L157.935 170.063L155.168 168.51C155.168 168.51 168.949 205.076 168.525 203.966C168.101 202.856 160.029 191.674 160.412 192.874C160.796 194.076 164.129 201.099 163.231 200.361C162.333 199.622 161.438 199.435 161.438 199.435C161.438 199.435 168.068 214.187 174.546 226.187C174.612 226.311 168.525 222.159 168.525 222.159L171.86 230.749C171.86 230.749 178.868 245.01 176.365 243.386C173.861 241.763 163.349 240.167 163.349 240.167L131.729 240.049L91.6961 240.144Z" fill="#164561"/>
<path fill-rule="evenodd" clip-rule="evenodd" d="M359.243 268.311L326.696 280.215L347.037 242.345C347.037 242.345 342.388 245.031 340.353 247.006C338.319 248.98 345.874 238.03 347.037 235.516C348.2 233.002 339.19 242.343 339.19 242.343L362 187.413C362 187.413 355.723 194.595 354.096 196.029C352.469 197.466 365.022 176.21 365.953 174.776C366.883 173.339 363.861 176.354 362 177.791C360.14 179.228 366.649 167.883 366.649 167.883C366.649 167.883 361.535 173.627 358.977 176.501C356.419 179.372 384.243 116.861 384.243 116.861L376.433 123.47L387.035 100.837C387.035 100.837 384.617 102.905 383.129 104.167C381.642 105.431 390.382 92.7933 390.941 91.5293C391.497 90.2653 386.289 95.0917 383.688 97.5037C381.085 99.9157 403.958 61.0845 404.754 59.759C404.809 59.6714 404.842 59.7542 404.863 59.9838L417.267 85.4957L413.118 82.1866L425.001 113.815L418.641 108.766C418.641 108.766 431.398 135.102 430.65 134.375C429.899 133.646 427.007 130.555 427.007 130.555C427.007 130.555 432.04 141.126 431.291 140.333C430.543 139.537 428.186 137.289 428.186 137.289C428.186 137.289 450.844 182.386 449.38 180.447C447.916 178.508 439.965 171.786 439.965 171.786L449.38 186.649L445.614 184.84C445.614 184.84 464.363 227.451 463.786 226.159C463.208 224.867 452.225 211.834 452.746 213.235C453.269 214.634 457.803 222.822 456.583 221.96C455.361 221.098 454.143 220.883 454.143 220.883C454.143 220.883 463.165 238.075 471.976 252.057C472.068 252.199 463.786 247.363 463.786 247.363L468.321 257.371C468.321 257.371 477.857 273.99 474.451 272.096C471.045 270.203 456.744 268.344 456.744 268.344L413.717 268.205L359.243 268.311Z" fill="#164561"/>
</svg>
