<svg width="559" height="247" viewBox="0 0 559 247" fill="none" xmlns="http://www.w3.org/2000/svg">
<path fill-rule="evenodd" clip-rule="evenodd" d="M68.8986 49.0903C82.0403 25.5869 83.7066 9.09209 83.9339 9.37968C90.8551 34.1084 102.085 49.0048 113.923 64.2764L107.089 61.561L119.985 78.5852L110.011 71.2807L119.109 85.6353L111.235 80.8921L138.661 130.35L132.887 127.786L137.262 135.476L132.887 132.913C132.887 132.913 152.135 159.83 150.385 158.036C148.635 156.241 135.427 145.442 135.427 145.442L164.69 201.868L159.442 199.049L165.391 206.995C165.391 206.995 178.689 226.222 175.891 224.171C174.256 222.975 168.152 218.199 163.354 214.426C166.33 221.812 168.06 226.126 168.06 226.126L142.546 225.734L115.293 223.384L105.436 224.167L61.9002 226.66C61.9002 226.66 57.0747 227.914 52.9937 229.169C48.9128 230.423 46.6314 219.636 46.6314 219.636C46.6314 219.636 35.9232 224.403 31.0998 227.914C26.2744 231.426 32.0632 217.084 32.0632 217.084C32.0632 217.084 26.2765 220.891 21.8222 225.657C17.37 230.423 24.4205 216.375 24.4205 216.375C24.4205 216.375 18.0122 215.752 7.865 223.592C3.0312 227.326 5.43357 223.834 12.2151 212.632L0.0012207 222.196C0.0012207 222.196 10.7657 201.731 9.73976 201.918C8.71377 202.106 23.0671 182.391 24.8626 179.199C26.6559 176.006 16.9175 184.079 16.2481 184.971C15.5787 185.863 23.3257 172.628 25.1191 169.998C26.9125 167.37 44.1206 135.316 44.1206 135.316C44.1206 135.316 41.8643 136.668 39.6101 138.321C37.3538 139.971 44.3271 126.905 45.351 123.408C46.377 119.913 38.9949 129.005 35.919 132.011C32.8431 135.014 37.3537 129.005 46.5813 114.586C55.8089 100.167 66.4983 76.3719 66.4983 76.3719C66.4983 76.3719 62.8949 78.2788 61.0911 80.4795C59.2894 82.6802 64.8947 68.1589 65.6976 64.2743C66.4983 60.3897 58.6888 70.6514 56.6869 73.2918C54.6808 75.9343 61.358 62.5758 68.8986 49.0903Z" fill="#1B5373"/>
<path fill-rule="evenodd" clip-rule="evenodd" d="M361.988 49.0903C375.13 25.5869 376.796 9.09209 377.023 9.37968C383.945 34.1084 395.174 49.0048 407.013 64.2764L400.177 61.561L413.072 78.5852L403.098 71.2807L412.197 85.6353L404.322 80.8921L431.749 130.35L425.974 127.786L430.349 135.476L425.974 132.913C425.974 132.913 445.222 159.83 443.472 158.036C441.723 156.241 428.514 145.442 428.514 145.442L457.778 201.868L452.529 199.049L458.479 206.995C458.479 206.995 471.777 226.222 468.978 224.171C467.343 222.975 461.239 218.199 456.441 214.426C459.417 221.812 461.148 226.126 461.148 226.126L435.634 225.734L408.38 223.384L398.523 224.167L354.988 226.66C354.988 226.66 350.162 227.914 346.081 229.169C341.998 230.423 339.719 219.636 339.719 219.636C339.719 219.636 329.011 224.403 324.187 227.914C319.362 231.426 325.151 217.084 325.151 217.084C325.151 217.084 319.364 220.891 314.91 225.657C310.457 230.423 317.508 216.375 317.508 216.375C317.508 216.375 311.1 215.752 300.952 223.592C296.119 227.326 298.521 223.834 305.302 212.632L293.089 222.196C293.089 222.196 303.853 201.731 302.827 201.918C301.801 202.106 316.154 182.391 317.95 179.199C319.743 176.006 310.005 184.079 309.335 184.971C308.666 185.863 316.413 172.628 318.207 169.998C320 167.37 337.208 135.316 337.208 135.316C337.208 135.316 334.952 136.668 332.697 138.321C330.441 139.971 337.412 126.905 338.438 123.408C339.464 119.913 332.082 129.005 329.006 132.011C325.931 135.014 330.441 129.005 339.669 114.586C348.896 100.167 359.586 76.3719 359.586 76.3719C359.586 76.3719 355.982 78.2788 354.179 80.4795C352.377 82.6802 357.982 68.1589 358.783 64.2743C359.584 60.3897 351.774 70.6514 349.772 73.2918C347.77 75.9343 354.448 62.5758 361.988 49.0903Z" fill="#1B5373"/>
<path fill-rule="evenodd" clip-rule="evenodd" d="M450.917 55.4155C464.059 31.9121 465.725 15.4173 465.952 15.7049C472.874 40.4336 484.103 55.33 495.941 70.6016L489.106 67.8862L502.001 84.9103L492.027 77.6059L501.126 91.9605L493.251 87.2173L520.676 136.675L514.901 134.111L519.276 141.801L514.901 139.238C514.901 139.238 534.149 166.155 532.399 164.361C530.65 162.566 517.441 151.767 517.441 151.767L546.705 208.194L541.456 205.374L547.405 213.32C547.405 213.32 560.704 232.547 557.903 230.496C556.268 229.3 550.164 224.524 545.366 220.752C548.34 228.137 550.073 232.451 550.073 232.451L524.559 232.059L497.305 229.707L487.448 230.49L443.912 232.983C443.912 232.983 439.089 234.237 435.006 235.492C430.923 236.746 428.644 225.96 428.644 225.96C428.644 225.96 417.935 230.726 413.112 234.237C408.289 237.749 414.075 223.407 414.075 223.407C414.075 223.407 408.289 227.214 403.834 231.98C399.38 236.746 406.433 222.698 406.433 222.698C406.433 222.698 400.024 222.075 389.877 229.915C385.043 233.65 387.448 230.157 394.227 218.955L382.013 228.519C382.013 228.519 392.778 208.054 391.752 208.241C390.726 208.429 405.079 188.714 406.875 185.524C408.668 182.331 398.93 190.404 398.26 191.296C397.591 192.188 405.338 178.953 407.131 176.323C408.925 173.695 426.131 141.641 426.131 141.641C426.131 141.641 423.874 142.993 421.62 144.646C419.364 146.297 426.335 133.23 427.361 129.733C428.387 126.238 421.005 135.331 417.929 138.336C414.853 141.339 419.364 135.331 428.591 120.911C437.819 106.492 448.508 82.6971 448.508 82.6971C448.508 82.6971 444.905 84.604 443.101 86.8047C441.299 89.0054 446.905 74.4841 447.706 70.5995C448.506 66.715 440.697 76.9766 438.695 79.617C436.699 82.2574 443.376 68.901 450.917 55.4155Z" fill="#1B5373"/>
<path fill-rule="evenodd" clip-rule="evenodd" d="M390.964 211.105L362.785 223.14L380.397 184.852C380.397 184.852 376.371 187.568 374.611 189.564C372.849 191.561 379.392 180.491 380.397 177.95C381.405 175.41 373.603 184.852 373.603 184.852L393.352 129.318C393.352 129.318 387.917 136.577 386.507 138.029C385.098 139.482 395.969 117.994 396.774 116.541C397.578 115.088 394.961 118.137 393.352 119.59C391.742 121.042 397.376 109.572 397.376 109.572C397.376 109.572 392.949 115.38 390.734 118.283C388.52 121.186 412.61 57.9869 412.61 57.9869L405.847 64.6682L415.026 41.7858C415.026 41.7858 412.933 43.8761 411.644 45.1536C410.355 46.4311 417.923 33.6541 418.407 32.3766C418.889 31.0991 414.38 35.9777 412.126 38.416C409.872 40.8543 429.678 1.59595 430.366 0.255939C430.412 0.166327 430.443 0.249642 430.462 0.48305L441.202 26.2767L437.609 22.9319L447.898 54.9067L442.39 49.803C442.39 49.803 453.436 76.4303 452.788 75.6926C452.137 74.9569 449.635 71.8288 449.635 71.8288C449.635 71.8288 453.993 82.5155 453.344 81.7132C452.696 80.9109 450.654 78.6351 450.654 78.6351C450.654 78.6351 470.271 124.227 469.003 122.268C467.735 120.307 460.85 113.513 460.85 113.513L469.003 128.541L465.742 126.711C465.742 126.711 481.976 169.789 481.476 168.483C480.975 167.176 471.466 154.001 471.919 155.416C472.373 156.831 476.298 165.107 475.24 164.235C474.183 163.364 473.128 163.148 473.128 163.148C473.128 163.148 480.938 180.528 488.57 194.666C488.649 194.81 481.478 189.921 481.478 189.921L485.406 200.039C485.406 200.039 493.662 216.84 490.714 214.927C487.765 213.014 475.382 211.134 475.382 211.134L438.128 210.994L390.964 211.105Z" fill="#1F5C7D"/>
<path fill-rule="evenodd" clip-rule="evenodd" d="M281.582 29.2861C281.601 29.2861 281.615 29.3132 281.628 29.3674L295.37 53.5647L291.466 50.2907L297.556 61.113L293.028 57.293L305.615 88.5739L301.39 84.9185L310.628 101.42L307.751 98.627L309.669 104.275L307.436 101.976L316.597 116.814L313.079 113.401L315.316 118.615L317.554 125.198L313.928 120.355L325.009 142.414L321.116 137.244L337.498 169.996L331.968 166.182L335.753 173.809L331.342 170.035L350.617 203.977L345.727 199.668L349.48 210.2L343.21 204.546L352.994 227.579H350.794C352.504 233.068 353.301 236.111 352.888 235.894C352.811 235.854 352.665 235.815 352.446 235.773L352.544 235.904L352.106 235.717C340.209 233.972 205.688 231.307 205.688 231.307L201.618 231.234L220.788 190.952L213.227 196.417L219.516 181.597L216.371 182.929L227.15 169.358L221.432 172.355L227.436 162.531L220.861 166.528L239.11 133.176L235.765 134.782L239.982 128.099L235.413 131.442L241.035 124.792H239.982L241.621 120.599L237.054 126.161L259.258 88.2966L255.553 90.2056L258.921 84.6643L254.967 87.8174L260.968 78.0142L258.332 80.5712L267.035 63.5617L264.207 66.9273L271.216 49.7406L269.126 50.5283L281.484 29.4591C281.517 29.3799 281.54 29.332 281.548 29.3153C281.559 29.2966 281.571 29.2861 281.582 29.2861Z" fill="#1B5373"/>
<path fill-rule="evenodd" clip-rule="evenodd" d="M283.248 224.774L255.069 236.809L272.682 198.521C272.682 198.521 268.655 201.237 266.895 203.233C265.133 205.23 271.676 194.16 272.682 191.619C273.689 189.079 265.888 198.521 265.888 198.521L285.636 142.987C285.636 142.987 280.201 150.246 278.792 151.698C277.382 153.151 288.253 131.662 289.058 130.21C289.863 128.757 287.248 131.806 285.636 133.259C284.026 134.711 289.66 123.241 289.66 123.241C289.66 123.241 285.233 129.049 283.019 131.952C280.804 134.855 304.894 71.6558 304.894 71.6558L298.131 78.3371L307.309 55.4548C307.309 55.4548 305.215 57.5451 303.926 58.8226C302.637 60.1001 310.207 47.323 310.689 46.0456C311.171 44.7681 306.662 49.6467 304.408 52.085C302.154 54.5233 321.96 15.2649 322.648 13.9249C322.694 13.8353 322.725 13.9186 322.744 14.152L333.484 39.9457L329.891 36.6008L340.18 68.5757L334.672 63.472C334.672 63.472 345.718 90.0992 345.07 89.3615C344.419 88.6258 341.917 85.4978 341.917 85.4978C341.917 85.4978 346.275 96.1845 345.627 95.3822C344.978 94.5798 342.936 92.3041 342.936 92.3041C342.936 92.3041 362.553 137.896 361.285 135.937C360.017 133.976 353.132 127.182 353.132 127.182L361.285 142.21L358.026 140.38C358.026 140.38 374.26 183.458 373.76 182.152C373.259 180.845 363.75 167.67 364.203 169.085C364.655 170.5 368.582 178.775 367.525 177.904C366.467 177.033 365.412 176.817 365.412 176.817C365.412 176.817 373.224 194.197 380.854 208.335C380.933 208.479 373.762 203.59 373.762 203.59L377.691 213.707C377.691 213.707 385.946 230.509 382.998 228.596C380.049 226.683 367.666 224.803 367.666 224.803L330.412 224.663L283.248 224.774Z" fill="#1F5C7D"/>
<path fill-rule="evenodd" clip-rule="evenodd" d="M226.471 33.8022C226.489 33.8022 226.504 33.8293 226.517 33.8835L240.259 58.0808L236.357 54.8069L242.446 65.6291L237.919 61.8091L250.506 93.09L246.279 89.4346L255.517 105.936L252.64 103.143L254.558 108.791L252.325 106.494L261.486 121.332L257.968 117.919L260.205 123.133L262.443 129.716L258.816 124.873L269.898 146.932L266.004 141.764L282.387 174.516L276.857 170.702L280.641 178.33L276.229 174.556L295.504 208.498L290.613 204.188L294.367 214.721L288.096 209.065L297.881 232.097H295.681C297.391 237.586 298.187 240.629 297.774 240.412C297.697 240.372 297.549 240.333 297.332 240.291L297.43 240.422L296.992 240.235C285.096 238.491 150.575 235.825 150.575 235.825L146.504 235.752L165.675 195.469L158.113 200.933L164.403 186.113L161.258 187.445L172.037 173.874L166.319 176.871L172.325 167.047L165.75 171.042L183.999 137.69L180.654 139.296L184.87 132.613L180.303 135.956L185.926 129.306H184.872L186.512 125.113L181.945 130.675L204.149 92.8107L200.444 94.7196L203.811 89.1783L199.858 92.3314L205.859 82.5283L203.223 85.0853L211.925 68.0757L209.098 71.4414L216.107 54.2546L214.017 55.0423L226.375 33.9731C226.408 33.8939 226.431 33.846 226.439 33.8293C226.448 33.8127 226.46 33.8022 226.471 33.8022Z" fill="#1F5C7D"/>
<path fill-rule="evenodd" clip-rule="evenodd" d="M143.806 33.8022C143.825 33.8022 143.839 33.8293 143.852 33.8835L157.592 58.0808L153.69 54.8069L159.78 65.6291L155.252 61.8091L167.839 93.09L163.615 89.4346L172.853 105.936L169.975 103.143L171.893 108.791L169.66 106.494L178.821 121.332L175.303 117.919L177.54 123.133L179.778 129.716L176.152 124.873L187.233 146.932L183.34 141.764L199.722 174.516L194.192 170.702L197.977 178.33L193.566 174.556L212.841 208.498L207.951 204.188L211.704 214.721L205.434 209.065L215.218 232.097H213.018C214.728 237.586 215.525 240.629 215.112 240.412C215.035 240.372 214.887 240.333 214.67 240.291L214.768 240.422L214.33 240.235C202.433 238.491 67.9124 235.825 67.9124 235.825L63.8418 235.752L83.0123 195.469L75.4508 200.933L81.7402 186.113L78.5956 187.445L89.3746 173.874L83.6566 176.871L89.6603 167.047L83.0852 171.042L101.334 137.69L97.9891 139.296L102.206 132.613L97.6367 135.956L103.259 129.306H102.206L103.845 125.113L99.2779 130.675L121.482 92.8107L117.777 94.7196L121.145 89.1783L117.191 92.3314L123.192 82.5283L120.557 85.0853L129.259 68.0757L126.431 71.4414L133.44 54.2546L131.348 55.0423L143.706 33.9731C143.739 33.8939 143.762 33.846 143.771 33.8293C143.781 33.8127 143.793 33.8022 143.806 33.8022Z" fill="#1F5C7D"/>
<path fill-rule="evenodd" clip-rule="evenodd" d="M439.942 84.9017C448.882 68.9111 450.016 57.6909 450.171 57.8868C454.879 74.7109 462.518 84.8433 470.573 95.2341L465.923 93.3856L474.696 104.968L467.91 99.9982L474.1 109.764L468.743 106.538L487.4 140.184L483.471 138.44L486.447 143.673L483.471 141.928C483.471 141.928 496.565 160.24 495.374 159.019C494.184 157.798 485.198 150.452 485.198 150.452L505.107 188.839L501.536 186.92L505.584 192.326C505.584 192.326 514.63 205.405 512.726 204.011C511.615 203.196 507.463 199.947 504.197 197.381C506.22 202.406 507.4 205.34 507.4 205.34L490.044 205.073L471.503 203.473L464.797 204.006L435.179 205.703C435.179 205.703 431.897 206.557 429.119 207.41C426.341 208.262 424.79 200.924 424.79 200.924C424.79 200.924 417.506 204.167 414.223 206.555C410.941 208.943 414.878 199.186 414.878 199.186C414.878 199.186 410.941 201.777 407.911 205.019C404.881 208.262 409.677 198.705 409.677 198.705C409.677 198.705 405.319 198.282 398.415 203.615C395.126 206.155 396.761 203.779 401.374 196.16L393.066 202.666C393.066 202.666 400.389 188.743 399.691 188.87C398.992 188.997 408.758 175.587 409.978 173.415C411.198 171.244 404.573 176.737 404.116 177.344C403.659 177.95 408.931 168.945 410.151 167.157C411.371 165.369 423.078 143.562 423.078 143.562C423.078 143.562 421.543 144.481 420.008 145.606C418.473 146.73 423.218 137.839 423.914 135.462C424.611 133.084 419.589 139.271 417.497 141.316C415.406 143.36 418.473 139.271 424.75 129.462C431.027 119.652 438.301 103.464 438.301 103.464C438.301 103.464 435.848 104.762 434.622 106.259C433.396 107.755 437.21 97.8767 437.757 95.2341C438.301 92.5916 432.989 99.573 431.626 101.369C430.268 103.164 434.81 94.0775 439.942 84.9017Z" fill="#164561"/>
<path fill-rule="evenodd" clip-rule="evenodd" d="M249.799 98.2268C259.502 80.8734 260.733 68.6945 260.901 68.907C266.013 87.167 274.304 98.1643 283.044 109.441L277.997 107.436L287.519 120.007L280.155 114.613L286.872 125.213L281.058 121.711L301.309 158.229L297.044 156.337L300.275 162.016L297.044 160.124C297.044 160.124 311.256 179.999 309.963 178.673C308.67 177.348 298.919 169.375 298.919 169.375L320.525 211.038L316.649 208.956L321.043 214.825C321.043 214.825 330.86 229.021 328.794 227.506C327.586 226.622 323.08 223.096 319.537 220.31C321.733 225.763 323.013 228.948 323.013 228.948L304.174 228.658L284.051 226.922L276.773 227.502L244.628 229.342C244.628 229.342 241.066 230.267 238.05 231.194C235.035 232.122 233.352 224.157 233.352 224.157C233.352 224.157 225.447 227.677 221.885 230.269C218.323 232.862 222.596 222.273 222.596 222.273C222.596 222.273 218.323 225.084 215.035 228.604C211.746 232.124 216.953 221.75 216.953 221.75C216.953 221.75 212.222 221.289 204.729 227.078C201.159 229.836 202.933 227.258 207.94 218.986L198.923 226.047C198.923 226.047 206.873 210.936 206.116 211.075C205.359 211.213 215.956 196.658 217.28 194.301C218.605 191.944 211.414 197.907 210.918 198.563C210.424 199.222 216.144 189.448 217.468 187.507C218.792 185.567 231.496 161.899 231.496 161.899C231.496 161.899 229.83 162.898 228.166 164.119C226.5 165.338 231.648 155.689 232.405 153.109C233.162 150.529 227.711 157.244 225.44 159.461C223.17 161.678 226.5 157.242 233.313 146.596C240.125 135.949 248.018 118.381 248.018 118.381C248.018 118.381 245.357 119.79 244.027 121.413C242.697 123.039 246.836 112.317 247.428 109.449C248.02 106.582 242.252 114.157 240.776 116.108C239.302 118.046 244.231 108.184 249.799 98.2268Z" fill="#164561"/>
<path fill-rule="evenodd" clip-rule="evenodd" d="M173.134 109.026C182.076 93.0357 183.208 81.8154 183.363 82.0113C188.071 98.8354 195.71 108.968 203.765 119.359L199.115 117.51L207.888 129.093L201.102 124.123L207.292 133.888L201.935 130.662L220.592 164.308L216.663 162.564L219.639 167.797L216.663 166.053C216.663 166.053 229.757 184.365 228.566 183.144C227.376 181.922 218.39 174.576 218.39 174.576L238.299 212.964L234.728 211.044L238.776 216.45C238.776 216.45 247.822 229.529 245.918 228.135C244.807 227.32 240.655 224.071 237.389 221.506C239.414 226.53 240.592 229.465 240.592 229.465L223.234 229.198L204.693 227.598L197.987 228.131L168.369 229.827C168.369 229.827 165.087 230.68 162.309 231.534C159.531 232.387 157.98 225.049 157.98 225.049C157.98 225.049 150.696 228.291 147.413 230.68C144.131 233.068 148.068 223.311 148.068 223.311C148.068 223.311 144.131 225.901 141.101 229.144C138.071 232.387 142.87 222.829 142.87 222.829C142.87 222.829 138.511 222.406 131.607 227.739C128.318 230.28 129.953 227.904 134.566 220.285L126.258 226.791C126.258 226.791 133.582 212.868 132.883 212.995C132.184 213.122 141.95 199.711 143.17 197.54C144.39 195.368 137.765 200.862 137.308 201.466C136.851 202.073 142.123 193.068 143.343 191.28C144.563 189.492 156.27 167.685 156.27 167.685C156.27 167.685 154.735 168.604 153.2 169.729C151.665 170.852 156.41 161.962 157.106 159.584C157.803 157.206 152.781 163.394 150.69 165.438C148.598 167.482 151.666 163.394 157.942 153.584C164.219 143.775 171.493 127.586 171.493 127.586C171.493 127.586 169.041 128.885 167.814 130.381C166.588 131.877 170.402 121.999 170.946 119.357C171.491 116.714 166.179 123.696 164.816 125.492C163.462 127.288 168.004 118.202 173.134 109.026Z" fill="#164561"/>
<path fill-rule="evenodd" clip-rule="evenodd" d="M80.7329 211.476L59.6731 220.47L72.8357 191.857C72.8357 191.857 69.8265 193.887 68.5107 195.379C67.1948 196.871 72.0829 188.597 72.8357 186.699C73.5885 184.8 67.7579 191.857 67.7579 191.857L82.5158 150.356C82.5158 150.356 78.4536 155.781 77.4005 156.867C76.3474 157.952 84.4698 141.893 85.0724 140.807C85.6751 139.721 83.719 142.001 82.5158 143.085C81.3126 144.171 85.525 135.597 85.525 135.597C85.525 135.597 82.2155 139.938 80.5619 142.108C78.9061 144.277 96.9088 97.0473 96.9088 97.0473L91.856 102.041L98.7147 84.9414C98.7147 84.9414 97.1486 86.5044 96.1872 87.4589C95.2238 88.4134 100.881 78.8666 101.242 77.91C101.603 76.9555 98.233 80.6004 96.548 82.4239C94.8631 84.2474 109.665 54.9089 110.18 53.9065C110.215 53.8398 110.236 53.9023 110.251 54.0774L118.277 73.3523L115.591 70.8535L123.28 94.7487L119.163 90.9329C119.163 90.9329 127.417 110.831 126.933 110.281C126.448 109.731 124.577 107.394 124.577 107.394C124.577 107.394 127.834 115.38 127.348 114.782C126.863 114.182 125.338 112.481 125.338 112.481C125.338 112.481 139.998 146.553 139.051 145.088C138.105 143.623 132.958 138.544 132.958 138.544L139.051 149.775L136.616 148.408C136.616 148.408 148.748 180.601 148.375 179.624C148.002 178.646 140.895 168.802 141.233 169.858C141.57 170.917 144.504 177.1 143.714 176.45C142.924 175.8 142.135 175.635 142.135 175.635C142.135 175.635 147.972 188.622 153.676 199.188C153.734 199.297 148.375 195.641 148.375 195.641L151.311 203.204C151.311 203.204 157.481 215.76 155.277 214.331C153.073 212.901 143.818 211.496 143.818 211.496L115.979 211.392L80.7329 211.476Z" fill="#164561"/>
<path fill-rule="evenodd" clip-rule="evenodd" d="M316.288 236.275L287.633 246.755L305.542 213.413C305.542 213.413 301.449 215.779 299.657 217.517C297.866 219.255 304.518 209.614 305.542 207.401C306.566 205.188 298.633 213.411 298.633 213.411L318.715 165.05C318.715 165.05 313.189 171.373 311.756 172.636C310.324 173.901 321.376 155.187 322.196 153.924C323.015 152.659 320.354 155.314 318.715 156.579C317.078 157.844 322.809 147.855 322.809 147.855C322.809 147.855 318.306 152.913 316.054 155.443C313.802 157.971 338.299 102.934 338.299 102.934L331.423 108.753L340.757 88.8257C340.757 88.8257 338.628 90.6471 337.318 91.7579C336.009 92.8707 343.704 81.7443 344.196 80.6314C344.686 79.5185 340.1 83.7678 337.811 85.8914C335.519 88.015 355.657 53.827 356.358 52.66C356.406 52.5829 356.435 52.6558 356.453 52.8579L367.374 75.3193L363.721 72.4058L374.183 100.252L368.584 95.8071C368.584 95.8071 379.815 118.994 379.157 118.354C378.495 117.712 375.949 114.99 375.949 114.99C375.949 114.99 380.381 124.297 379.722 123.599C379.063 122.899 376.988 120.919 376.988 120.919C376.988 120.919 396.936 160.624 395.647 158.917C394.359 157.21 387.358 151.292 387.358 151.292L395.647 164.377L392.332 162.785C392.332 162.785 408.839 200.301 408.33 199.163C407.821 198.025 398.152 186.551 398.611 187.784C399.071 189.016 403.063 196.225 401.989 195.466C400.913 194.707 399.841 194.518 399.841 194.518C399.841 194.518 407.784 209.654 415.541 221.964C415.623 222.089 408.33 217.832 408.33 217.832L412.324 226.643C412.324 226.643 420.719 241.274 417.721 239.607C414.722 237.94 402.131 236.304 402.131 236.304L364.248 236.181L316.288 236.275Z" fill="#164561"/>
</svg>
