<svg width="51" height="88" viewBox="0 0 51 88" fill="none" xmlns="http://www.w3.org/2000/svg">
<path d="M10.1021 34.6169V10.8497C10.1021 8.52199 11.9894 6.62863 14.3096 6.62863H36.5569C38.8771 6.62863 40.7643 8.52199 40.7643 10.8497V33.5001H46.4482V7.58645C46.4482 3.69949 43.3065 0.547607 39.4321 0.547607H10.7904C6.91602 0.547607 3.77431 3.69949 3.77431 7.58645V34.6169H10.091H10.1021Z" fill="#E2E8EB"/>
<path d="M5.17327 33.2249H45.8267C48.6909 33.2249 51 35.5526 51 38.4149V67.4835C51 67.4835 46.2042 87.6868 25.5 87.6868C4.79582 87.6868 0 67.4835 0 67.4835V38.4149C0 35.5526 2.3202 33.2249 5.17327 33.2249Z" fill="#FFD41F"/>
<g style="mix-blend-mode:multiply" opacity="0.55">
<path d="M21.7921 82.0511C42.4963 82.0511 47.2921 61.8478 47.2921 61.8478V33.4697C49.4236 34.1046 51 36.0759 51 38.4259V67.4945C51 67.4945 46.2042 87.6978 25.5 87.6978C11.9896 87.6978 5.25098 79.0997 2.20919 73.1189C6.08359 77.7521 12.2449 82.0622 21.8032 82.0622L21.7921 82.0511Z" fill="#FFD41F"/>
</g>
<path d="M25.4997 44.8745C25.4997 44.8745 33.3262 44.8745 33.3262 51.5235C33.3262 57.3484 29.4074 57.2259 29.4074 57.2259V64.7659H21.5808V57.2259C21.5808 57.2259 17.662 57.3484 17.662 51.5235C17.662 44.8745 25.4886 44.8745 25.4886 44.8745H25.4997Z" fill="#823D00"/>
</svg>
