<svg width="53" height="92" viewBox="0 0 53 92" fill="none" xmlns="http://www.w3.org/2000/svg">
<path id="open" d="M41.9337 34.0693V10.3021C41.9337 7.97438 40.042 6.08102 37.7163 6.08102H15.4166C13.091 6.08102 11.1993 7.97438 11.1993 10.3021V26H5.50195V7.03884C5.50195 3.15188 8.65106 0 12.5346 0H41.2438C45.1273 0 48.2764 3.15188 48.2764 7.03884V39.5H41.9448L41.9337 34.0693Z" fill="#E2E8EB"/>
<path d="M46.8742 37.2246H6.12491C3.25399 37.2246 0.939453 39.5523 0.939453 42.4146V71.4833C0.939453 71.4833 5.74658 91.6865 26.4995 91.6865C47.2525 91.6865 52.0596 71.4833 52.0596 71.4833V42.4146C52.0596 39.5523 49.734 37.2246 46.8742 37.2246Z" fill="#FFD41F"/>
<g style="mix-blend-mode:multiply" opacity="0.55">
<path d="M30.2162 86.0511C9.46319 86.0511 4.65607 65.8478 4.65607 65.8478V37.4697C2.51957 38.1046 0.939453 40.0759 0.939453 42.4259V71.4945C0.939453 71.4945 5.74658 91.6978 26.4995 91.6978C40.0418 91.6978 46.7963 83.0997 49.8452 77.1189C45.9617 81.7521 39.7859 86.0622 30.205 86.0622L30.2162 86.0511Z" fill="#FFD41F"/>
</g>
<path d="M26.4993 48.8745C26.4993 48.8745 18.6543 48.8745 18.6543 55.5235C18.6543 61.3484 22.5823 61.2259 22.5823 61.2259V68.7659H30.4273V61.2259C30.4273 61.2259 34.3553 61.3484 34.3553 55.5235C34.3553 48.8745 26.5104 48.8745 26.5104 48.8745H26.4993Z" fill="#823D00"/>
</svg>
