<svg width="53" height="80" viewBox="0 0 53 80" fill="none" xmlns="http://www.w3.org/2000/svg">
<path d="M41.9347 34.0693V10.3021C41.9347 7.97438 40.043 6.08102 37.7173 6.08102H15.4176C13.092 6.08102 11.2003 7.97438 11.2003 10.3021V26H5.50293V7.03884C5.50293 3.15188 8.65204 0 12.5356 0H41.2448C45.1283 0 48.2774 3.15188 48.2774 7.03884V39.5H41.9458L41.9347 34.0693Z" fill="#E2E8EB"/>
<path d="M46.8752 25.2246H6.12589C3.25497 25.2246 0.94043 27.5523 0.94043 30.4146V59.4833C0.94043 59.4833 5.74755 79.6865 26.5005 79.6865C47.2535 79.6865 52.0606 59.4833 52.0606 59.4833V30.4146C52.0606 27.5523 49.7349 25.2246 46.8752 25.2246Z" fill="#FFD41F"/>
<g style="mix-blend-mode:multiply" opacity="0.55">
<path d="M30.2171 74.0511C9.46417 74.0511 4.65705 53.8478 4.65705 53.8478V25.4697C2.52055 26.1046 0.94043 28.0759 0.94043 30.4259V59.4945C0.94043 59.4945 5.74755 79.6978 26.5005 79.6978C40.0428 79.6978 46.7973 71.0997 49.8462 65.1189C45.9627 69.7521 39.7869 74.0622 30.206 74.0622L30.2171 74.0511Z" fill="#FFD41F"/>
</g>
<path d="M26.5002 36.8745C26.5002 36.8745 18.6553 36.8745 18.6553 43.5235C18.6553 49.3484 22.5833 49.2259 22.5833 49.2259V56.7659H30.4283V49.2259C30.4283 49.2259 34.3563 49.3484 34.3563 43.5235C34.3563 36.8745 26.5114 36.8745 26.5114 36.8745H26.5002Z" fill="#823D00"/>
</svg>
