<svg width="186" height="413" viewBox="0 0 186 413" fill="none" xmlns="http://www.w3.org/2000/svg">
<path fill-rule="evenodd" clip-rule="evenodd" d="M135.039 372.938C135.297 375.099 135.76 397.023 135.76 397.023C135.76 397.023 146.306 396.977 148.235 402.843C149.657 407.176 150.187 411.131 148.202 411.848C146.216 412.565 114.755 410.035 114.755 410.035L111.266 371.192C111.266 371.192 134.78 370.777 135.039 372.938Z" fill="#3E211A"/>
<path fill-rule="evenodd" clip-rule="evenodd" d="M41.7143 365.244L37.456 387.474C37.456 387.474 46.0914 391.831 47.574 395.012C49.0567 398.192 48.0412 402.168 48.0412 402.168C47.5907 404.058 24.919 400.838 16.5234 399.605L23.2591 362.564L41.7143 365.244Z" fill="#3E211A"/>
<path fill-rule="evenodd" clip-rule="evenodd" d="M183.35 138.78L183.235 411.627C183.235 411.627 180.772 412.632 179.698 412.171C178.622 411.713 178.864 410.46 178.864 410.46L179.94 138.942L183.35 138.78Z" fill="#422B26"/>
<path fill-rule="evenodd" clip-rule="evenodd" d="M184.182 137.298H178.733V162.919C178.733 163.604 179.004 164.261 179.49 164.746C179.976 165.232 180.633 165.503 181.319 165.503C181.413 165.503 181.504 165.503 181.598 165.503C182.282 165.503 182.941 165.232 183.425 164.746C183.911 164.261 184.182 163.604 184.182 162.919C184.182 155.952 184.182 137.298 184.182 137.298Z" fill="#422B26"/>
<path fill-rule="evenodd" clip-rule="evenodd" d="M92.3691 240.912C92.4525 236.944 104.272 287.719 109.479 299.352C104.921 328.555 104.643 380.184 113.909 379.069C126.014 377.612 138.536 381.807 139.12 379.14C140.934 370.839 139.058 314.578 134.111 297.018C134.618 253.981 135.306 218.078 131.552 193.976C131.552 193.976 76.2891 188.579 71.5721 188.806C66.855 189.031 55.6338 200.341 55.6338 200.341L43.0113 286.881C25.9595 325.045 15.1325 362.749 21.401 364.681C21.401 364.681 38.9803 370.01 43.0467 369.395C47.8618 368.668 61.6021 321.534 72.5105 297.416C72.5063 297.414 92.3315 242.738 92.3691 240.912Z" fill="#422B26"/>
<mask id="mask0_261_4820" style="mask-type:luminance" maskUnits="userSpaceOnUse" x="19" y="188" width="121" height="193">
<path d="M92.3691 240.912C92.4525 236.944 104.272 287.719 109.479 299.352C104.921 328.555 104.643 380.184 113.909 379.069C126.014 377.612 138.536 381.807 139.12 379.14C140.934 370.839 139.058 314.578 134.111 297.018C134.618 253.981 135.306 218.078 131.552 193.976C131.552 193.976 76.2891 188.579 71.5721 188.806C66.855 189.031 55.6338 200.341 55.6338 200.341L43.0113 286.881C25.9595 325.045 15.1325 362.749 21.401 364.681C21.401 364.681 38.9803 370.01 43.0467 369.395C47.8618 368.668 61.6021 321.534 72.5105 297.416C72.5063 297.414 92.3315 242.738 92.3691 240.912Z" fill="white"/>
</mask>
<g mask="url(#mask0_261_4820)">
<path fill-rule="evenodd" clip-rule="evenodd" d="M91.7746 382.212C95.816 384.944 122.967 394.059 127.778 385.69C132.589 377.32 135.629 352.431 132.507 328.163C129.388 303.895 124.737 288.49 127.503 271.428C130.268 254.367 121.999 204.328 121.999 204.328L133.721 200.647L152.491 208.371C152.491 208.371 163.996 374.695 149.49 385.056C134.983 395.418 99.676 402.197 95.1508 392.748C90.6256 383.299 87.7332 379.479 91.7746 382.212Z" fill="#54362C"/>
</g>
<mask id="mask1_261_4820" style="mask-type:luminance" maskUnits="userSpaceOnUse" x="19" y="188" width="121" height="193">
<path d="M92.3691 240.912C92.4525 236.944 104.272 287.719 109.479 299.352C104.921 328.555 104.643 380.184 113.909 379.069C126.014 377.612 138.536 381.807 139.12 379.14C140.934 370.839 139.058 314.578 134.111 297.018C134.618 253.981 135.306 218.078 131.552 193.976C131.552 193.976 76.2891 188.579 71.5721 188.806C66.855 189.031 55.6338 200.341 55.6338 200.341L43.0113 286.881C25.9595 325.045 15.1325 362.749 21.401 364.681C21.401 364.681 38.9803 370.01 43.0467 369.395C47.8618 368.668 61.6021 321.534 72.5105 297.416C72.5063 297.414 92.3315 242.738 92.3691 240.912Z" fill="white"/>
</mask>
<g mask="url(#mask1_261_4820)">
<path fill-rule="evenodd" clip-rule="evenodd" d="M30.0883 377.168C32.8848 372.802 62.0836 309.217 67.4783 292.681C72.8731 276.144 90.2878 232.528 90.2878 232.528L93.0571 240.731C93.0571 240.731 74.5059 322.295 62.5007 352.171C50.4975 382.047 27.294 381.534 30.0883 377.168Z" fill="#54362C"/>
</g>
<path fill-rule="evenodd" clip-rule="evenodd" d="M170.548 142.764C172.149 139.709 171.078 134.52 172.762 133.205C174.447 131.892 175.117 132.99 176.562 133.126C178.007 133.261 179.54 128.77 182.324 131.102C185.11 133.434 187.055 141.868 184.599 144.246C182.142 146.624 178.076 147.539 178.076 147.539C178.076 147.539 168.946 145.819 170.548 142.764Z" fill="#D4843B"/>
<path fill-rule="evenodd" clip-rule="evenodd" d="M110.077 57.0368C110.893 54.9111 112.855 35.2257 108.568 22.4216C104.28 9.61955 93.6178 7.40009 83.5832 11.8974C73.5485 16.3925 71.4778 30.6242 73.4443 39.6833C75.4087 48.7425 80.8472 60.044 80.8472 60.044L81.6917 71.2455L106.213 72.1562L104.658 60.8422C104.658 60.8422 109.26 59.1625 110.077 57.0368Z" fill="#D4843B"/>
<path fill-rule="evenodd" clip-rule="evenodd" d="M108.313 29.4384C110.132 32.8437 114.009 35.7196 113.064 37.7265C112.117 39.7334 110.251 40.4357 110.251 40.4357C110.251 40.4357 106.495 26.0352 108.313 29.4384Z" fill="#D4843B"/>
<path fill-rule="evenodd" clip-rule="evenodd" d="M130.366 76.8703C127.918 75.897 113.604 70.3682 98.6626 68.2487C83.7212 66.1293 54.0094 79.1147 51.7197 81.405C49.4279 83.6953 40.6194 155.839 40.8634 183.636C41.1074 211.43 58.2446 201.694 63.4246 201.912C93.81 203.188 117.504 205.463 132.065 203.615C135.485 203.181 137.911 169.867 137.143 131.19C136.566 102.041 132.814 77.8414 130.366 76.8703Z" fill="#EFE5B7"/>
<path fill-rule="evenodd" clip-rule="evenodd" d="M41.6703 160.032C41.8517 168.147 39.6433 195.956 46.1224 200.645C52.5994 205.334 51.2107 203.173 53.6338 203.377C56.057 203.58 63.5683 201.671 64.9092 202.065C66.248 202.454 98.7354 204.486 103.588 203.698C108.441 202.911 113.946 185.822 117.585 172.513C121.224 159.205 118.36 115.264 116.93 99.0607C116.085 89.4931 111.967 76.4472 109.802 74.9801C106.883 73.0003 100.923 82.4825 95.9035 81.6468C83.648 79.6087 42.3167 87.0152 40.4566 107.065C38.5944 127.118 41.4888 151.919 41.6703 160.032Z" fill="#E5D176"/>
<path fill-rule="evenodd" clip-rule="evenodd" d="M127.513 128.393L106.658 166.382L107.869 173.858L128.746 134.508L127.513 128.393Z" fill="#603321"/>
<path fill-rule="evenodd" clip-rule="evenodd" d="M118.385 72.625C111.435 73.4503 106.176 75.5905 102.789 82.7595L95.5552 74.8091L101.104 68.5758C105.356 64.3265 119.712 69.3615 118.385 72.625Z" fill="#603321"/>
<path fill-rule="evenodd" clip-rule="evenodd" d="M104.918 23.2218C106.826 23.401 109.181 21.886 110.54 20.7502C114.819 17.1782 116.961 11.466 115.007 6.18094C114.267 4.17822 112.43 0.662525 110.006 0.249893C108.809 0.0456611 107.877 0.956382 107.314 1.9046C107.081 2.29848 106.814 3.23625 106.234 3.22583C105.715 3.2175 105.179 2.64859 104.737 2.42977C104.063 2.09633 103.287 1.95668 102.545 1.88791C101.434 1.78371 100.287 2.00462 99.2482 2.39641C98.6372 2.62773 98.0303 3.05497 97.3693 3.11333C96.1932 3.21961 94.8961 2.37974 93.7241 2.22552C90.9735 1.8629 88.2689 2.77778 86.0042 4.30952C84.2755 5.47864 82.651 7.0104 81.6417 8.85682C81.1121 9.82588 81.2017 11.7036 80.2091 12.3454C79.5856 12.7476 78.7431 12.4455 78.0674 12.3934C77.1832 12.3225 76.3679 12.4746 75.5275 12.7602C70.7521 14.3815 68.4832 18.9955 67.6512 23.6928C67.3092 25.6205 67.7471 27.4232 68.158 29.305C68.7794 32.1518 69.5384 34.8068 71.0544 37.3263C71.9928 38.8831 73.4797 40.1564 74.2179 41.8257C74.7998 43.1428 74.8206 44.7287 75.0458 46.1354C75.4607 48.7321 76.468 51.7601 78.5262 53.5607C81.3643 56.0427 86.3253 54.5652 89.3553 53.321C93.7366 51.5205 97.509 48.6841 99.4129 44.1973C100.147 42.4634 100.032 40.6232 100.26 38.7976C100.424 37.4785 100.8 36.1947 100.898 34.8672C100.983 33.6919 100.858 32.4644 100.585 31.3161C100.362 30.3762 100.212 28.6944 100.543 27.7712C101.112 26.1853 103.2 24.4889 104.918 23.2218Z" fill="#422B26"/>
<path fill-rule="evenodd" clip-rule="evenodd" d="M100.189 51.3976C100.189 51.3976 116.667 121.753 107.383 191.665C105.502 205.837 28.6829 202.667 26.7248 194.871C15.8852 151.717 13.6644 65.723 25.8573 54.6215C40.121 41.634 102.979 41.5611 100.189 51.3976Z" fill="#884016"/>
<mask id="mask2_261_4820" style="mask-type:luminance" maskUnits="userSpaceOnUse" x="17" y="44" width="94" height="158">
<path d="M100.189 51.3976C100.189 51.3976 116.667 121.753 107.383 191.665C105.502 205.837 28.6829 202.667 26.7248 194.871C15.8852 151.717 13.6644 65.723 25.8573 54.6215C40.121 41.634 102.979 41.5611 100.189 51.3976Z" fill="white"/>
</mask>
<g mask="url(#mask2_261_4820)">
<path fill-rule="evenodd" clip-rule="evenodd" d="M92.0981 48.6612C88.4237 49.7074 79.1149 61.234 77.8136 70.6391C76.5124 80.0442 103.893 207.666 67.7143 201.566C61.4541 200.51 110.603 207.295 114.075 199.295C117.548 191.296 109.696 100.194 108.335 79.742C106.973 59.2875 102.441 48.3007 98.7379 48.6487C95.0343 48.9946 95.7745 47.615 92.0981 48.6612Z" fill="#B25319"/>
</g>
<path fill-rule="evenodd" clip-rule="evenodd" d="M99.3336 34.2462C101.019 34.1649 102.503 36.5344 102.647 39.5312C102.791 42.528 101.54 45.0288 99.8549 45.108C98.17 45.1892 96.6853 42.8197 96.5414 39.8229C96.3954 36.8262 97.6466 34.3274 99.3336 34.2462Z" fill="#D4843B"/>
<path fill-rule="evenodd" clip-rule="evenodd" d="M103.144 66.2585C103.144 66.2585 100.481 62.9449 93.3925 64.0765C79.8754 66.2355 81.8752 86.7963 79.3687 87.4527C72.1555 89.3408 18.9065 95.0031 17.4718 89.3179C15.0216 79.6086 15.3949 70.5557 16.2436 63.7327C17.5678 53.0876 25.8736 50.618 35.8019 48.1318C52.0946 44.0472 89.3533 41.2213 97.5945 44.9892C105.832 48.757 103.144 66.2585 103.144 66.2585Z" fill="#603321"/>
<mask id="mask3_261_4820" style="mask-type:luminance" maskUnits="userSpaceOnUse" x="15" y="43" width="89" height="49">
<path d="M103.144 66.2585C103.144 66.2585 100.481 62.9449 93.3925 64.0765C79.8754 66.2355 81.8752 86.7963 79.3687 87.4527C72.1555 89.3408 18.9065 95.0031 17.4718 89.3179C15.0216 79.6086 15.3949 70.5557 16.2436 63.7327C17.5678 53.0876 25.8736 50.618 35.8019 48.1318C52.0946 44.0472 89.3533 41.2213 97.5945 44.9892C105.832 48.757 103.144 66.2585 103.144 66.2585Z" fill="white"/>
</mask>
<g mask="url(#mask3_261_4820)">
<path d="M103.859 44.2055C103.859 44.2055 88.3647 39.8771 78.8306 52.7895C70.2578 64.3974 72.9082 79.9691 72.9082 79.9691C55.4018 83.5202 36.7006 86.0898 19.1754 83.0034C19.1754 83.0034 17.8325 65.6166 20.5831 58.929C24.9685 48.2673 33.5476 45.9207 33.5476 45.9207" stroke="#BCBFCC" stroke-width="0.076" stroke-miterlimit="10" stroke-linecap="round" stroke-linejoin="round"/>
</g>
<path fill-rule="evenodd" clip-rule="evenodd" d="M134.728 168.816C134.007 168.612 133.408 168.314 132.968 167.916C128.768 164.104 109.35 88.826 110.234 82.7074C111.116 76.5909 111.126 72.9751 118.923 72.9022C121.824 72.8751 128.047 72.4229 131.112 77.7892C138.563 90.8392 147.296 116.316 152.595 135.285C160.492 136.122 168.062 137.45 168.062 137.45C169.683 134.614 184.03 141.976 179.219 150.15C176.285 155.133 153.271 165.736 144.988 168.833C140.498 170.513 137.241 170.625 134.728 168.816Z" fill="#EFE5B7"/>
<mask id="mask4_261_4820" style="mask-type:luminance" maskUnits="userSpaceOnUse" x="110" y="72" width="71" height="99">
<path d="M134.728 168.816C134.007 168.612 133.408 168.314 132.968 167.916C128.768 164.104 109.35 88.826 110.234 82.7074C111.116 76.5909 111.126 72.9751 118.923 72.9022C121.824 72.8751 128.047 72.4229 131.112 77.7892C138.563 90.8392 147.296 116.316 152.595 135.285C160.492 136.122 168.062 137.45 168.062 137.45C169.683 134.614 184.03 141.976 179.219 150.15C176.285 155.133 153.271 165.736 144.988 168.833C140.498 170.513 137.241 170.625 134.728 168.816Z" fill="white"/>
</mask>
<g mask="url(#mask4_261_4820)">
<path fill-rule="evenodd" clip-rule="evenodd" d="M111.006 77.985C111.006 77.985 130.741 154.908 137.733 159.474C144.725 164.04 182.395 146.13 182.395 146.13C182.395 146.13 177.042 161.089 167.958 166.426C158.872 171.763 131.617 182.871 126.422 171.917C121.226 160.966 101.409 79.2375 106.213 72.1561C111.016 65.0747 111.006 77.985 111.006 77.985Z" fill="#E6D37E"/>
</g>
<path fill-rule="evenodd" clip-rule="evenodd" d="M43.3198 133.495C42.6567 130.862 16.4065 134.457 16.8153 136.024L20.0287 167.655C27.0521 170.058 34.6949 168.939 43.7724 166.651C43.7724 166.651 43.5492 134.407 43.3198 133.495Z" fill="#A24C18"/>
<mask id="mask5_261_4820" style="mask-type:luminance" maskUnits="userSpaceOnUse" x="16" y="132" width="28" height="37">
<path d="M43.3198 133.495C42.6567 130.862 16.4065 134.457 16.8153 136.024L20.0287 167.655C27.0521 170.058 34.6949 168.939 43.7724 166.651C43.7724 166.651 43.5492 134.407 43.3198 133.495Z" fill="white"/>
</mask>
<g mask="url(#mask5_261_4820)">
<path fill-rule="evenodd" clip-rule="evenodd" d="M44.5107 132.225C41.5954 132.49 37.1433 134.153 36.8534 137.41C36.5635 140.668 39.6206 155.333 38.603 163.74C37.7209 171.023 33.863 170.11 35.4687 170.671C37.0723 171.23 43.7663 172.405 45.4804 167.041C47.1966 161.681 47.426 131.961 44.5107 132.225Z" fill="#BA571A"/>
</g>
<path fill-rule="evenodd" clip-rule="evenodd" d="M87.587 100.501C87.9957 97.8166 114.469 98.8836 114.213 100.482L114.046 132.278C107.283 135.341 99.5693 134.958 90.3146 133.549C90.3146 133.549 87.4473 101.432 87.587 100.501Z" fill="#A24C18"/>
<mask id="mask6_261_4820" style="mask-type:luminance" maskUnits="userSpaceOnUse" x="87" y="98" width="28" height="37">
<path d="M87.587 100.501C87.9957 97.8166 114.469 98.8836 114.213 100.482L114.046 132.278C107.283 135.341 99.5693 134.958 90.3146 133.549C90.3146 133.549 87.4473 101.432 87.587 100.501Z" fill="white"/>
</mask>
<g mask="url(#mask6_261_4820)">
<path fill-rule="evenodd" clip-rule="evenodd" d="M86.2818 99.3524C89.2096 99.3378 93.7994 100.565 94.4 103.783C95.0005 106.999 93.3635 121.889 95.1799 130.158C96.7543 137.325 100.508 136.047 98.9648 136.756C97.4216 137.467 90.8716 139.278 88.6507 134.103C86.4278 128.929 83.3539 99.367 86.2818 99.3524Z" fill="#8C4217"/>
</g>
<path fill-rule="evenodd" clip-rule="evenodd" d="M79.9214 131.498C79.2583 128.866 53.0081 132.461 53.4168 134.028L56.6303 165.659C63.6537 168.062 71.2965 166.943 80.3739 164.654C80.3739 164.654 80.1529 132.411 79.9214 131.498Z" fill="#A24C18"/>
<mask id="mask7_261_4820" style="mask-type:luminance" maskUnits="userSpaceOnUse" x="53" y="130" width="28" height="38">
<path d="M79.9214 131.498C79.2583 128.866 53.0081 132.461 53.4168 134.028L56.6303 165.659C63.6537 168.062 71.2965 166.943 80.3739 164.654C80.3739 164.654 80.1529 132.411 79.9214 131.498Z" fill="white"/>
</mask>
<g mask="url(#mask7_261_4820)">
<path fill-rule="evenodd" clip-rule="evenodd" d="M81.1123 130.229C78.1971 130.493 73.7448 132.156 73.4549 135.414C73.1651 138.671 76.2222 153.336 75.2046 161.743C74.3225 169.027 70.4646 168.114 72.0703 168.674C73.6739 169.233 80.3678 170.408 82.0841 165.044C83.8003 159.682 84.0297 129.964 81.1123 130.229Z" fill="#BA571A"/>
</g>
<path fill-rule="evenodd" clip-rule="evenodd" d="M43.4783 136.443C35.0181 134.363 35.4936 142.731 35.454 142.979C35.1641 144.796 17.2803 148.164 16.319 144.235C15.3785 140.39 16.0396 135.997 16.5942 134.539C17.9685 130.925 35.3122 129.545 40.6173 130.792C45.9245 132.038 43.4783 136.443 43.4783 136.443Z" fill="#DD671C"/>
<path fill-rule="evenodd" clip-rule="evenodd" d="M87.7122 103.452C95.9346 100.571 96.2621 108.945 96.3267 109.187C96.7876 110.968 114.913 112.609 115.493 108.605C116.06 104.687 114.982 100.378 114.29 98.9793C112.576 95.5136 95.1798 95.7991 90.0186 97.5496C84.8553 99.3002 87.7122 103.452 87.7122 103.452Z" fill="#DD671C"/>
<path fill-rule="evenodd" clip-rule="evenodd" d="M80.0819 134.445C71.6217 132.365 72.0971 140.732 72.0575 140.98C71.7697 142.797 53.8838 146.165 52.9225 142.237C51.982 138.392 52.643 133.999 53.1977 132.54C54.572 128.926 71.9136 127.547 77.2208 128.793C82.5279 130.039 80.0819 134.445 80.0819 134.445Z" fill="#DD671C"/>
<path fill-rule="evenodd" clip-rule="evenodd" d="M70.6961 86.4336C70.3395 88.4217 71.7972 121.122 71.7972 121.122L67.3721 121.334L66.9321 86.2773C66.9321 86.2773 71.0527 84.4455 70.6961 86.4336Z" fill="#603321"/>
<path fill-rule="evenodd" clip-rule="evenodd" d="M28.0592 88.4406C27.6985 90.335 29.2416 123.162 29.2416 123.162C27.4941 122.575 26.0343 122.722 24.7686 123.377L23.5903 87.9155C23.5903 87.9155 28.42 86.5484 28.0592 88.4406Z" fill="#603321"/>
<path fill-rule="evenodd" clip-rule="evenodd" d="M8.95343 172.651V172.64L98.5206 168.345L99.7488 193.935L10.1817 198.23V198.219C10.0566 198.234 9.93144 198.242 9.80632 198.249C4.74522 198.49 0.361846 192.955 0.0219362 185.895C-0.317973 178.832 3.51696 172.903 8.57598 172.661C8.7011 172.651 8.82831 172.649 8.95343 172.651Z" fill="#422B26"/>
<path fill-rule="evenodd" clip-rule="evenodd" d="M98.7708 168.331C103.832 168.089 108.215 173.624 108.555 180.685C108.895 187.745 105.06 193.676 100.001 193.918C94.9421 194.16 90.5567 188.625 90.2168 181.564C89.8769 174.506 93.7097 168.574 98.7708 168.331Z" fill="#A42F0D"/>
<mask id="mask8_261_4820" style="mask-type:luminance" maskUnits="userSpaceOnUse" x="90" y="168" width="19" height="26">
<path d="M98.7708 168.331C103.832 168.089 108.215 173.624 108.555 180.685C108.895 187.745 105.06 193.676 100.001 193.918C94.9421 194.16 90.5567 188.625 90.2168 181.564C89.8769 174.506 93.7097 168.574 98.7708 168.331Z" fill="white"/>
</mask>
<g mask="url(#mask8_261_4820)">
<path fill-rule="evenodd" clip-rule="evenodd" d="M96.2477 193.799C96.3395 193.822 96.4729 193.826 96.6439 193.799C96.9609 193.753 97.4321 193.612 97.9848 193.399C99.7907 192.709 102.456 191.273 103.267 190.227C105.275 187.637 105.826 184.319 105.953 181.118C106.017 179.486 106.017 177.882 105.44 176.331C104.602 174.085 102.8 171.915 100.335 171.467C98.7147 171.171 97.6178 171.769 96.2853 172.605C94.8735 173.493 92.0041 176.69 92.6234 181.666C93.0822 185.336 93.4679 187.833 97.0881 189.679C99.138 190.725 101.461 189.362 102.487 187.547C102.8 186.993 104.305 183.175 104.076 179.843C103.92 177.563 102.96 175.51 100.331 174.814C99.726 174.654 99.1254 174.789 98.5791 175.087C97.8033 175.512 97.136 176.273 96.7169 176.923C95.1821 179.311 95.1049 183.331 97.0047 185.582C97.6949 186.399 98.7334 186.78 99.6134 186.562C100.214 186.411 100.748 185.991 101.059 185.23C101.501 184.144 101.257 182.762 101.017 181.66C100.99 181.535 100.867 181.456 100.74 181.483C100.614 181.51 100.535 181.633 100.562 181.758C100.783 182.777 101.036 184.05 100.627 185.053C100.383 185.651 99.9721 185.993 99.5008 186.109C98.7751 186.291 97.9285 185.955 97.3592 185.282C95.5804 183.177 95.6722 179.411 97.109 177.175C97.4906 176.581 98.0953 175.883 98.8022 175.498C99.2422 175.256 99.724 175.137 100.21 175.266C102.612 175.902 103.467 177.794 103.609 179.878C103.83 183.098 102.381 186.785 102.078 187.322C101.167 188.937 99.1192 190.2 97.2966 189.271C93.8475 187.512 93.518 185.111 93.0822 181.614C92.492 176.89 95.1883 173.847 96.5292 173.003C97.7554 172.234 98.7564 171.657 100.247 171.928C102.552 172.347 104.216 174.395 105 176.498C105.557 177.988 105.546 179.532 105.484 181.104C105.361 184.209 104.843 187.433 102.894 189.946C102.114 190.95 99.5446 192.305 97.8117 192.97C97.3717 193.137 96.9859 193.262 96.6982 193.32C96.5459 193.351 96.4292 193.368 96.3562 193.351C96.231 193.32 96.1059 193.395 96.0746 193.52C96.0475 193.643 96.1247 193.768 96.2477 193.799Z" fill="#6A1F0D"/>
</g>
<path fill-rule="evenodd" clip-rule="evenodd" d="M34.3215 197.732C33.6396 197.974 32.9243 198.12 32.1861 198.155C26.6725 198.42 21.9013 192.464 21.5364 184.861C21.1714 177.259 25.3504 170.871 30.864 170.609C31.8984 170.559 32.9077 170.73 33.8669 171.088C29.4502 172.661 26.3576 178.334 26.6746 184.917C26.9686 191.09 30.1738 196.179 34.3215 197.732Z" fill="#884016"/>
<path fill-rule="evenodd" clip-rule="evenodd" d="M79.0496 195.585C78.3677 195.829 77.6524 195.973 76.9142 196.008C71.4006 196.273 66.6293 190.317 66.2644 182.714C65.8994 175.112 70.0785 168.727 75.5921 168.46C76.6285 168.412 77.6358 168.581 78.595 168.939C74.1783 170.513 71.0857 176.185 71.4027 182.769C71.6988 188.944 74.9039 194.033 79.0496 195.585Z" fill="#884016"/>
<path fill-rule="evenodd" clip-rule="evenodd" d="M177.21 132.921C177.21 132.921 180.234 131.238 182.076 136.948C183.915 142.658 181.356 145.849 181.967 146.08C182.578 146.311 183.168 147.891 183.356 146.961C183.542 146.032 186.188 140.153 184.634 136.537C183.081 132.924 181.894 130.4 180.545 130.439C178.578 130.5 177.21 132.921 177.21 132.921Z" fill="#422B26"/>
</svg>
