<svg width="1159" height="747" viewBox="0 0 1159 747" fill="none" xmlns="http://www.w3.org/2000/svg">
<g opacity="0.92">
<path fill-rule="evenodd" clip-rule="evenodd" d="M853.858 214.804C889.881 175.254 902.721 160.594 910.947 162.239C934.013 166.849 992.791 236.769 1001.33 226.011C1009.87 215.255 1084.04 152.504 1113.15 122.381C1134.94 99.838 1173.84 64.2587 1203.49 39.5901C1236.97 11.7431 1260.34 -3.6603 1265.64 1.9091C1288.17 25.5808 1274.45 948.073 1274.45 948.073C1274.45 948.073 -44.9495 847.33 1.18212 807.074C47.3138 766.819 579.02 354.526 590.317 344.052C596.8 338.043 612.781 355.607 632.052 372.28C633.901 373.881 644.167 368.366 646.007 369.941C658.399 380.556 665.13 396.606 673.119 398.886C679.595 400.736 701.621 379.629 729.886 349.33C731.615 346.403 733.44 343.295 735.32 340.063C745.704 322.21 791.809 267.007 794.303 262.441C796.794 257.876 804.858 244.28 804.858 244.28C808.018 239.017 816.178 242.002 818.597 242.402C823.377 243.194 828.263 231.538 831.488 226.211C841.785 209.197 846.29 214.409 853.858 214.804Z" fill="#5799C9"/>
<mask id="mask0_2_6696" style="mask-type:luminance" maskUnits="userSpaceOnUse" x="0" y="0" width="1279" height="949">
<path d="M853.858 214.804C889.881 175.254 902.721 160.594 910.947 162.239C934.013 166.849 992.791 236.769 1001.33 226.011C1009.87 215.255 1084.04 152.504 1113.15 122.381C1134.94 99.838 1173.84 64.2587 1203.49 39.5901C1236.97 11.7431 1260.34 -3.6603 1265.64 1.9091C1288.17 25.5808 1274.45 948.073 1274.45 948.073C1274.45 948.073 -44.9495 847.33 1.18212 807.074C47.3138 766.819 579.02 354.526 590.317 344.052C596.8 338.043 612.781 355.607 632.052 372.28C633.901 373.881 644.167 368.366 646.007 369.941C658.399 380.556 665.13 396.606 673.119 398.886C679.595 400.736 701.621 379.629 729.886 349.33C731.615 346.403 733.44 343.295 735.32 340.063C745.704 322.21 791.809 267.007 794.303 262.441C796.794 257.876 804.858 244.28 804.858 244.28C808.018 239.017 816.178 242.002 818.597 242.402C823.377 243.194 828.263 231.538 831.488 226.211C841.785 209.197 846.29 214.409 853.858 214.804Z" fill="white"/>
</mask>
<g mask="url(#mask0_2_6696)">
<path fill-rule="evenodd" clip-rule="evenodd" d="M1091.66 84.1477L1265.64 1.90912L1089.58 222.579L1124.59 228.223L970.848 432.279L947.309 492.08V517.127L833.866 615.35L898.552 492.08L927.471 405.382L894.696 371.664L969.883 283.038L1000.44 226.759L1091.66 84.1477Z" fill="#4E89B5"/>
</g>
<mask id="mask1_2_6696" style="mask-type:luminance" maskUnits="userSpaceOnUse" x="0" y="0" width="1279" height="949">
<path d="M853.858 214.804C889.881 175.254 902.721 160.594 910.947 162.239C934.013 166.849 992.791 236.769 1001.33 226.011C1009.87 215.255 1084.04 152.504 1113.15 122.381C1134.94 99.838 1173.84 64.2587 1203.49 39.5901C1236.97 11.7431 1260.34 -3.6603 1265.64 1.9091C1288.17 25.5808 1274.45 948.073 1274.45 948.073C1274.45 948.073 -44.9495 847.33 1.18212 807.074C47.3138 766.819 579.02 354.526 590.317 344.052C596.8 338.043 612.781 355.607 632.052 372.28C633.901 373.881 644.167 368.366 646.007 369.941C658.399 380.556 665.13 396.606 673.119 398.886C679.595 400.736 701.621 379.629 729.886 349.33C731.615 346.403 733.44 343.295 735.32 340.063C745.704 322.21 791.809 267.007 794.303 262.441C796.794 257.876 804.858 244.28 804.858 244.28C808.018 239.017 816.178 242.002 818.597 242.402C823.377 243.194 828.263 231.538 831.488 226.211C841.785 209.197 846.29 214.409 853.858 214.804Z" fill="white"/>
</mask>
<g mask="url(#mask1_2_6696)">
<path fill-rule="evenodd" clip-rule="evenodd" d="M721.24 287.714L900.495 154.716L910.912 162.232L808.643 310.756H827.917L791.776 351.133L768.48 387.258L731.53 441.847L696.184 480.584L576.496 591.163L648.792 448.27L651.201 412.947L592.483 342.945L692.063 352.833L721.24 287.714Z" fill="#4E89B5"/>
</g>
<mask id="mask2_2_6696" style="mask-type:luminance" maskUnits="userSpaceOnUse" x="0" y="0" width="1279" height="949">
<path d="M853.858 214.804C889.881 175.254 902.721 160.594 910.947 162.239C934.013 166.849 992.791 236.769 1001.33 226.011C1009.87 215.255 1084.04 152.504 1113.15 122.381C1134.94 99.838 1173.84 64.2587 1203.49 39.5901C1236.97 11.7431 1260.34 -3.6603 1265.64 1.9091C1288.17 25.5808 1274.45 948.073 1274.45 948.073C1274.45 948.073 -44.9495 847.33 1.18212 807.074C47.3138 766.819 579.02 354.526 590.317 344.052C596.8 338.043 612.781 355.607 632.052 372.28C633.901 373.881 644.167 368.366 646.007 369.941C658.399 380.556 665.13 396.606 673.119 398.886C679.595 400.736 701.621 379.629 729.886 349.33C731.615 346.403 733.44 343.295 735.32 340.063C745.704 322.21 791.809 267.007 794.303 262.441C796.794 257.876 804.858 244.28 804.858 244.28C808.018 239.017 816.178 242.002 818.597 242.402C823.377 243.194 828.263 231.538 831.488 226.211C841.785 209.197 846.29 214.409 853.858 214.804Z" fill="white"/>
</mask>
<g mask="url(#mask2_2_6696)">
<path fill-rule="evenodd" clip-rule="evenodd" d="M897.933 128.275L944.58 184.799L869.021 299.401L903.123 308.628L883.849 337.183L825.703 512.291L619.045 551.853C619.045 551.853 648.204 456.729 666.532 448.395C684.859 440.06 755.283 354.869 766.403 340.98C777.52 327.088 790.266 247.031 798.255 230.574C806.246 214.115 897.933 128.275 897.933 128.275Z" fill="#57A4DA"/>
</g>
<mask id="mask3_2_6696" style="mask-type:luminance" maskUnits="userSpaceOnUse" x="0" y="0" width="1279" height="949">
<path d="M853.858 214.804C889.881 175.254 902.721 160.594 910.947 162.239C934.013 166.849 992.791 236.769 1001.33 226.011C1009.87 215.255 1084.04 152.504 1113.15 122.381C1134.94 99.838 1173.84 64.2587 1203.49 39.5901C1236.97 11.7431 1260.34 -3.6603 1265.64 1.9091C1288.17 25.5808 1274.45 948.073 1274.45 948.073C1274.45 948.073 -44.9495 847.33 1.18212 807.074C47.3138 766.819 579.02 354.526 590.317 344.052C596.8 338.043 612.781 355.607 632.052 372.28C633.901 373.881 644.167 368.366 646.007 369.941C658.399 380.556 665.13 396.606 673.119 398.886C679.595 400.736 701.621 379.629 729.886 349.33C731.615 346.403 733.44 343.295 735.32 340.063C745.704 322.21 791.809 267.007 794.303 262.441C796.794 257.876 804.858 244.28 804.858 244.28C808.018 239.017 816.178 242.002 818.597 242.402C823.377 243.194 828.263 231.538 831.488 226.211C841.785 209.197 846.29 214.409 853.858 214.804Z" fill="white"/>
</mask>
<g mask="url(#mask3_2_6696)">
<path fill-rule="evenodd" clip-rule="evenodd" d="M1143.68 9.98932C1159.13 9.98932 1265.64 0.999268 1265.64 0.999268L1177.47 185.544C1177.47 185.544 1182.29 219.304 1189.05 234.738C1195.8 250.172 1170.71 283.167 1162.02 308.628C1153.33 334.091 1113.76 459.682 1108.93 474.535C1104.11 489.391 944.58 650.478 944.58 650.478L859.812 565.907C859.812 565.907 911.067 512.54 922.65 482.639C934.232 452.737 937.127 352.786 969.944 340.063C1002.76 327.339 1049.75 279.11 1049.75 279.11C1049.75 279.11 1045.59 253.066 1049.75 234.738C1053.92 216.412 1143.72 92.4254 1143.72 92.4254C1143.72 92.4254 1142.53 86.0708 1141.13 76.8927C1137.51 53.007 1132.53 9.98932 1143.68 9.98932Z" fill="#57A4DA"/>
</g>
<mask id="mask4_2_6696" style="mask-type:luminance" maskUnits="userSpaceOnUse" x="0" y="0" width="1279" height="949">
<path d="M853.858 214.804C889.881 175.254 902.721 160.594 910.947 162.239C934.013 166.849 992.791 236.769 1001.33 226.011C1009.87 215.255 1084.04 152.504 1113.15 122.381C1134.94 99.838 1173.84 64.2587 1203.49 39.5901C1236.97 11.7431 1260.34 -3.6603 1265.64 1.9091C1288.17 25.5808 1274.45 948.073 1274.45 948.073C1274.45 948.073 -44.9495 847.33 1.18212 807.074C47.3138 766.819 579.02 354.526 590.317 344.052C596.8 338.043 612.781 355.607 632.052 372.28C633.901 373.881 644.167 368.366 646.007 369.941C658.399 380.556 665.13 396.606 673.119 398.886C679.595 400.736 701.621 379.629 729.886 349.33C731.615 346.403 733.44 343.295 735.32 340.063C745.704 322.21 791.809 267.007 794.303 262.441C796.794 257.876 804.858 244.28 804.858 244.28C808.018 239.017 816.178 242.002 818.597 242.402C823.377 243.194 828.263 231.538 831.488 226.211C841.785 209.197 846.29 214.409 853.858 214.804Z" fill="white"/>
</mask>
<g mask="url(#mask4_2_6696)">
<path fill-rule="evenodd" clip-rule="evenodd" d="M390.008 454.253C416.364 436.146 592.483 342.945 592.483 342.945C592.483 342.945 560.504 413.92 548.972 420.505C537.441 427.09 515.203 446.023 515.203 446.023L534.971 474.535C534.971 474.535 514.38 497.88 501.201 509.402C488.023 520.926 329.881 660.857 329.881 660.857C329.881 660.857 227.749 628.285 230.222 615.35C232.692 602.415 363.651 472.363 390.008 454.253Z" fill="#57A4DA"/>
</g>
<path fill-rule="evenodd" clip-rule="evenodd" d="M123.371 776.47C161.213 763.535 607.269 454.263 636.957 482.229C657.228 501.324 692.933 520.691 718.13 518.006C754.622 492.976 815.804 422.226 830.121 433.485C856.685 454.373 1261.89 968.218 1226.21 939.812C1205.55 923.374 50.1602 975.513 50.1602 975.513C50.1602 975.513 85.5293 789.407 123.371 776.47Z" fill="#4782AF"/>
<mask id="mask5_2_6696" style="mask-type:luminance" maskUnits="userSpaceOnUse" x="50" y="432" width="1179" height="544">
<path d="M123.371 776.47C161.213 763.535 607.269 454.263 636.957 482.229C657.228 501.324 692.933 520.691 718.13 518.006C754.622 492.976 815.804 422.226 830.121 433.485C856.685 454.373 1261.89 968.218 1226.21 939.812C1205.55 923.374 50.1602 975.513 50.1602 975.513C50.1602 975.513 85.5293 789.407 123.371 776.47Z" fill="white"/>
</mask>
<g mask="url(#mask5_2_6696)">
<path fill-rule="evenodd" clip-rule="evenodd" d="M689.854 513.991L718.13 518.006L720.426 650.56V684.971L711.972 718.404L679.545 764.181L612.637 825.906L683.665 730.234L688.297 703.896L677.487 678.8L704.251 622.734L654.327 642.795L700.134 575.414L687.685 545.534L644.762 528.442L631.153 480.445L689.854 513.991Z" fill="#40759E"/>
</g>
<mask id="mask6_2_6696" style="mask-type:luminance" maskUnits="userSpaceOnUse" x="50" y="432" width="1179" height="544">
<path d="M123.371 776.47C161.213 763.535 607.269 454.263 636.957 482.229C657.228 501.324 692.933 520.691 718.13 518.006C754.622 492.976 815.804 422.226 830.121 433.485C856.685 454.373 1261.89 968.218 1226.21 939.812C1205.55 923.374 50.1602 975.513 50.1602 975.513C50.1602 975.513 85.5293 789.407 123.371 776.47Z" fill="white"/>
</mask>
<g mask="url(#mask6_2_6696)">
<path fill-rule="evenodd" clip-rule="evenodd" d="M326.482 615.35C346.25 614.593 537.335 496.065 556.004 492.771C574.673 489.48 631.779 474.535 631.779 474.535L557.103 583.863L581.262 592.644L573.574 615.35L576.87 660.857L524.156 763.852L398.963 922.988C398.963 922.988 381.391 704.587 367.116 687.028C352.839 669.469 306.714 616.107 326.482 615.35Z" fill="#4D8CBB"/>
</g>
<mask id="mask7_2_6696" style="mask-type:luminance" maskUnits="userSpaceOnUse" x="50" y="432" width="1179" height="544">
<path d="M123.371 776.47C161.213 763.535 607.269 454.263 636.957 482.229C657.228 501.324 692.933 520.691 718.13 518.006C754.622 492.976 815.804 422.226 830.121 433.485C856.685 454.373 1261.89 968.218 1226.21 939.812C1205.55 923.374 50.1602 975.513 50.1602 975.513C50.1602 975.513 85.5293 789.407 123.371 776.47Z" fill="white"/>
</mask>
<g mask="url(#mask7_2_6696)">
<path fill-rule="evenodd" clip-rule="evenodd" d="M917.101 474.535C899.321 457.653 845.81 412.707 833.866 423.16C821.923 433.612 808.328 475.421 815.649 489.01C822.97 502.598 835.52 524.805 810.42 551.853C785.316 578.898 757.077 640.568 757.077 640.568L810.42 615.35C810.42 615.35 749.757 724.187 728.839 748.226C707.921 772.266 682.82 807.803 672.361 838.117C661.902 868.43 635.754 968.771 648.305 957.272C660.855 945.774 875.265 851.705 892 853.795C908.733 855.885 1014.37 775.403 1007.05 759.724C999.726 744.046 934.881 491.419 917.101 474.535Z" fill="#4D8CBB"/>
</g>
</g>
</svg>
