<svg width="1134" height="865" viewBox="0 0 1134 865" fill="none" xmlns="http://www.w3.org/2000/svg">
<g opacity="0.92">
<path fill-rule="evenodd" clip-rule="evenodd" d="M756.902 189.722C788.835 154.663 800.216 141.668 807.509 143.126C827.956 147.213 880.06 209.193 887.63 199.657C895.201 190.123 960.946 134.497 986.756 107.794C1006.07 87.8108 1040.55 56.2715 1066.84 34.4041C1096.51 9.7191 1117.23 -3.93526 1121.93 1.00173C1141.9 21.9855 1129.74 839.728 1129.74 839.728C1129.74 839.728 -39.8455 750.425 1.04789 714.74C41.9413 679.056 513.273 313.579 523.286 304.295C529.033 298.968 543.199 314.537 560.282 329.317C561.921 330.736 571.022 325.847 572.652 327.244C583.638 336.653 589.604 350.88 596.686 352.902C602.427 354.542 621.952 335.832 647.007 308.973C648.54 306.379 650.158 303.624 651.824 300.758C661.029 284.932 701.899 235.998 704.11 231.951C706.318 227.903 713.467 215.852 713.467 215.852C716.267 211.186 723.501 213.832 725.645 214.187C729.882 214.889 734.214 204.556 737.073 199.834C746.2 184.752 750.193 189.372 756.902 189.722Z" fill="#5799C9"/>
<mask id="mask0_261_3359" style="mask-type:luminance" maskUnits="userSpaceOnUse" x="0" y="0" width="1134" height="840">
<path d="M756.902 189.722C788.835 154.663 800.216 141.668 807.509 143.126C827.956 147.213 880.06 209.193 887.63 199.657C895.201 190.123 960.946 134.497 986.756 107.794C1006.07 87.8108 1040.55 56.2715 1066.84 34.4041C1096.51 9.7191 1117.23 -3.93526 1121.93 1.00173C1141.9 21.9855 1129.74 839.728 1129.74 839.728C1129.74 839.728 -39.8455 750.425 1.04789 714.74C41.9413 679.056 513.273 313.579 523.286 304.295C529.033 298.968 543.199 314.537 560.282 329.317C561.921 330.736 571.022 325.847 572.652 327.244C583.638 336.653 589.604 350.88 596.686 352.902C602.427 354.542 621.952 335.832 647.007 308.973C648.54 306.379 650.158 303.624 651.824 300.758C661.029 284.932 701.899 235.998 704.11 231.951C706.318 227.903 713.467 215.852 713.467 215.852C716.267 211.186 723.501 213.832 725.645 214.187C729.882 214.889 734.214 204.556 737.073 199.834C746.2 184.752 750.193 189.372 756.902 189.722Z" fill="white"/>
</mask>
<g mask="url(#mask0_261_3359)">
<path fill-rule="evenodd" clip-rule="evenodd" d="M967.698 73.9021L1121.93 1.00171L965.856 196.614L996.897 201.618L860.608 382.503L839.742 435.514V457.716L739.181 544.786L796.521 435.514L822.156 358.66L793.103 328.771L859.752 250.208L886.843 200.32L967.698 73.9021Z" fill="#4E89B5"/>
</g>
<mask id="mask1_261_3359" style="mask-type:luminance" maskUnits="userSpaceOnUse" x="0" y="0" width="1134" height="840">
<path d="M756.902 189.722C788.835 154.663 800.216 141.668 807.509 143.126C827.956 147.213 880.06 209.193 887.63 199.657C895.201 190.123 960.946 134.497 986.756 107.794C1006.07 87.8108 1040.55 56.2715 1066.84 34.4041C1096.51 9.7191 1117.23 -3.93526 1121.93 1.00173C1141.9 21.9855 1129.74 839.728 1129.74 839.728C1129.74 839.728 -39.8455 750.425 1.04789 714.74C41.9413 679.056 513.273 313.579 523.286 304.295C529.033 298.968 543.199 314.537 560.282 329.317C561.921 330.736 571.022 325.847 572.652 327.244C583.638 336.653 589.604 350.88 596.686 352.902C602.427 354.542 621.952 335.832 647.007 308.973C648.54 306.379 650.158 303.624 651.824 300.758C661.029 284.932 701.899 235.998 704.11 231.951C706.318 227.903 713.467 215.852 713.467 215.852C716.267 211.186 723.501 213.832 725.645 214.187C729.882 214.889 734.214 204.556 737.073 199.834C746.2 184.752 750.193 189.372 756.902 189.722Z" fill="white"/>
</mask>
<g mask="url(#mask1_261_3359)">
<path fill-rule="evenodd" clip-rule="evenodd" d="M639.343 254.354L798.244 136.458L807.478 143.12L716.822 274.779H733.907L701.87 310.572L681.219 342.594L648.465 390.985L617.133 425.323L511.035 523.346L575.121 396.678L577.257 365.366L525.207 303.313L613.479 312.078L639.343 254.354Z" fill="#4E89B5"/>
</g>
<mask id="mask2_261_3359" style="mask-type:luminance" maskUnits="userSpaceOnUse" x="0" y="0" width="1134" height="840">
<path d="M756.902 189.722C788.835 154.663 800.216 141.668 807.509 143.126C827.956 147.213 880.06 209.193 887.63 199.657C895.201 190.123 960.946 134.497 986.756 107.794C1006.07 87.8108 1040.55 56.2715 1066.84 34.4041C1096.51 9.7191 1117.23 -3.93526 1121.93 1.00173C1141.9 21.9855 1129.74 839.728 1129.74 839.728C1129.74 839.728 -39.8455 750.425 1.04789 714.74C41.9413 679.056 513.273 313.579 523.286 304.295C529.033 298.968 543.199 314.537 560.282 329.317C561.921 330.736 571.022 325.847 572.652 327.244C583.638 336.653 589.604 350.88 596.686 352.902C602.427 354.542 621.952 335.832 647.007 308.973C648.54 306.379 650.158 303.624 651.824 300.758C661.029 284.932 701.899 235.998 704.11 231.951C706.318 227.903 713.467 215.852 713.467 215.852C716.267 211.186 723.501 213.832 725.645 214.187C729.882 214.889 734.214 204.556 737.073 199.834C746.2 184.752 750.193 189.372 756.902 189.722Z" fill="white"/>
</mask>
<g mask="url(#mask2_261_3359)">
<path fill-rule="evenodd" clip-rule="evenodd" d="M795.973 113.019L837.323 163.124L770.344 264.713L800.573 272.893L783.488 298.205L731.945 453.43L548.752 488.499C548.752 488.499 574.6 404.177 590.847 396.789C607.094 389.401 669.52 313.883 679.378 301.571C689.233 289.256 700.531 218.29 707.613 203.702C714.697 189.112 795.973 113.019 795.973 113.019Z" fill="#57A4DA"/>
</g>
<mask id="mask3_261_3359" style="mask-type:luminance" maskUnits="userSpaceOnUse" x="0" y="0" width="1134" height="840">
<path d="M756.902 189.722C788.835 154.663 800.216 141.668 807.509 143.126C827.956 147.213 880.06 209.193 887.63 199.657C895.201 190.123 960.946 134.497 986.756 107.794C1006.07 87.8108 1040.55 56.2715 1066.84 34.4041C1096.51 9.7191 1117.23 -3.93526 1121.93 1.00173C1141.9 21.9855 1129.74 839.728 1129.74 839.728C1129.74 839.728 -39.8455 750.425 1.04789 714.74C41.9413 679.056 513.273 313.579 523.286 304.295C529.033 298.968 543.199 314.537 560.282 329.317C561.921 330.736 571.022 325.847 572.652 327.244C583.638 336.653 589.604 350.88 596.686 352.902C602.427 354.542 621.952 335.832 647.007 308.973C648.54 306.379 650.158 303.624 651.824 300.758C661.029 284.932 701.899 235.998 704.11 231.951C706.318 227.903 713.467 215.852 713.467 215.852C716.267 211.186 723.501 213.832 725.645 214.187C729.882 214.889 734.214 204.556 737.073 199.834C746.2 184.752 750.193 189.372 756.902 189.722Z" fill="white"/>
</mask>
<g mask="url(#mask3_261_3359)">
<path fill-rule="evenodd" clip-rule="evenodd" d="M1013.82 8.16454C1027.51 8.16454 1121.93 0.195312 1121.93 0.195312L1043.76 163.785C1043.76 163.785 1048.04 193.711 1054.03 207.393C1060.02 221.074 1037.78 250.323 1030.07 272.893C1022.37 295.465 987.294 406.794 983.015 419.961C978.738 433.13 837.323 575.925 837.323 575.925L762.18 500.958C762.18 500.958 807.615 453.651 817.883 427.144C828.149 400.638 830.716 312.037 859.807 300.758C888.899 289.48 930.554 246.726 930.554 246.726C930.554 246.726 926.863 223.64 930.554 207.393C934.245 191.148 1013.85 81.24 1013.85 81.24C1013.85 81.24 1012.79 75.607 1011.56 67.471C1008.34 46.2976 1003.93 8.16454 1013.82 8.16454Z" fill="#57A4DA"/>
</g>
<mask id="mask4_261_3359" style="mask-type:luminance" maskUnits="userSpaceOnUse" x="0" y="0" width="1134" height="840">
<path d="M756.902 189.722C788.835 154.663 800.216 141.668 807.509 143.126C827.956 147.213 880.06 209.193 887.63 199.657C895.201 190.123 960.946 134.497 986.756 107.794C1006.07 87.8108 1040.55 56.2715 1066.84 34.4041C1096.51 9.7191 1117.23 -3.93526 1121.93 1.00173C1141.9 21.9855 1129.74 839.728 1129.74 839.728C1129.74 839.728 -39.8455 750.425 1.04789 714.74C41.9413 679.056 513.273 313.579 523.286 304.295C529.033 298.968 543.199 314.537 560.282 329.317C561.921 330.736 571.022 325.847 572.652 327.244C583.638 336.653 589.604 350.88 596.686 352.902C602.427 354.542 621.952 335.832 647.007 308.973C648.54 306.379 650.158 303.624 651.824 300.758C661.029 284.932 701.899 235.998 704.11 231.951C706.318 227.903 713.467 215.852 713.467 215.852C716.267 211.186 723.501 213.832 725.645 214.187C729.882 214.889 734.214 204.556 737.073 199.834C746.2 184.752 750.193 189.372 756.902 189.722Z" fill="white"/>
</mask>
<g mask="url(#mask4_261_3359)">
<path fill-rule="evenodd" clip-rule="evenodd" d="M345.722 401.982C369.086 385.931 525.207 303.313 525.207 303.313C525.207 303.313 496.859 366.229 486.637 372.066C476.414 377.904 456.702 394.686 456.702 394.686L474.225 419.961C474.225 419.961 455.972 440.655 444.29 450.869C432.608 461.084 292.423 585.126 292.423 585.126C292.423 585.126 201.888 556.252 204.08 544.786C206.27 533.32 322.358 418.035 345.722 401.982Z" fill="#57A4DA"/>
</g>
<path fill-rule="evenodd" clip-rule="evenodd" d="M109.362 687.611C142.907 676.145 538.313 401.99 564.63 426.782C582.6 443.708 614.251 460.876 636.587 458.496C668.934 436.308 723.17 373.592 735.861 383.572C759.409 402.088 1118.61 857.586 1086.97 832.405C1068.66 817.834 44.4646 864.053 44.4646 864.053C44.4646 864.053 75.8176 699.079 109.362 687.611Z" fill="#4782AF"/>
<mask id="mask5_261_3359" style="mask-type:luminance" maskUnits="userSpaceOnUse" x="44" y="382" width="1045" height="483">
<path d="M109.362 687.611C142.907 676.145 538.313 401.99 564.63 426.782C582.6 443.708 614.251 460.876 636.587 458.496C668.934 436.308 723.17 373.592 735.861 383.572C759.409 402.088 1118.61 857.586 1086.97 832.405C1068.66 817.834 44.4646 864.053 44.4646 864.053C44.4646 864.053 75.8176 699.079 109.362 687.611Z" fill="white"/>
</mask>
<g mask="url(#mask5_261_3359)">
<path fill-rule="evenodd" clip-rule="evenodd" d="M611.521 454.937L636.587 458.496L638.622 575.998V606.502L631.127 636.138L602.383 676.718L543.072 731.433L606.034 646.625L610.14 623.278L600.558 601.031L624.283 551.332L580.028 569.115L620.634 509.385L609.598 482.898L571.549 467.747L559.486 425.2L611.521 454.937Z" fill="#40759E"/>
</g>
<mask id="mask6_261_3359" style="mask-type:luminance" maskUnits="userSpaceOnUse" x="44" y="382" width="1045" height="483">
<path d="M109.362 687.611C142.907 676.145 538.313 401.99 564.63 426.782C582.6 443.708 614.251 460.876 636.587 458.496C668.934 436.308 723.17 373.592 735.861 383.572C759.409 402.088 1118.61 857.586 1086.97 832.405C1068.66 817.834 44.4646 864.053 44.4646 864.053C44.4646 864.053 75.8176 699.079 109.362 687.611Z" fill="white"/>
</mask>
<g mask="url(#mask6_261_3359)">
<path fill-rule="evenodd" clip-rule="evenodd" d="M289.41 544.786C306.933 544.115 476.32 439.046 492.87 436.126C509.419 433.209 560.04 419.961 560.04 419.961L493.843 516.875L515.26 524.659L508.445 544.786L511.366 585.126L464.638 676.426L353.661 817.492C353.661 817.492 338.084 623.89 325.43 608.325C312.774 592.76 271.887 545.457 289.41 544.786Z" fill="#4D8CBB"/>
</g>
<mask id="mask7_261_3359" style="mask-type:luminance" maskUnits="userSpaceOnUse" x="44" y="382" width="1045" height="483">
<path d="M109.362 687.611C142.907 676.145 538.313 401.99 564.63 426.782C582.6 443.708 614.251 460.876 636.587 458.496C668.934 436.308 723.17 373.592 735.861 383.572C759.409 402.088 1118.61 857.586 1086.97 832.405C1068.66 817.834 44.4646 864.053 44.4646 864.053C44.4646 864.053 75.8176 699.079 109.362 687.611Z" fill="white"/>
</mask>
<g mask="url(#mask7_261_3359)">
<path fill-rule="evenodd" clip-rule="evenodd" d="M812.964 419.961C797.203 404.996 749.768 365.154 739.181 374.419C728.594 383.685 716.542 420.746 723.032 432.792C729.522 444.837 740.647 464.523 718.396 488.499C696.144 512.474 671.111 567.141 671.111 567.141L718.396 544.786C718.396 544.786 664.622 641.265 646.079 662.574C627.536 683.885 605.286 715.387 596.014 742.258C586.743 769.129 563.565 858.076 574.69 847.883C585.815 837.69 775.879 754.303 790.714 756.156C805.547 758.008 899.189 686.665 892.697 672.767C886.207 658.868 828.725 434.928 812.964 419.961Z" fill="#4D8CBB"/>
</g>
</g>
</svg>
