<svg width="506" height="447" viewBox="0 0 506 447" fill="none" xmlns="http://www.w3.org/2000/svg">
<path fill-rule="evenodd" clip-rule="evenodd" d="M2.57015 608.596C40.0081 568.75 174.785 298.972 206.234 297.672C237.681 296.373 263.139 333.181 281.11 318.518C299.079 303.857 323.305 265.397 339.514 244.932C355.807 224.359 392.45 181.655 405.913 167.699C420.235 152.85 449.205 180.801 469.799 199.096C469.799 199.096 506.772 149.112 551.93 113.194C597.088 77.276 633.63 -18.5234 642.613 4.15679C651.599 26.8391 740.851 540.316 739.354 558.274C737.857 576.232 718.39 660.04 661.483 636.094C604.577 612.149 -34.8699 648.442 2.57015 608.596Z" fill="#744058"/>
</svg>
