<svg width="1061" height="686" viewBox="0 0 1061 686" fill="none" xmlns="http://www.w3.org/2000/svg">
<path fill-rule="evenodd" clip-rule="evenodd" d="M484.001 287.489L891.18 340.812L1060.37 382.035L1060.75 473.477L1041.69 607.612L975.45 685.31L513.115 643.329L484.001 287.489Z" fill="#773F5B"/>
<mask id="mask0_261_4113" style="mask-type:luminance" maskUnits="userSpaceOnUse" x="484" y="287" width="577" height="399">
<path d="M484.001 287.489L891.18 340.812L1060.37 382.035L1060.75 473.477L1041.69 607.612L975.45 685.31L513.115 643.329L484.001 287.489Z" fill="white"/>
</mask>
<g mask="url(#mask0_261_4113)">
<path fill-rule="evenodd" clip-rule="evenodd" d="M1017.73 705.868L1063.13 519.717L1088.85 447.561L1059.26 371.409L1060.37 382.035L929.522 392.291L886.519 465.093L841.676 485.962L813.39 501.79L776.136 555.568L723.702 693.46L1017.73 705.868Z" fill="#592A46"/>
</g>
<mask id="mask1_261_4113" style="mask-type:luminance" maskUnits="userSpaceOnUse" x="484" y="287" width="577" height="399">
<path d="M484.001 287.489L891.18 340.812L1060.37 382.035L1060.75 473.477L1041.69 607.612L975.45 685.31L513.115 643.329L484.001 287.489Z" fill="white"/>
</mask>
<g mask="url(#mask1_261_4113)">
<path fill-rule="evenodd" clip-rule="evenodd" d="M1079.85 582.254L1060.75 473.477L951.782 530.145L923.773 612.955L943.532 694.558L1047.74 685.31L1079.85 582.254Z" fill="#512741"/>
</g>
<mask id="mask2_261_4113" style="mask-type:luminance" maskUnits="userSpaceOnUse" x="484" y="287" width="577" height="399">
<path d="M484.001 287.489L891.18 340.812L1060.37 382.035L1060.75 473.477L1041.69 607.612L975.45 685.31L513.115 643.329L484.001 287.489Z" fill="white"/>
</mask>
<g mask="url(#mask2_261_4113)">
<path fill-rule="evenodd" clip-rule="evenodd" d="M886.694 524.081L929.523 392.291L850.584 360.056L739.572 351.167L680.54 346.903L508.506 295.045L515.519 485.962L597.863 555.253L717.638 636.921L886.694 524.081Z" fill="#5F2D4A"/>
</g>
<mask id="mask3_261_4113" style="mask-type:luminance" maskUnits="userSpaceOnUse" x="484" y="287" width="577" height="399">
<path d="M484.001 287.489L891.18 340.812L1060.37 382.035L1060.75 473.477L1041.69 607.612L975.45 685.31L513.115 643.329L484.001 287.489Z" fill="white"/>
</mask>
<g mask="url(#mask3_261_4113)">
<path fill-rule="evenodd" clip-rule="evenodd" d="M665.004 456.811C667.58 449.607 739.572 351.167 739.572 351.167C739.572 351.167 559.68 272.165 552.598 271.521C545.517 270.877 463.113 278.598 456.031 279.24C448.949 279.884 495.719 430.716 495.719 430.716C495.719 430.716 662.429 464.018 665.004 456.811Z" fill="#532842"/>
</g>
<path fill-rule="evenodd" clip-rule="evenodd" d="M698.649 582.422C681.531 544.244 593.513 268.799 547.951 267.295C499.896 265.707 459.958 289.658 446.205 267.295C432.452 244.929 400.361 186.898 380.496 171.626C360.631 156.355 303.81 -20.4288 244.213 2.2222C184.619 24.8732 68.7639 139.558 68.7639 139.558L0 568.678C0 568.678 715.766 620.601 698.649 582.422Z" fill="#3E1E34"/>
<mask id="mask4_261_4113" style="mask-type:luminance" maskUnits="userSpaceOnUse" x="0" y="0" width="699" height="597">
<path d="M698.649 582.422C681.531 544.244 593.513 268.799 547.951 267.295C499.896 265.707 459.958 289.658 446.205 267.295C432.452 244.929 400.361 186.898 380.496 171.626C360.631 156.355 303.81 -20.4288 244.213 2.2222C184.619 24.8732 68.7639 139.558 68.7639 139.558L0 568.678C0 568.678 715.766 620.601 698.649 582.422Z" fill="white"/>
</mask>
<g mask="url(#mask4_261_4113)">
<path fill-rule="evenodd" clip-rule="evenodd" d="M378.269 38.6567L256.834 -2.95239L306.565 190.92L277.65 290.619L290.372 394.237L239.484 494.04L230.233 593.438L330.851 415.106L368.051 304.49L453.443 273.282L554.063 263.349L378.269 38.6567Z" fill="#4E253F"/>
</g>
<mask id="mask5_261_4113" style="mask-type:luminance" maskUnits="userSpaceOnUse" x="0" y="0" width="699" height="597">
<path d="M698.649 582.422C681.531 544.244 593.513 268.799 547.951 267.295C499.896 265.707 459.958 289.658 446.205 267.295C432.452 244.929 400.361 186.898 380.496 171.626C360.631 156.355 303.81 -20.4288 244.213 2.2222C184.619 24.8732 68.7639 139.558 68.7639 139.558L0 568.678C0 568.678 715.766 620.601 698.649 582.422Z" fill="white"/>
</mask>
<g mask="url(#mask5_261_4113)">
<path fill-rule="evenodd" clip-rule="evenodd" d="M772.987 655.229C772.987 655.229 643.694 370.626 622.155 338.818C600.617 307.009 554.062 263.35 554.062 263.35C554.062 263.35 525.858 330.682 513.275 338.078C500.692 345.476 452.58 363.227 443.698 367.666C434.815 372.105 450.359 407.61 458.502 421.665C466.643 435.719 488.228 473.444 495.2 485.281C502.173 497.116 452.58 574.787 446.659 582.183C440.737 589.581 458.502 614.454 458.502 614.454L772.987 655.229Z" fill="#4E253F"/>
</g>
</svg>
