<svg width="694" height="487" viewBox="0 0 694 487" fill="none" xmlns="http://www.w3.org/2000/svg">
<path fill-rule="evenodd" clip-rule="evenodd" d="M117.001 288.132L524.179 341.456L693.366 382.679L693.752 474.121L674.694 608.256L608.449 685.953L146.114 643.973L117.001 288.132Z" fill="#773F5B"/>
<mask id="mask0_2_8921" style="mask-type:luminance" maskUnits="userSpaceOnUse" x="117" y="288" width="577" height="398">
<path d="M117.001 288.132L524.179 341.456L693.366 382.679L693.752 474.121L674.694 608.256L608.449 685.953L146.114 643.973L117.001 288.132Z" fill="white"/>
</mask>
<g mask="url(#mask0_2_8921)">
<path fill-rule="evenodd" clip-rule="evenodd" d="M650.729 706.512L696.133 520.361L721.847 448.204L692.257 372.053L693.366 382.679L562.522 392.935L519.518 465.737L474.675 486.606L446.39 502.434L409.135 556.212L356.701 694.104L650.729 706.512Z" fill="#592A46"/>
</g>
<mask id="mask1_2_8921" style="mask-type:luminance" maskUnits="userSpaceOnUse" x="117" y="288" width="577" height="398">
<path d="M117.001 288.132L524.179 341.456L693.366 382.679L693.752 474.121L674.694 608.256L608.449 685.953L146.114 643.973L117.001 288.132Z" fill="white"/>
</mask>
<g mask="url(#mask1_2_8921)">
<path fill-rule="evenodd" clip-rule="evenodd" d="M712.854 582.897L693.752 474.121L584.781 530.789L556.773 613.599L576.531 695.202L680.744 685.953L712.854 582.897Z" fill="#512741"/>
</g>
<mask id="mask2_2_8921" style="mask-type:luminance" maskUnits="userSpaceOnUse" x="117" y="288" width="577" height="398">
<path d="M117.001 288.132L524.179 341.456L693.366 382.679L693.752 474.121L674.694 608.256L608.449 685.953L146.114 643.973L117.001 288.132Z" fill="white"/>
</mask>
<g mask="url(#mask2_2_8921)">
<path fill-rule="evenodd" clip-rule="evenodd" d="M519.693 524.725L562.522 392.935L483.584 360.699L372.571 351.811L313.539 347.547L141.505 295.689L148.518 486.606L230.862 555.897L350.637 637.565L519.693 524.725Z" fill="#5F2D4A"/>
</g>
<mask id="mask3_2_8921" style="mask-type:luminance" maskUnits="userSpaceOnUse" x="117" y="288" width="577" height="398">
<path d="M117.001 288.132L524.179 341.456L693.366 382.679L693.752 474.121L674.694 608.256L608.449 685.953L146.114 643.973L117.001 288.132Z" fill="white"/>
</mask>
<g mask="url(#mask3_2_8921)">
<path fill-rule="evenodd" clip-rule="evenodd" d="M298.003 457.455C300.579 450.251 372.571 351.811 372.571 351.811C372.571 351.811 192.68 272.809 185.598 272.165C178.516 271.521 96.1119 279.242 89.0301 279.884C81.9483 280.528 128.718 431.359 128.718 431.359C128.718 431.359 295.428 464.662 298.003 457.455Z" fill="#532842"/>
</g>
<path fill-rule="evenodd" clip-rule="evenodd" d="M331.648 583.066C314.53 544.887 226.512 269.443 180.95 267.938C132.895 266.35 92.9568 290.302 79.204 267.938C65.4513 245.573 33.3601 187.542 13.4952 172.27C-6.36969 156.999 -63.1909 -19.785 -122.788 2.866C-182.382 25.517 -298.237 140.202 -298.237 140.202L-367.001 569.322C-367.001 569.322 348.765 621.245 331.648 583.066Z" fill="#3E1E34"/>
<mask id="mask4_2_8921" style="mask-type:luminance" maskUnits="userSpaceOnUse" x="-368" y="0" width="700" height="598">
<path d="M331.648 583.066C314.53 544.887 226.512 269.443 180.95 267.938C132.895 266.35 92.9568 290.302 79.204 267.938C65.4513 245.573 33.3601 187.542 13.4952 172.27C-6.36969 156.999 -63.1909 -19.785 -122.788 2.866C-182.382 25.517 -298.237 140.202 -298.237 140.202L-367.001 569.322C-367.001 569.322 348.765 621.245 331.648 583.066Z" fill="white"/>
</mask>
<g mask="url(#mask4_2_8921)">
<path fill-rule="evenodd" clip-rule="evenodd" d="M11.2681 39.3006L-110.167 -2.30853L-60.436 191.564L-89.3513 291.262L-76.6286 394.881L-127.517 494.684L-136.768 594.082L-36.1502 415.75L1.05002 305.134L86.4423 273.926L187.062 263.993L11.2681 39.3006Z" fill="#4E253F"/>
</g>
<mask id="mask5_2_8921" style="mask-type:luminance" maskUnits="userSpaceOnUse" x="-368" y="0" width="700" height="598">
<path d="M331.648 583.066C314.53 544.887 226.512 269.443 180.95 267.938C132.895 266.35 92.9568 290.302 79.204 267.938C65.4513 245.573 33.3601 187.542 13.4952 172.27C-6.36969 156.999 -63.1909 -19.785 -122.788 2.866C-182.382 25.517 -298.237 140.202 -298.237 140.202L-367.001 569.322C-367.001 569.322 348.765 621.245 331.648 583.066Z" fill="white"/>
</mask>
<g mask="url(#mask5_2_8921)">
<path fill-rule="evenodd" clip-rule="evenodd" d="M405.986 655.873C405.986 655.873 276.693 371.269 255.154 339.461C233.617 307.653 187.062 263.993 187.062 263.993C187.062 263.993 158.858 331.325 146.275 338.721C133.692 346.12 85.5789 363.871 76.6975 368.31C67.814 372.749 83.358 408.254 91.5013 422.309C99.6424 436.363 121.228 474.088 128.199 485.925C135.172 497.76 85.5789 575.43 79.6587 582.827C73.7363 590.225 91.5013 615.097 91.5013 615.097L405.986 655.873Z" fill="#4E253F"/>
</g>
</svg>
