<svg width="739" height="640" viewBox="0 0 739 640" fill="none" xmlns="http://www.w3.org/2000/svg">
<path fill-rule="evenodd" clip-rule="evenodd" d="M1.57113 607.952C39.0091 568.106 173.786 298.328 205.235 297.028C236.682 295.729 262.14 332.537 280.111 317.874C298.08 303.213 322.306 264.753 338.515 244.288C354.808 223.715 391.451 181.011 404.914 167.055C419.236 152.206 448.206 180.157 468.8 198.452C468.8 198.452 505.773 148.468 550.931 112.55C596.089 76.6322 632.631 -19.1672 641.614 3.513C650.6 26.1953 739.852 539.672 738.355 557.63C736.858 575.588 717.391 659.396 660.484 635.451C603.578 611.505 -35.8689 647.798 1.57113 607.952Z" fill="#744058"/>
<mask id="mask0_261_4094" style="mask-type:luminance" maskUnits="userSpaceOnUse" x="-1" y="0" width="740" height="640">
<path d="M1.57113 607.952C39.0091 568.106 173.786 298.328 205.235 297.028C236.682 295.729 262.14 332.537 280.111 317.874C298.08 303.213 322.306 264.753 338.515 244.288C354.808 223.715 391.451 181.011 404.914 167.055C419.236 152.206 448.206 180.157 468.8 198.452C468.8 198.452 505.773 148.468 550.931 112.55C596.089 76.6322 632.631 -19.1672 641.614 3.513C650.6 26.1953 739.852 539.672 738.355 557.63C736.858 575.588 717.391 659.396 660.484 635.451C603.578 611.505 -35.8689 647.798 1.57113 607.952Z" fill="white"/>
</mask>
<g mask="url(#mask0_261_4094)">
<path fill-rule="evenodd" clip-rule="evenodd" d="M489.46 52.1182L404.914 167.053L394.085 259.645L374.9 343.882L399.446 375.088L342.986 456.758L291.722 559.297L455.857 367.177L430.87 319.898L469.643 280.241L454.132 244.286L468.8 198.45L489.46 52.1182Z" fill="#6E3A52"/>
</g>
<mask id="mask1_261_4094" style="mask-type:luminance" maskUnits="userSpaceOnUse" x="-1" y="0" width="740" height="640">
<path d="M1.57113 607.952C39.0091 568.106 173.786 298.328 205.235 297.028C236.682 295.729 262.14 332.537 280.111 317.874C298.08 303.213 322.306 264.753 338.515 244.288C354.808 223.715 391.451 181.011 404.914 167.055C419.236 152.206 448.206 180.157 468.8 198.452C468.8 198.452 505.773 148.468 550.931 112.55C596.089 76.6322 632.631 -19.1672 641.614 3.513C650.6 26.1953 739.852 539.672 738.355 557.63C736.858 575.588 717.391 659.396 660.484 635.451C603.578 611.505 -35.8689 647.798 1.57113 607.952Z" fill="white"/>
</mask>
<g mask="url(#mask1_261_4094)">
<path fill-rule="evenodd" clip-rule="evenodd" d="M219.982 290.032L211.443 293.12L196.925 307.825L213.111 365.91L178.272 427.663L137.666 467.953L135.695 488.151L100.628 566.478L141.023 499.067L166.621 467.786L232.14 423.939L251.452 397.399L258.868 381.355L293.895 347.44L301.235 338.689L250.472 314.023L235.262 296.734L219.982 290.032Z" fill="#6E3A52"/>
</g>
<mask id="mask2_261_4094" style="mask-type:luminance" maskUnits="userSpaceOnUse" x="-1" y="0" width="740" height="640">
<path d="M1.57113 607.952C39.0091 568.106 173.786 298.328 205.235 297.028C236.682 295.729 262.14 332.537 280.111 317.874C298.08 303.213 322.306 264.753 338.515 244.288C354.808 223.715 391.451 181.011 404.914 167.055C419.236 152.206 448.206 180.157 468.8 198.452C468.8 198.452 505.773 148.468 550.931 112.55C596.089 76.6322 632.631 -19.1672 641.614 3.513C650.6 26.1953 739.852 539.672 738.355 557.63C736.858 575.588 717.391 659.396 660.484 635.451C603.578 611.505 -35.8689 647.798 1.57113 607.952Z" fill="white"/>
</mask>
<g mask="url(#mask2_261_4094)">
<path fill-rule="evenodd" clip-rule="evenodd" d="M259.456 308.027C264.64 304.141 358.58 208.281 366.7 199.213C374.821 190.146 408.207 157.435 404.045 167.962C399.88 178.488 338.957 308.459 338.957 308.459L355.01 319.898C355.01 319.898 343.712 333.504 340.254 337.389C336.797 341.275 266.511 459.863 266.511 459.863L203.018 524.119L194.366 574.721L126.666 592.591C126.666 592.591 176.873 520.906 194.366 503.236C211.858 485.565 241.597 446.209 241.597 446.209L234.363 419.705L252.289 374.298L299.657 340.475L262.615 319.825C262.615 319.825 254.272 311.914 259.456 308.027Z" fill="#7D4C63"/>
</g>
<mask id="mask3_261_4094" style="mask-type:luminance" maskUnits="userSpaceOnUse" x="-1" y="0" width="740" height="640">
<path d="M1.57113 607.952C39.0091 568.106 173.786 298.328 205.235 297.028C236.682 295.729 262.14 332.537 280.111 317.874C298.08 303.213 322.306 264.753 338.515 244.288C354.808 223.715 391.451 181.011 404.914 167.055C419.236 152.206 448.206 180.157 468.8 198.452C468.8 198.452 505.773 148.468 550.931 112.55C596.089 76.6322 632.631 -19.1672 641.614 3.513C650.6 26.1953 739.852 539.672 738.355 557.63C736.858 575.588 717.391 659.396 660.484 635.451C603.578 611.505 -35.8689 647.798 1.57113 607.952Z" fill="white"/>
</mask>
<g mask="url(#mask3_261_4094)">
<path fill-rule="evenodd" clip-rule="evenodd" d="M471.664 165.898L583.917 61.4502L526.806 215.254L530.921 258.024L528.452 300.791L484.833 397.843L516.93 453.774L394.302 592.593L333.4 570.565L441.214 452.127L369.182 488.316L442.035 362.626L416.092 304.082L447.797 274.473L440.39 230.881L471.664 165.898Z" fill="#7D4C63"/>
</g>
</svg>
