<svg width="79" height="83" viewBox="0 0 79 83" fill="none" xmlns="http://www.w3.org/2000/svg">
<path d="M39.2397 82.3452C32.3802 78.3749 26.7189 73.9293 22.0396 69.2277C15.226 62.3803 10.5168 55.0015 7.27125 47.7865C-2.35771 26.3654 1.00531 6.4414 1.00531 6.4414C1.00531 6.4414 5.14114 10.4173 18.8295 8.64893C33.1371 6.80909 39.239 0.488281 39.239 0.488281C39.239 0.488281 45.3409 6.80909 59.6485 8.64893C73.3369 10.4173 77.4727 6.4414 77.4727 6.4414C77.4727 6.4414 85.7402 55.4261 39.239 82.3452H39.2397Z" fill="#04BB6E"/>
<path d="M39.2406 78.0801L38.8354 77.8297C26.3021 70.0665 16.9803 59.8246 11.1279 47.389C4.46026 33.2219 3.88273 19.6229 4.13223 12.7776L4.16559 11.8583L5.06559 12.0574C8.97833 12.9226 13.7681 13.0003 19.3002 12.2871C28.672 11.0806 35.0853 7.87548 38.8153 5.39808L39.2406 5.11572L39.6659 5.39808C43.3952 7.87548 49.8078 11.0806 59.1768 12.2871C64.7103 13.0003 69.5008 12.9226 73.4128 12.0574L74.3128 11.8583L74.3462 12.7776C74.5957 19.6229 74.0181 33.2225 67.3505 47.3911C61.4981 59.8267 52.177 70.0679 39.6451 77.8304L39.2399 78.0808L39.2406 78.0801ZM5.64034 13.737C5.48258 20.6898 6.26999 33.4605 12.5179 46.7362C18.1785 58.7646 27.1688 68.7005 39.2406 76.2736C51.311 68.7012 60.2999 58.7659 65.9612 46.7376C72.2091 33.4612 72.9965 20.6898 72.8388 13.737C68.9316 14.4648 64.2752 14.4884 58.9808 13.8057C49.6632 12.6062 43.1596 9.47459 39.2413 6.95071C35.3216 9.47459 28.8173 12.6062 19.4976 13.8057C14.2032 14.4877 9.54822 14.4648 5.64104 13.737H5.64034Z" fill="white"/>
</svg>
