<svg width="135" height="160" viewBox="0 0 135 160" fill="none" xmlns="http://www.w3.org/2000/svg">
<g opacity="0.2">
<path d="M67.2395 122.641L67.1109 122.566C60.6031 118.799 54.7986 114.372 49.858 109.408C43.6317 103.15 38.6452 95.9109 35.0375 87.8911C30.0469 76.7889 28.6041 66.103 28.2719 59.0933C27.9119 51.4953 28.7445 46.4496 28.7528 46.3996L28.8327 45.9258L29.1823 46.2574C29.2233 46.2963 33.4328 50.123 46.7973 48.3962C60.8359 46.5911 66.9949 40.3744 67.0553 40.3119L67.2395 40.1218L67.4237 40.3119C67.4841 40.3744 73.6431 46.5918 87.6817 48.3962C101.044 50.1216 105.255 46.2963 105.296 46.2574L105.645 45.9265L105.725 46.3996C105.746 46.5224 107.758 58.8761 104.043 74.3587C101.861 83.4531 98.1592 91.8358 93.0421 99.2742C86.6455 108.571 78.0075 116.408 67.3674 122.567L67.2388 122.641L67.2395 122.641ZM29.1941 46.9172C29.0065 48.2859 28.486 52.7981 28.7834 59.069C29.1135 66.0343 30.5473 76.6522 35.5046 87.6816C39.0872 95.6452 44.0382 102.834 50.2215 109.048C55.0975 113.948 60.8227 118.321 67.2395 122.05C77.7546 115.94 86.2931 108.18 92.6202 98.9835C97.7019 91.5971 101.378 83.2721 103.545 74.2387C106.846 60.4856 105.599 49.2274 105.284 46.9172C104.008 47.8239 99.2246 50.4005 87.6163 48.902C74.7251 47.2446 68.3688 41.8847 67.2395 40.8413C66.1102 41.8847 59.7538 47.2446 46.8626 48.902C35.2495 50.4026 30.4694 47.8232 29.1941 46.9172Z" fill="#5D87FF"/>
<path d="M67.3616 128.11L67.2671 128.072C58.6215 124.591 51.0615 119.64 44.7956 113.356C37.5768 106.113 32.1233 97.2687 28.5845 87.0691C24.2255 74.5024 23.6556 63.2608 23.9448 56.0429C24.2262 49.0367 25.1825 43.3958 25.865 42.7145C26.2097 42.3711 26.8609 42.4877 28.1577 42.7201C30.6235 43.1627 35.756 44.0826 44.8637 42.668C55.0591 41.0599 61.3758 37.5204 64.7693 35.6195C66.0933 34.8779 66.8918 34.4297 67.3554 34.4297C67.8189 34.4297 68.6175 34.8772 69.9407 35.6188C73.3343 37.5204 79.651 41.0592 89.847 42.668C98.9548 44.0826 104.087 43.1627 106.552 42.7208C107.85 42.4884 108.501 42.3718 108.846 42.7152C110.666 44.5329 113.417 58.0604 110.263 74.8972C108.258 85.599 103.841 95.7466 97.4898 104.242C89.9242 114.362 79.8192 122.378 67.4548 128.069L67.3616 128.112V128.11ZM26.5363 42.9691C26.3716 42.9691 26.2563 42.9927 26.2 43.0482C25.742 43.5054 24.7266 48.377 24.418 56.0617C24.1303 63.2386 24.6967 74.4178 29.032 86.9144C32.5465 97.046 37.9632 105.83 45.1313 113.023C51.3284 119.237 58.8029 124.14 67.3498 127.596C79.6002 121.941 89.6121 113.99 97.111 103.959C103.419 95.5197 107.806 85.4402 109.798 74.809C112.923 58.1312 110.28 44.8145 108.511 43.0482C108.34 42.8782 107.626 43.0073 106.636 43.1842C104.145 43.631 98.9603 44.5606 89.7741 43.1335C79.4939 41.5115 73.1293 37.9456 69.71 36.0295C68.5403 35.3746 67.6952 34.9007 67.3561 34.9007C67.0169 34.9007 66.1718 35.3746 65.0015 36.0295C61.5822 37.9449 55.2175 41.5115 44.9381 43.1329C35.7518 44.5592 30.5665 43.6303 28.075 43.1835C27.412 43.0649 26.872 42.9677 26.537 42.9677L26.5363 42.9691Z" fill="#0042FF"/>
<path d="M67.4779 133.59L67.4091 133.569C56.8502 130.489 47.2796 124.864 39.7315 117.304C31.3889 108.943 25.4684 98.4952 22.1345 86.2546C18.4115 72.5848 18.7117 60.6245 19.6187 52.998C20.4972 45.6137 21.7558 40.3141 22.9046 39.168C23.708 38.366 25.2036 38.3522 27.9196 38.3265C31.0727 38.2973 35.8382 38.2529 42.9304 36.939C51.6511 35.3239 57.9219 32.4636 62.0716 30.5703C64.6396 29.3985 66.3367 28.625 67.4702 28.625C68.6037 28.625 70.3009 29.3985 72.8695 30.5703C77.0193 32.4629 83.2901 35.3232 92.0107 36.939C99.1023 38.2529 103.868 38.2967 107.022 38.3265C109.737 38.3515 111.233 38.3653 112.037 39.1673C115.623 42.7471 119.162 57.343 116.481 75.4383C114.635 87.9016 109.606 99.5782 101.939 109.206C93.2895 120.068 81.3963 128.491 67.546 133.564L67.4786 133.589L67.4779 133.59ZM23.2124 39.4746C22.1463 40.5389 20.9058 45.8676 20.051 53.0494C19.1482 60.637 18.85 72.5377 22.5543 86.1408C25.868 98.3079 31.7503 108.69 40.04 116.998C47.5201 124.49 57.001 130.068 67.4626 133.132C81.2086 128.085 93.0122 119.719 101.598 108.936C109.217 99.368 114.215 87.7628 116.049 75.3751C118.709 57.4207 115.249 42.9892 111.728 39.4746C111.05 38.7982 109.532 38.7837 107.017 38.7608C103.848 38.7316 99.0599 38.6872 91.9308 37.3663C83.1581 35.7415 76.8573 32.8673 72.6889 30.9657C70.2627 29.8592 68.5099 29.0593 67.4702 29.0593C66.4305 29.0593 64.6778 29.8592 62.2523 30.9657C58.0838 32.8673 51.7831 35.7409 43.0104 37.3663C35.8813 38.6865 31.0928 38.7309 27.9244 38.7608C25.4093 38.7844 23.8907 38.7982 23.2131 39.4753L23.2124 39.4746Z" fill="#0042FF"/>
<path d="M67.5924 139.073L67.5437 139.062C54.9729 136.354 43.6051 130.196 34.6684 121.252C25.2562 111.826 18.6921 99.4441 15.6877 85.4448C13.2032 73.8702 13.0676 61.599 15.2944 49.9585C16.3403 44.4924 17.9958 37.568 19.9452 35.6221C21.4046 34.1652 24.0178 33.8342 28.3475 33.2869C31.5951 32.8762 35.6372 32.3642 40.9989 31.2119C48.4881 29.6023 54.2745 27.3039 58.9239 25.4578C62.7762 23.9281 65.5596 22.8223 67.5861 22.8223C69.6127 22.8223 72.3961 23.9274 76.2491 25.4578C80.8985 27.3039 86.6849 29.6023 94.1733 31.2119C99.5351 32.3642 103.576 32.8755 106.825 33.2869C111.155 33.8342 113.768 34.1652 115.227 35.6221C120.524 40.9099 124.942 56.8531 122.698 75.9855C121.029 90.213 115.39 103.417 106.39 114.171C96.5217 125.962 83.1224 134.568 67.6417 139.06L67.5938 139.074L67.5924 139.073ZM67.5854 23.2177C65.6346 23.2177 62.8811 24.3111 59.0698 25.8248C54.6525 27.5793 48.6034 29.9811 41.0816 31.5983C35.7032 32.7541 31.4805 33.289 28.3968 33.6789C24.1512 34.2158 21.5881 34.5398 20.2253 35.9009C18.7387 37.3849 17.168 42.271 15.6836 50.0321C13.4659 61.6213 13.6014 73.8376 16.0748 85.3616C19.0639 99.2866 25.5905 111.601 34.9484 120.973C43.8192 129.85 55.1008 135.967 67.5778 138.665C82.9626 134.192 96.2763 125.634 106.084 113.916C115.035 103.222 120.643 90.0888 122.303 75.9383C124.532 56.9294 120.176 41.1228 114.946 35.9009C113.582 34.5398 111.02 34.2158 106.773 33.6789C103.69 33.289 99.467 32.7541 94.0885 31.5983C86.5675 29.9811 80.5177 27.5793 76.101 25.8248C72.2898 24.3111 69.5356 23.2177 67.5854 23.2177Z" fill="#0042FF"/>
<path d="M67.7077 144.559L67.6736 144.554C53.3097 142.259 39.7903 135.386 29.606 125.201C18.9513 114.538 11.9097 100.512 9.24237 84.6387C7.14352 72.147 7.72522 59.4575 10.9701 46.922C13.0467 38.8994 15.0142 34.0431 16.9858 32.0749C19.3126 29.7522 23.1691 28.9454 29.5581 27.6085C32.2914 27.0362 35.3896 26.3882 39.0689 25.4836C45.3362 23.9427 50.5597 22.0585 55.1681 20.3969C60.4013 18.5099 64.5344 17.019 67.7028 17.019C70.8712 17.019 75.0036 18.5099 80.2368 20.3969C84.8452 22.0592 90.0687 23.9427 96.336 25.4836C100.015 26.3882 103.113 27.0369 105.846 27.6085C112.235 28.9461 116.092 29.7529 118.418 32.0749C122.052 35.7019 125.113 41.852 127.038 49.3938C129.143 57.6336 129.791 67.018 128.915 76.5322C127.443 92.5205 121.193 107.251 110.842 119.132C99.7352 131.879 84.8313 140.669 67.7424 144.551L67.7084 144.558L67.7077 144.559ZM67.7014 17.3763C64.5962 17.3763 60.4889 18.8575 55.289 20.7327C50.6723 22.3977 45.4398 24.2847 39.1537 25.8304C35.4682 26.7365 32.3672 27.3858 29.631 27.9582C23.3067 29.2819 19.4899 30.0811 17.2388 32.3281C15.3137 34.2499 13.3768 39.0527 11.3169 47.0115C8.08453 59.4977 7.50561 72.1379 9.59542 84.5798C12.2496 100.379 19.257 114.338 29.859 124.949C39.9828 135.073 53.4188 141.908 67.6958 144.196C84.6965 140.326 99.5218 131.579 110.571 118.898C120.873 107.075 127.092 92.4136 128.558 76.501C130.517 55.2353 124.543 38.6968 118.165 32.3295C115.914 30.0825 112.097 29.2833 105.772 27.9596C103.036 27.3872 99.9353 26.7379 96.2498 25.8318C89.9637 24.2861 84.7312 22.3991 80.1145 20.7341C74.9146 18.8589 70.8073 17.3777 67.7021 17.3777L67.7014 17.3763Z" fill="#0042FF"/>
<path d="M67.8207 150.046L67.7977 150.043C51.4671 148.128 36.1052 140.707 24.5421 129.148C12.603 117.207 5.08331 101.539 2.79682 83.8347C1.08091 70.5493 2.37566 57.1091 6.64493 43.8889C9.24346 35.842 11.589 30.9608 14.0256 28.5285C17.4901 25.0708 22.9012 23.6111 31.8672 21.1927C33.5039 20.7508 35.258 20.2783 37.1386 19.7552C42.0355 18.3941 46.5278 16.8678 50.4913 15.5212C57.5732 13.1153 63.1671 11.2151 67.8172 11.2151C72.4673 11.2151 78.0605 13.1153 85.1431 15.5212C89.1065 16.8678 93.5989 18.3941 98.4964 19.7552C100.377 20.2783 102.132 20.7515 103.769 21.1927C112.734 23.6111 118.145 25.0708 121.609 28.5285C131.235 38.137 136.542 57.1951 135.132 77.0817C133.891 94.5733 126.845 111.269 115.293 124.093C102.934 137.814 86.5261 146.787 67.845 150.042L67.822 150.046H67.8207ZM67.8165 11.5335C63.2199 11.5335 57.6482 13.4261 50.5935 15.823C46.6258 17.171 42.1293 18.6986 37.2234 20.0626C35.3421 20.5856 33.5866 21.0588 31.9492 21.5007C23.0354 23.9053 17.6548 25.3566 14.2508 28.7546C11.851 31.1502 9.53049 35.9905 6.94794 43.9867C2.69326 57.1618 1.40268 70.5555 3.11303 83.7937C5.39049 101.427 12.8789 117.032 24.768 128.923C36.2755 140.425 51.5616 147.812 67.8116 149.723C86.4121 146.477 102.748 137.54 115.054 123.879C126.559 111.108 133.576 94.4797 134.811 77.0588C136.216 57.2604 130.944 38.3 121.381 28.7539C117.978 25.3559 112.598 23.9046 103.684 21.5C102.046 21.0581 100.291 20.585 98.4089 20.0619C93.503 18.6979 89.0065 17.1703 85.0381 15.8223C77.9841 13.4261 72.4124 11.5328 67.8158 11.5328L67.8165 11.5335Z" fill="#0042FF"/>
<path d="M67.9499 155.532C49.6267 153.999 32.4231 146.031 19.4784 133.096C6.41137 120.034 -1.80192 102.255 -3.64848 83.0334C-5.00786 68.8822 -3.00006 54.6928 2.31863 40.8593C5.36056 32.9477 8.13979 27.9027 11.065 24.982C16.0695 19.9862 23.6837 17.6157 35.2086 14.0262C38.3749 13.0404 41.3814 12.0379 44.2885 11.0687C53.3935 8.03284 61.2565 5.41113 67.9318 5.41113C74.6071 5.41113 82.4694 8.03284 91.5744 11.0687C94.4815 12.0386 97.4886 13.0404 100.655 14.0269C112.18 17.6157 119.794 19.9869 124.799 24.9827C136.125 36.2888 142.466 56.4632 141.347 77.6325C140.331 96.8509 132.66 115.113 119.745 129.053C106.316 143.549 87.9222 152.953 67.9499 155.532ZM11.2637 25.1811C8.36774 28.0727 5.60867 33.0864 2.58133 40.9599C-2.72207 54.7531 -4.72362 68.8995 -3.3684 83.0063C-1.52809 102.164 6.6567 119.882 19.6772 132.898C32.5746 145.785 49.7156 153.724 67.9429 155.253C87.8194 152.683 106.154 143.31 119.538 128.862C132.408 114.97 140.053 96.7705 141.065 77.6172C142.179 56.525 135.87 36.4324 124.598 25.1804C119.643 20.2339 112.055 17.871 100.57 14.2947C97.4004 13.3075 94.3925 12.305 91.4833 11.3344C82.402 8.30687 74.5591 5.69141 67.9304 5.69141C61.3017 5.69141 53.4581 8.30687 44.3768 11.3344C41.4683 12.3043 38.4604 13.3075 35.2913 14.294C23.8068 17.8703 16.2183 20.2339 11.2623 25.1797L11.2637 25.1811Z" fill="#0042FF"/>
<path d="M68.0587 161.021C47.7868 159.87 28.7422 151.355 14.4159 137.044C0.0249195 122.664 -8.67902 103.2 -10.0919 82.2335C-11.1094 67.1395 -8.38852 52.2001 -2.00651 37.831C1.37735 30.2129 4.68477 24.8502 8.10547 21.4355C13.7772 15.7738 21.6312 12.3314 33.2812 8.29786L35.2361 7.62006C47.6277 3.32016 58.3297 -0.392822 68.0476 -0.392822C77.7655 -0.392822 88.4668 3.32016 100.859 7.62006L102.814 8.29786C114.464 12.3314 122.318 15.7738 127.99 21.4355C141.08 34.5024 148.397 55.7168 147.564 78.1834C146.787 99.1237 138.489 118.951 124.199 134.012C109.516 149.488 89.5781 159.08 68.0587 161.021ZM68.0476 -0.150008C58.3714 -0.150008 47.6874 3.55742 35.3161 7.84969L33.3611 8.52749C21.7445 12.5492 13.9162 15.9784 8.27782 21.6076C4.87797 25.0007 1.58724 30.3399 -1.78411 37.9296C-8.15014 52.2626 -10.864 67.163 -9.84937 82.2176C-8.43995 103.125 0.238278 122.535 14.5882 136.873C28.8722 151.142 47.8605 159.632 68.0552 160.779C89.4982 158.844 109.381 149.278 124.023 133.845C138.273 118.826 146.546 99.0557 147.321 78.1743C148.153 55.7737 140.861 34.6266 127.818 21.6069C122.18 15.9784 114.351 12.5485 102.735 8.5268L100.78 7.849C88.4085 3.55673 77.7245 -0.150702 68.0483 -0.150702L68.0476 -0.150008Z" fill="#0042FF"/>
<path d="M68.1684 166.511C45.9457 165.743 25.0608 156.681 9.35212 140.993C-6.38434 125.275 -15.5782 104.124 -16.5366 81.4365C-17.217 65.3247 -13.7845 49.6361 -6.3336 34.8071C-2.63075 27.438 1.12424 21.9039 5.1447 17.8905C11.173 11.8736 19.011 7.29134 31.3538 2.57102C43.2561 -1.9814 55.9534 -6.19458 68.1621 -6.19458C80.3708 -6.19458 93.0682 -1.9814 104.97 2.57102C117.313 7.29203 125.151 11.8736 131.18 17.8905C138.295 24.9939 144.115 34.1452 148.01 44.3539C152.119 55.123 154.059 66.6914 153.779 78.7378C153.251 101.395 144.328 122.788 128.652 138.973C112.71 155.434 91.2285 165.214 68.1677 166.512L68.1684 166.511ZM5.28995 18.0341C1.28478 22.0323 -2.4577 27.5483 -6.15082 34.898C-13.5857 49.6958 -17.012 65.3504 -16.333 81.4268C-15.3767 104.063 -6.20365 125.166 9.49667 140.848C25.1685 156.499 46.0047 165.54 68.1656 166.306C91.166 165.011 112.599 155.253 128.505 138.83C144.145 122.681 153.048 101.338 153.574 78.7315C154.126 55.0072 145.91 32.884 131.034 18.0341C125.028 12.038 117.211 7.47033 104.897 2.76042C93.0133 -1.78507 80.3375 -5.99131 68.1621 -5.99131C55.9867 -5.99131 43.311 -1.78507 31.4275 2.76042C19.1131 7.47102 11.2967 12.0387 5.28995 18.0341Z" fill="#0042FF"/>
<path d="M68.2801 172C44.1052 171.616 21.3807 162.006 4.28831 144.941C-12.8103 127.867 -22.4949 105.031 -22.9814 80.6386C-23.3191 63.6811 -19.0589 46.7868 -10.6614 31.7829C-6.7751 24.8405 -2.45301 18.9727 2.18529 14.3426C9.26923 7.27045 18.181 1.54558 29.4286 -3.16016C43.511 -9.10843 56.2187 -12 68.2773 -12C80.3359 -12 93.0437 -9.10843 107.126 -3.16016C118.374 1.54489 127.285 7.27045 134.369 14.3426C142.468 22.4269 148.826 32.1007 153.264 43.0932C157.869 54.4944 160.133 66.6726 159.994 79.2892C159.726 103.661 150.177 126.617 133.105 143.93C115.897 161.381 92.8755 171.349 68.2787 171.999L68.2801 172ZM68.278 -11.8335C56.2423 -11.8335 43.5554 -8.94609 29.4939 -3.00684C18.2658 1.68988 9.37209 7.40366 2.30344 14.4598C-2.32375 19.0796 -6.6368 24.9349 -10.5155 31.8634C-18.899 46.8416 -23.1516 63.7068 -22.8146 80.6344C-22.3295 104.984 -12.6616 127.779 4.40645 144.823C21.4682 161.857 44.1517 171.45 68.2794 171.834C92.8296 171.185 115.811 161.234 132.988 143.814C150.029 126.532 159.562 103.616 159.829 79.2872C160.101 54.5853 150.779 30.9567 134.253 14.4598C127.185 7.40366 118.29 1.68988 107.062 -3.00684C92.9999 -8.94678 80.3137 -11.8335 68.278 -11.8335Z" fill="#E5F9EA"/>
</g>
</svg>
