<svg width="2447" height="253" viewBox="0 0 2447 253" fill="none" xmlns="http://www.w3.org/2000/svg">
<path opacity="0.35" fill-rule="evenodd" clip-rule="evenodd" d="M227.998 141.461C333.067 172.85 433.902 212.219 543.371 234.814C652.843 257.409 775.765 261.627 876.595 223.888C940.811 199.855 994.812 159.546 1066.07 149.664C1189.93 132.49 1314.51 213.899 1434.98 187.251C1475.78 178.227 1509.4 157.752 1547.98 144.725C1677.02 101.155 1826.69 147.103 1968.11 161.764C2133.99 178.961 2308.57 149.706 2446.04 81.6713C2340.26 143.695 2189.52 148.68 2053.45 135.907C1917.38 123.135 1782.12 95.5861 1645.31 103.451C1517.98 110.772 1390.46 148.576 1266.22 127.507C1201.71 116.566 1139.89 89.9218 1074.05 95.6278C1024.27 99.9438 981.833 122.14 936.325 137.089C773.609 190.535 579.404 148.461 425.087 83.6907C321.043 40.0246 207.434 -16.1246 90.4952 5.64069C58.5542 11.5863 -101.424 79.3164 -45.0827 94.7275C-26.6609 99.7666 4.63161 96.3572 24.9177 98.4162C48.2026 100.782 71.258 104.228 94.0215 108.415C139.836 116.841 184.414 128.442 227.998 141.461Z" fill="#D6E4F6"/>
</svg>
