<svg width="2579" height="163" viewBox="0 0 2579 163" fill="none" xmlns="http://www.w3.org/2000/svg">
<path opacity="0.35" fill-rule="evenodd" clip-rule="evenodd" d="M312.191 1.729C429.486 8.28735 541.527 37.3862 655.353 58.5055C769.179 79.6248 891.229 92.6581 1003.3 67.2395C1059.74 54.4375 1112.31 32.1387 1170.98 26.2389C1263.35 16.9505 1352.5 49.3942 1436.84 77.6783C1521.18 105.962 1618.2 131.281 1705.56 108.073C1756.75 94.4753 1796.87 65.9183 1844.17 46.4766C1952.67 1.87488 2088.34 8.9688 2210.54 28.9669C2332.75 48.9649 2453.11 80.6271 2578.52 81.0314C2392.1 69.7758 2201.03 58.7972 2020.65 94.0294C1890.08 119.531 1763.74 169.191 1628.7 161.868C1533.18 156.687 1444.36 123.057 1348.95 116.951C1228.67 109.253 1111.54 145.783 990.996 151.11C852.058 157.25 717.156 121.94 584.062 93.0144C450.967 64.0885 306.683 41.2375 174.283 71.7264C140.824 79.4309 108.572 90.4761 73.7703 94.119C47.3074 96.8886 -11.5387 97.0178 1.99308 69.7841C11.7629 50.1215 65.2892 33.7038 89.8148 25.8638C158.869 3.78381 237.181 -2.46609 312.191 1.729Z" fill="#D6E4F6"/>
</svg>
