<svg width="2711" height="611" viewBox="0 0 2711 611" fill="none" xmlns="http://www.w3.org/2000/svg">
<path opacity="0.35" fill-rule="evenodd" clip-rule="evenodd" d="M432.817 320.937C616.403 337.838 787.428 393.863 963.069 435.347C1138.71 476.831 1331.9 503.758 1507.26 461.686C1594 440.876 1674.2 403.641 1765.28 396.891C1850.38 390.585 1934.5 411.795 2013.03 435.874C2091.57 459.955 2169.77 487.601 2254.64 495.314C2339.51 503.027 2434.89 486.409 2484.93 437.195C2474.51 354.777 2464.09 272.359 2453.67 189.941C2197.42 258.874 1919.86 328.771 1655.32 277.944C1608.26 268.902 1560.85 255.991 1512.35 259.538C1421.3 266.197 1359.98 326.297 1283.9 362.38C1187.62 408.046 1056.8 414.334 952.709 378.301C860.112 346.249 783.551 282.838 680.586 280.049C617.506 278.34 557.292 300.62 494.176 301.287C442.491 301.833 392.83 287.895 341.627 282.879C284.595 277.292 226.452 283.106 171.998 295.712C121.479 307.408 48.3689 326.86 10.7641 354.606C-32.1479 386.266 66.0442 358.862 81.7676 353.696C132.206 337.126 186.476 326.739 241.439 321.256C304.773 314.942 369.423 315.102 432.817 320.937Z" fill="#D6E4F6"/>
<path opacity="0.35" fill-rule="evenodd" clip-rule="evenodd" d="M444.438 449.931C561.734 456.489 673.775 485.588 787.601 506.707C901.426 527.826 1023.48 540.86 1135.54 515.441C1191.99 502.639 1244.55 480.34 1303.23 474.44C1395.6 465.152 1484.75 497.596 1569.09 525.88C1653.42 554.164 1750.44 579.482 1837.81 556.275C1889 542.677 1929.12 514.12 1976.42 494.678C2084.92 450.076 2220.59 457.17 2342.79 477.168C2465 497.166 2585.35 528.829 2710.77 529.233C2524.35 517.977 2333.28 506.999 2152.9 542.231C2022.33 567.733 1895.98 617.392 1760.95 610.069C1665.43 604.888 1576.61 571.259 1481.2 565.153C1360.92 557.454 1243.78 593.985 1123.24 599.312C984.306 605.451 849.404 570.142 716.309 541.216C583.215 512.29 438.931 489.439 306.531 519.928C273.072 527.632 240.82 538.678 206.018 542.32C179.555 545.09 120.709 545.219 134.241 517.986C144.01 498.323 197.537 481.905 222.062 474.065C291.116 451.985 369.429 445.735 444.438 449.931Z" fill="#D6E4F6"/>
<path opacity="0.35" fill-rule="evenodd" clip-rule="evenodd" d="M309.686 140.663C414.756 172.052 515.59 211.421 625.06 234.016C734.531 256.61 857.453 260.828 958.283 223.089C1022.5 199.057 1076.5 158.748 1147.76 148.866C1271.62 131.691 1396.2 213.101 1516.67 186.453C1557.47 177.429 1591.09 156.954 1629.67 143.926C1758.71 100.356 1908.38 146.304 2049.8 160.965C2215.68 178.162 2390.25 148.907 2527.73 80.8729C2421.95 142.897 2271.21 147.882 2135.14 135.109C1999.06 122.336 1863.81 94.7878 1727 102.653C1599.67 109.974 1472.15 147.778 1347.91 126.708C1283.4 115.767 1221.58 89.1235 1155.74 94.8295C1105.95 99.1454 1063.52 121.342 1018.01 136.291C855.297 189.737 661.092 147.663 506.775 82.8923C402.732 39.2263 289.123 -16.9229 172.184 4.84235C140.243 10.788 -19.7358 78.518 36.6057 93.9292C55.0276 98.9683 86.3201 95.5589 106.606 97.6179C129.891 99.9832 152.946 103.43 175.71 107.617C221.525 116.043 266.103 127.644 309.686 140.663Z" fill="#D6E4F6"/>
</svg>
