<svg width="2485" height="308" viewBox="0 0 2485 308" fill="none" xmlns="http://www.w3.org/2000/svg">
<path opacity="0.35" fill-rule="evenodd" clip-rule="evenodd" d="M432.817 131.736C616.403 148.637 787.428 204.661 963.069 246.145C1138.71 287.629 1331.9 314.557 1507.26 272.485C1594 251.674 1674.2 214.439 1765.28 207.689C1850.38 201.383 1934.5 222.594 2013.03 246.672C2091.57 270.753 2169.77 298.399 2254.64 306.112C2339.51 313.825 2434.89 297.207 2484.93 247.994C2474.51 165.576 2464.09 83.1575 2453.67 0.739502C2197.42 69.672 1919.86 139.569 1655.32 88.7426C1608.26 79.7002 1560.85 66.7898 1512.35 70.3368C1421.3 76.9951 1359.98 137.096 1283.9 173.178C1187.62 218.845 1056.8 225.132 952.709 189.1C860.112 157.048 783.551 93.6359 680.586 90.8475C617.506 89.1386 557.292 111.419 494.176 112.086C442.491 112.632 392.83 98.6938 341.627 93.6776C284.595 88.0904 226.452 93.9047 171.998 106.511C121.479 118.206 48.3689 137.658 10.7641 165.405C-32.1479 197.065 66.0442 169.66 81.7676 164.494C132.206 147.924 186.476 137.537 241.439 132.054C304.773 125.74 369.423 125.9 432.817 131.736Z" fill="#D6E4F6"/>
</svg>
